<?xml version="1.0" encoding="UTF-8" standalone="no"?>
<!DOCTYPE svg  PUBLIC '-//W3C//DTD SVG 1.1//EN'  'http://www.w3.org/Graphics/SVG/1.1/DTD/svg11.dtd'>
<svg xmlns="http://www.w3.org/2000/svg" version="1.1">
<defs>
<font id="Storybook_Left" horiz-adv-x="833">
<font-face cap-height="292" underline-position="-1" font-family="Storybook Left" units-per-em="1000" panose-1="0 0 0 0 0 0 0 0 0 0" descent="-200" bbox="-679 -240 1412 558" x-height="315" underline-thickness="0" ascent="800" unicode-range="U+0020-00FD" font-weight="400"/>
<missing-glyph/>
<glyph unicode=" " glyph-name="space" horiz-adv-x="183"/>
<glyph unicode="!" glyph-name="exclam" d="M118 529q8 0 12 -7q-3 -30 -14 -112t-14 -108l-12 -82q0 -4 -10 -74q-2 -1 -5 -1h-1q-4 2 -6 5q4 54 9.5 163.5t6.5 129.5q3 60 5 73q13 13 29 13zM79 71q0 10 -7 12h-3q-13 0 -13 -16q0 -9 10 -9q13 0 13 13z" horiz-adv-x="185"/>
<glyph unicode='&quot;' glyph-name="quotedbl" d="M80 476q-3 0 -3 25q0 22 -1 29q3 8 12 9h3q6 0 8 -8v-1q0 -8 -7 -31t-11 -23h-1zM139 532q-7 -40 -20 -55h-2q-2 0 -4 1q2 8 3 26v4q0 11 0.5 16t3.5 9t9 6h3q3 1 4.5 -1t2.5 -6z" horiz-adv-x="345"/>
<glyph unicode="#" glyph-name="numbersign" horiz-adv-x="326"/>
<glyph unicode="$" glyph-name="dollar" horiz-adv-x="1024"/>
<glyph unicode="%" glyph-name="percent"/>
<glyph unicode="&amp;" glyph-name="ampersand"/>
<glyph unicode="&apos;" glyph-name="quotesingle" d="M34 473q-5 30 -5 54v1q9 9 18 9q5 0 6 -6q0 -8 -6 -29q-6 -29 -10 -29h-3z" horiz-adv-x="76"/>
<glyph unicode="(" glyph-name="parenleft"/>
<glyph unicode=")" glyph-name="parenright"/>
<glyph unicode="*" glyph-name="asterisk"/>
<glyph unicode="+" glyph-name="plus"/>
<glyph unicode="," glyph-name="comma" d="M22 54q0 13 14 13q13 -2 13 -13q0 -13 -7.5 -24t-16.5 -15q-1 1 0 2v3q4 1 8.5 9t3.5 12q-13 -3 -15 12v1z" horiz-adv-x="94"/>
<glyph unicode="-" glyph-name="hyphen" d="M42 218q0 9 10 15q4 -1 50 -1h71q1 -1 1 -3q0 -9 -5 -16q-36 -1 -79 0q-44 0 -47 -1q-1 2 -1 6z" horiz-adv-x="212"/>
<glyph unicode="." glyph-name="period" d="M25 29q-12 0 -12 14q0 13 11 13q5 0 9.5 -5t4.5 -10t-4.5 -8.5t-8.5 -3.5z" horiz-adv-x="83"/>
<glyph unicode="/" glyph-name="slash" d="M273 543q-56 -130 -205 -463l-29 -64q-6 -2 -8 5q-2 4 -4 10q1 1 30 67q28 61 94.5 213t99.5 223q6 12 9 21q4 1 7 -4q2 -2 6 -8z" horiz-adv-x="302"/>
<glyph unicode="0" glyph-name="zero"/>
<glyph unicode="1" glyph-name="one"/>
<glyph unicode="2" glyph-name="two"/>
<glyph unicode="3" glyph-name="three"/>
<glyph unicode="4" glyph-name="four"/>
<glyph unicode="5" glyph-name="five"/>
<glyph unicode="6" glyph-name="six"/>
<glyph unicode="7" glyph-name="seven"/>
<glyph unicode="8" glyph-name="eight"/>
<glyph unicode="9" glyph-name="nine"/>
<glyph unicode=":" glyph-name="colon" d="M31 220q0 13 12 13q5 0 9.5 -4.5t4.5 -9.5t-4.5 -8.5t-8.5 -3.5q-13 0 -13 13zM35 82q-13 0 -13 13t12 13q4 0 9 -5t5 -9t-3.5 -7.5t-5.5 -3.5q-1 -1 -4 -1z" horiz-adv-x="111"/>
<glyph unicode=";" glyph-name="semicolon" d="M32 77q0 14 13 14q15 -2 13 -14q0 -27 -23 -39q-1 1 -1 2t7 10t6 14q-13 -3 -15 12v1zM52 201q-12 0 -12 13q0 9 9 13q2 0 3 1q4 0 8.5 -5.5t4.5 -10.5q-7 -11 -8 -11h-5z" horiz-adv-x="104"/>
<glyph unicode="&lt;" glyph-name="less" d="M172 192q0 -7 -5.5 -17.5t-10.5 -10.5q-5 5 -15 12.5t-22.5 16t-18.5 13.5q-66 45 -79 58l2 1q2 1 7 3t10 5q16 8 60.5 32t64.5 34q7 -2 7 -6q-4 -1 -52 -27q-24 -12 -45 -24q-22 -11 -23 -12q13 -6 29.5 -16.5t36.5 -23t29 -18.5q6 -3 11.5 -6.5t8.5 -5.5t4 -2 q1 -1 1 -6z" horiz-adv-x="199"/>
<glyph unicode="=" glyph-name="equal" d="M202 231q0 -2 -6 -14h-63q-21 1 -60 1q-27 2 -29 0q-1 2 -1 5q0 5 10 13q12 0 28 -1h120q1 -1 1 -4zM208 273q0 -6 -6 -14h-62q-42 0 -60 1h-30q-1 1 -1 5q0 5 10 13q3 -1 29 -1h54q13 -1 37 -1h29v-3z" horiz-adv-x="248"/>
<glyph unicode="&gt;" glyph-name="greater" d="M60 163q-5 1 -10 11t-5 18q0 4 1 6q6 2 14.5 7t19.5 12.5t16 10.5q66 40 69 42l-18 8q-14 8 -45 24.5t-33 17.5q-6 3 -11.5 6t-8.5 5t-4 2q0 2 2 4q3 0 5 1q66 -35 84 -43q40 -23 59 -32q-21 -14 -68.5 -50.5t-66.5 -49.5z" horiz-adv-x="221"/>
<glyph unicode="?" glyph-name="question" d="M199 487q47 0 77 -21t30 -64q0 -42 -20 -73.5t-45.5 -48t-57.5 -40t-47 -44.5q-6 -8 -11.5 -19t-8 -25.5t6.5 -20.5q9 -7 12 5q8 5 11 -5q1 -8 -9 -9q-19 0 -29 16.5t-4 36.5q9 35 45 61q71 50 100 103q10 21 13.5 46.5t-4.5 50.5q-12 27 -40 38.5t-64 4.5 q-46 -9 -75 -41.5t-10 -76.5q17 -41 49 -47q27 -4 38 12t0 19q-5 6 4 11q8 3 11 -2q7 -11 -12 -30q-16 -18 -52 -13q-45 8 -57 45q-5 13 -5 25q0 34 26 59t62 37q30 10 66 10zM136 78q0 10 -7 12h-3q-15 0 -15 -16q3 -8 8 -10h3q14 0 14 14z" horiz-adv-x="345"/>
<glyph unicode="A" glyph-name="A" d="M978 231q11 0 20 -6t12 -9.5t10 -14.5q0 -5 -4 -5q-4 1 -5.5 3t-4.5 7.5t-5 8.5q-8 13 -22 13q-11 0 -19 -4q-24 -15 -37.5 -53.5t-11.5 -81.5q3 -43 27 -14q11 13 21 37q5 14 10.5 28.5t8.5 22.5t4 11q11 9 23 3t18 -15q0 -13 -10 -63q-14 -58 6 -54q9 3 23 17 q26 25 89 105q23 30 24 34q1 -1 6 -1q-3 -7 -17 -24q-43 -62 -92 -111q-26 -26 -40 -26h-1q-21 2 -28.5 24.5t-4.5 51.5q3 32 1 41l-3 -13q-14 -41 -35 -69q-16 -21 -35.5 -13t-27.5 32q-5 17 -5 32q0 29 12.5 54t31.5 36q-4 0 -5 -1q-51 -17 -182.5 -66t-200.5 -71 q-183 -55 -288 -58h-9q-60 0 -112.5 21t-77.5 54q-14 19 -14 28q0 7 6 10t13 -2q9 -8 1 -16q-15 -2 3 -23q25 -29 81 -47.5t116 -16.5q103 2 276 55q65 20 175 60q27 10 77.5 29.5t85.5 31.5t73 22q12 6 36 6h7z" horiz-adv-x="1155"/>
<glyph unicode="B" glyph-name="B" d="M1042 199q-11 -5 -26 -14.5t-33.5 -21.5t-26.5 -17q4 -40 -17.5 -73.5t-60.5 -21.5q-10 6 -8.5 16.5t14.5 25.5t22.5 24.5t13.5 12.5q5 18 3 34q0 15 -6 19t-14 -2t-14 -17q-29 -53 -42 -125q-8 -8 -14 -8h-2q-20 44 -30 133l-3 27q-22 -16 -101 -54q-147 -74 -333 -108 q-73 -13 -135 -14h-12q-59 0 -111.5 19.5t-77.5 51.5q-14 17 -14 27q0 8 6 11t12 -3q8 -8 2 -15q-16 -2 2 -22q29 -35 120 -55q33 -6 73 -6q128 1 266 42q186 53 302 131q-2 46 -2 70q0 163 50 225q24 30 57 30q47 0 55.5 -35t-12 -84t-41.5 -86t-35 -56q-25 -34 -38 -47 q0 -94 16 -156q2 14 9 41q13 55 38 80q9 11 21 12q34 1 40 -38l20 12q5 3 13.5 8t15 9t11.5 7q16 9 18 13h6q3 0 3 -2zM831 220q41 44 75.5 108t44.5 124q11 54 -29 62q-23 5 -45 -33q-40 -72 -46 -261zM918 123q-12 -9 -32.5 -35t-6.5 -32q12 -3 23 20.5t16 46.5z" horiz-adv-x="1035"/>
<glyph unicode="C" glyph-name="C" d="M979 42q-29 0 -45.5 24.5t-17.5 57.5q0 32 12 59.5t30 39.5q-65 -19 -200.5 -72t-199.5 -73q-73 -23 -151 -42q-75 -17 -137 -18h-11q-60 0 -112 21t-75 53q-14 17 -14 28q0 14 12.5 9t8.5 -15q-1 -2 -2 -3q-15 -2 3 -23q25 -29 80.5 -46.5t116.5 -15.5q99 2 278 56 q149 48 331 120q68 27 102 31h3q18 0 29 -8t5 -24q-4 -10 -7.5 -14t-7.5 -3q-2 1 -1.5 2.5t2.5 3.5q4 -1 8 7t3.5 17t-7.5 11q-19 6 -33 -21t-20 -59.5t-6 -57.5q0 -22 7 -33t20.5 -8t25 7t28.5 17.5t23 18.5t16 14q33 31 60 63q24 28 27 34q1 1 4 1q2 0 2 -1l-3 -4 q-2 -3 -8 -10.5t-13 -16.5q-68 -85 -129 -117q-22 -10 -37 -10z" horiz-adv-x="1164"/>
<glyph unicode="D" glyph-name="D" d="M1048 21h-3q-40 8 -61 109q-38 -56 -57 -53q-22 2 -34 19.5t-12 42.5v13q4 34 27 52q-32 -9 -74 -24q-330 -125 -478 -158q-75 -17 -136 -18h-9q-60 0 -113 21t-78 54q-13 18 -13 27q-2 11 7 12q12 0 14 -9q2 -5 -2 -9q-16 -2 3 -24q24 -29 81.5 -47t116.5 -16 q103 2 275 54q65 20 175 60q29 10 71 26t74 27.5t64 21.5q2 1 16.5 6t20.5 6t17.5 2.5t19 -2t14.5 -10.5v1q-17 185 35 293q21 47 59 47q62 0 52 -78q-15 -118 -94 -266q-4 -6 -7 -12.5t-6 -12.5q3 -60 10 -99q9 -45 22 -50t38 27q30 35 80 118q4 6 8 13l6 10.5t2 4.5h8 q-36 -72 -100 -151q-24 -28 -39 -28zM1013 188q52 98 82 192q18 55 20 99q2 48 -23 57q-26 9 -44.5 -31.5t-25 -100t-10 -121t0.5 -94.5v-1zM982 137q0 2 -3 27t-8.5 35.5t-17.5 11.5t-20 -16t-13 -37q-14 -74 10 -76q9 -1 21.5 12.5t30.5 41.5v1z" horiz-adv-x="1182"/>
<glyph unicode="E" glyph-name="E" d="M918 85q-32 0 -54 25t-22 57q0 11 1 16q-163 -68 -368 -118q-127 -30 -207 -30q-12 0 -30 2q-65 5 -124 29t-88 59q-13 16 -13 26q0 13 14 10q13 -4 9 -14q-1 -3 -3 -6q-17 0 4 -21q27 -28 88 -48.5t122 -26.5q74 -7 224 26q164 37 373 116q8 30 21.5 46.5t38.5 16.5h5 q10 -1 19.5 -4.5t13.5 -11.5t-9 -19q-14 -14 -42 -22q-30 -88 15 -101q18 -5 40 4q53 24 100 75q6 7 13 14.5t10 10.5t3 4q1 1 3 1q1 0 3 -2q-2 -1 -27 -30q-28 -30 -60 -52q-20 -16 -45 -25q-14 -7 -28 -7zM894 200q15 6 34.5 18.5t6.5 18.5q-19 10 -41 -37z" horiz-adv-x="1072"/>
<glyph unicode="F" glyph-name="F" d="M850 188q-101 -58 -241 -91.5t-290 -33.5q-75 1 -148.5 18t-98.5 45q-21 26 -22 38q0 16 14 9q12 -6 8 -14q-1 -2 -3 -3q-18 -3 11 -30q22 -22 88.5 -37t132.5 -16q176 -6 368 46q103 27 182 74q27 177 94 256q25 30 55 30q33 0 44 -18t2.5 -45t-20.5 -51t-27 -44 q-37 -50 -99 -98q-10 -59 -17 -141q0 -1 5 -8q67 22 146 91q34 31 37 37h9q-5 -7 -40 -38q-73 -67 -145 -94q-1 0 -1 -1l-2 -1q52 -85 48 -179q-1 -48 -29 -52h-4q-29 0 -47 43q-22 54 -22 182q-18 4 -26.5 12t-7.5 20q3 20 37 16l2 21q4 38 7 57zM901 229q47 38 87.5 87.5 t54.5 96.5q10 40 -7 50q-30 17 -58 -18q-45 -55 -77 -216zM881 65v-13q-5 -95 2 -144q2 -13 4 -21t5.5 -19.5t9.5 -16.5t13 -4q35 6 13 107q-12 60 -42 112q-1 -1 -5 -1zM840 104q-13 0 -17.5 -7t0 -15.5t15.5 -11.5q2 22 2 34zM882 72h1l-1 1v-1z" horiz-adv-x="1075"/>
<glyph unicode="G" glyph-name="G" d="M858 -231q-30 0 -47.5 19.5t-17.5 50.5q0 78 80 164q38 40 92 80q9 83 12 127q0 -2 -2.5 -7t-8 -15.5t-10.5 -20.5q-22 -41 -42 -40q-23 1 -34 18.5t-9.5 40t11.5 42.5q13 23 33 36l-10 -3q-53 -18 -160.5 -58t-199 -70.5t-174.5 -48.5q-71 -17 -137 -19h-8q-34 0 -64 6 q-92 22 -127 69q-14 19 -14 28q0 8 6 11t13 -3q8 -8 2 -15q-16 -2 2 -23q24 -29 81.5 -47.5t116.5 -16.5q102 2 275 55q91 27 334 117q50 19 79 25q22 9 39 9q18 -1 24 -10l10 -15q0 -2 -1 -3.5t-3 -0.5q-4 0 -14 16q-11 13 -25.5 8t-22.5 -15q-31 -42 -28 -106q4 -40 28 -8 q9 13 17 30q21 47 23 54q8 10 19.5 7.5t17.5 -11.5q-12 -32 -16 -90l-3 -31q53 38 87 59q43 28 47 38q1 -1 3.5 -1.5t3.5 -0.5q-3 -5 -18 -16q-21 -16 -124 -87q-16 -167 -31 -222q-14 -60 -56 -89q-23 -17 -49 -17zM963 74q-92 -68 -135 -139q-22 -36 -26 -72 q-7 -44 10 -64t58 2q30 20 50.5 71.5t28 94.5t14.5 107z" horiz-adv-x="1130"/>
<glyph unicode="H" glyph-name="H" d="M954 6q-30 7 -30 66q0 33 7 94q1 25 -5 25q-18 0 -48 -64q-16 -30 -22 -54q-13 -18 -21 -15q-7 16 -12 39q-8 46 -8 97v8q-81 -52 -195.5 -93t-233.5 -61q-71 -13 -135 -14h-9q-60 0 -112.5 20t-78.5 52q-14 19 -14 29q0 7 6 10t13 -2q8 -8 2 -16q-16 -2 1 -23 q22 -28 77.5 -44.5t115.5 -16.5q128 0 266 39q174 49 297 125q0 146 52 247q36 72 92 72q31 0 46.5 -15t5.5 -45q-18 -61 -97 -167q-50 -63 -61 -74q-9 -102 1 -147q4 28 23 61.5t38 51.5q11 11 23 11q31 -2 31 -67q0 -4 -4 -39t-5.5 -55t0.5 -29q11 -2 35 32q34 46 81 127 q14 24 18 28q3 0 6 -1q-8 -11 -26.5 -43.5t-26.5 -44.5q-18 -31 -52 -74q-24 -32 -38 -30h-3zM1006 465q9 27 -2 42.5t-36 7.5q-15 -5 -27 -20q-45 -50 -76 -191q-4 -21 -11 -72q38 45 59.5 72.5t50.5 74.5t42 86z" horiz-adv-x="1094"/>
<glyph unicode="I" glyph-name="I" d="M1014 233q36 0 13 -75l-4 -13q-4 -13 -7 -23t-7 -25.5t-4 -21t3 -9.5q10 -3 35 21q33 28 90 91q16 19 17 22h6q-17 -24 -56 -65q-19 -21 -55 -53q-24 -21 -37 -21q-23 0 -30 17t-1 41t14.5 48t16 41.5t5.5 17.5q-8 3 -27 -1q-23 -5 -48 -14q-25 -7 -135.5 -43t-169.5 -51 q-238 -61 -400 -33q-118 18 -180 58q-30 18 -30 31q0 7 5.5 9.5t10.5 -0.5q10 -6 5 -14q-17 -5 15 -25q70 -41 189.5 -54.5t226.5 4.5q124 19 344 85q64 21 133 42q42 13 62 13zM1048 292q8 -2 8 -12q0 -13 -14 -13h-3q-7 2 -7 9q-2 6 3 11t11 5h2z" horiz-adv-x="1152"/>
<glyph unicode="J" glyph-name="J" d="M231 69q-66 0 -121 19t-86 50q-18 20 -18 33q0 15 12 9t8 -15q0 -1 -1 -2q-19 2 -1 -19q31 -33 93 -49t128.5 -15t135.5 9q60 9 130 25.5t118 30t125.5 36t112.5 32.5q47 13 66 13q20 0 28 -16t9 -51q4 -72 -10.5 -153t-39.5 -135q-16 -30 -32 -45q-28 -29 -58 -27 q-37 0 -50 36t4 77q25 64 100 139q54 54 115 99q52 37 68 55l6 -3q-15 -17 -68 -56q-108 -79 -173 -163q-49 -64 -51 -110q-3 -28 9.5 -41.5t36.5 -6.5q17 5 32 23.5t24 38t19 54t13.5 51t10.5 50.5q11 62 16 119q5 56 -4 58q-16 6 -56 -5q-46 -12 -138.5 -41.5 t-128.5 -39.5q-220 -64 -384 -64zM951 259q-12 0 -12 12q0 13 12 13q3 0 5 -3q8 -5 8 -11q-4 -9 -9 -11h-4z" horiz-adv-x="1067"/>
<glyph unicode="K" glyph-name="K" d="M979 22q-31 3 -46.5 34.5t-17.5 72.5q-1 40 -12 43q0 4 1 4q0 2 4 3q19 -3 39 32q17 34 -1 34q-20 -4 -51 -71q-16 -35 -23 -63q-11 -11 -19 -9q-11 34 -13 97q-125 -77 -329 -141q-126 -39 -252 -42h-10q-63 0 -121 23q-48 21 -69 48q-15 18 -14 28q0 8 6 10.5t12 -2.5 q8 -8 1 -16q-16 -2 2 -22q29 -35 121 -55q33 -6 73 -6q61 0 136 13q241 40 444 168v17q2 83 22 156t58 109q24 24 56 24q16 0 33.5 -7.5t20.5 -20.5q3 -12 -1 -26q-10 -47 -78 -139q-30 -41 -83 -101v-5q-4 -54 3 -91q3 12 12 39q17 48 45 79q30 26 56 5q12 -14 -5 -40 q-18 -24 -54 -28q10 -5 28 -67q1 -4 3.5 -15t5 -20.5t5.5 -20t6.5 -17.5t7.5 -8q3 -1 7.5 1t10 7t10 10.5t10.5 13.5t9.5 13.5t8.5 12.5t6 9q49 74 64 105h6q-40 -77 -95 -148q-24 -30 -39 -30zM1021 448q10 27 0 41.5t-34 9.5q-39 -11 -70 -82q-39 -92 -48 -193 q4 5 20 24.5t22 27t20.5 26t21.5 28.5t19 27.5t19.5 30.5t15.5 29t14 31z" horiz-adv-x="1107"/>
<glyph unicode="L" glyph-name="L" d="M890 23h-4q-50 12 -65 87q-7 34 -9 71q-177 -109 -437 -161q-73 -14 -137 -17h-17q-57 0 -108.5 19t-75.5 48q-15 18 -15 28q-2 11 9 11q11 1 14 -8q1 -5 -2 -10q-16 -2 2 -23q22 -27 78 -42.5t116 -13.5q128 3 251 40q178 54 294 119q20 12 28 17v14q0 104 38 201 q24 62 60 91q23 20 50 20q30 0 45.5 -15.5t7.5 -45.5q-20 -75 -110 -184q-31 -39 -48 -57q-1 -6 -1 -18q-12 -149 36 -165q9 -3 30 18q50 50 93 117q21 29 26 39q4 0 7 -1q-1 -1 -4 -5.5t-9.5 -15t-12.5 -19.5q-58 -83 -98 -120q-21 -19 -32 -19zM855 220q41 41 82 101.5 t65 115.5q20 48 -4 62q-30 17 -56.5 -10t-44 -82t-27 -100.5t-15.5 -86.5z" horiz-adv-x="1040"/>
<glyph unicode="M" glyph-name="M" d="M969 141q2 5 6 22t6 36t-6 21t-28 -4q-14 -3 -51 -16q-24 -8 -107 -37.5t-127 -44.5t-114.5 -35t-129.5 -32q-77 -15 -147 -15h-5q-73 1 -141 23t-107 55q-27 21 -27 34q0 15 16 9q10 -4 4 -12q-18 -5 11 -29q59 -49 171.5 -63t215.5 7q61 10 133.5 29.5t115.5 33t129 43 t109 37.5q45 15 52 17q47 13 57 -16q7 -18 3 -42q-5 -27 -5 -31q4 14 19 59q18 52 38 50q26 0 37 -42q10 -42 6 -58q37 119 60 148q11 16 23 16q17 0 26 -17.5t8.5 -50.5t-3 -57.5t-8.5 -61.5t-6 -40q-4 -33 5.5 -35.5t29.5 17.5q60 48 111 108q29 32 31 35q3 0 6 -1 q0 -1 -23 -25q-51 -63 -112 -114q-34 -29 -49 -25q-12 4 -21 18q-13 26 -13 75q3 58 14 127q3 24 0 33t-10.5 3t-15.5 -23q-26 -56 -55 -145q-9 -2 -21.5 6t-12.5 16q0 83 -13 86q-13 0 -29.5 -44.5t-22.5 -73.5q-11 2 -20 8q-10 7 -13 18z" horiz-adv-x="1381"/>
<glyph unicode="N" glyph-name="N" d="M1239 290q61 0 21 -204q-8 -47 1 -49q7 1 25 18q39 36 92 110l26 35h6q-54 -81 -115 -142q-26 -28 -38 -26h-4q-36 12 -27 116q7 72 10 92q7 46 -4 44q-8 -2 -19 -28q-9 -22 -26 -73t-22 -65q-9 -5 -21 4q-14 8 -19 16q7 8 9 45q2 31 -4 37.5t-31 0.5q-38 -8 -211 -64 q-196 -63 -384 -97q-96 -19 -176 -20q-81 -3 -162 19q-61 18 -91 44q-23 19 -23 32t12 9q11 -5 9 -15q-25 -2 7 -24q38 -27 108.5 -43.5t140.5 -14.5q88 2 173 17q54 9 110 21.5t119 30.5t103 30t112.5 34.5t97.5 30.5q34 11 57 15q25 5 36.5 0.5t19.5 -21.5q10 -19 10 -43 q-1 -16 -1 -31q3 9 12 39q16 65 40 103q11 16 21 17z" horiz-adv-x="1406"/>
<glyph unicode="O" glyph-name="O" d="M1148 200q-9 -14 -46 -20.5t-73 -4.5q-7 -60 -41 -100q-17 -20 -37 -20q-27 0 -55 25q-24 21 -24 47q0 25 25 44q-27 -8 -124.5 -36.5t-146.5 -42t-130 -33t-147 -30.5q-70 -12 -138 -14h-9q-33 0 -63 6q-33 8 -59 18q-46 21 -68 50q-23 28 -10 37q8 6 15.5 -1.5 t0.5 -15.5q-14 -1 3 -23q25 -29 81.5 -46.5t116.5 -17.5q111 2 277 44q123 28 391 107q6 1 12 2.5l12 3t8 2.5l12 2q11 0 17 -19q-18 -4 -28 -40.5t5 -53.5q2 -2 13 -9q30 -11 53.5 29.5t32.5 84.5q-98 8 -126 55q-5 7 -5 18q-3 24 18.5 37.5t51.5 13.5q38 0 54.5 -27 t14.5 -71q0 -5 -1 -10.5t-1 -10.5q32 -3 68 2.5t44 19.5zM1025 181q9 89 -38 107q-32 10 -50.5 -17t1.5 -53q23 -30 87 -37z" horiz-adv-x="1142"/>
<glyph unicode="P" glyph-name="P" d="M1097 168q7 3 29.5 11t41.5 15t20 8h2l4 -2q-4 -4 -25 -11q-10 -4 -22 -8t-27 -8.5t-23 -7.5q-3 -30 -26 -56.5t-50 -26.5q-21 0 -26 10t11 29q18 21 50 33q6 16 6 34q2 17 -13 17q-30 1 -101 -104q0 -111 -27 -213q-19 -67 -44 -96q-22 -27 -46 -27q-21 0 -28 11.5 t0 40.5q13 50 33 94q37 77 62 121q4 6 5 9q13 80 14 138q1 50 -7 61t-42 3q-25 -5 -47 -14q-17 -6 -118 -46t-156 -57q-168 -52 -288 -52q-64 0 -121 20.5t-91 51.5q-24 22 -24 33q0 7 6 9.5t11 -1.5q10 -7 4 -14q-20 -2 5 -25q29 -28 87 -47.5t115 -19.5q82 0 170 17.5 t136 33.5t147.5 55t124.5 48q42 15 67 15h11q22 -3 31.5 -45t9.5 -93q29 38 34 45q44 54 69 53q46 -2 46 -42zM900 22q-67 -124 -88 -198q-5 -18 -7 -33q0 -14 7 -17q14 -6 29 23.5t27 76.5t20.5 85.5t11.5 62.5zM1012 120q-18 -20 -10 -28q8 -7 25 12q1 1 2 3q14 18 25 42 q-27 -13 -42 -29z" horiz-adv-x="1187"/>
<glyph unicode="Q" glyph-name="Q" d="M1007 186q-14 -12 -26 -119q1 -1 7 -5q45 18 92 59q26 23 27 29q3 -2 3 0l3 -2q-2 -6 -28 -29q-44 -37 -94 -61q37 -37 62 -102.5t26 -129.5q1 -35 -12 -50.5t-42 -15.5q-87 0 -82 181q2 60 7 105q-18 0 -27 7t-3 18q9 18 32 12q1 -1 3 -1q1 1 1 3q13 74 14 90 q-8 -10 -26 -39q-16 -25 -30.5 -29t-33.5 11q-21 18 -21 48q0 52 39 80q-54 -18 -162.5 -58.5t-200.5 -71t-177 -49.5q-75 -17 -136 -18h-9q-60 0 -113.5 21t-77.5 53q-13 17 -13 28q0 8 5.5 11t12.5 -3q7 -7 1 -14q-16 -2 3 -24q24 -29 81 -47t117 -16q105 2 275 54 q85 26 176 59q23 9 61.5 24t59.5 23t52.5 18.5t61.5 18.5l14 4q10 2 14 2q19 0 34.5 -7.5t19.5 -19.5q7 -15 7 -21q-1 -4 -5 -3q-3 0 -5 3q1 4 -3 21q-4 18 -26 21q-29 5 -50 -39t-19 -83q2 -22 11 -23q11 -3 34 28.5t32 50.5q18 21 34 -3zM978 -12q-4 -136 26 -197 q15 -31 42 -25q46 11 17 133q-25 106 -75 158l-8 -4q-2 -20 -2 -65zM933 73q-1 -5 3.5 -9t14.5 -7l1 -1q2 14 3 22q-21 7 -22 -5zM980 59l3 1h1q-1 1 -2 1.5t-2 1.5v-4z" horiz-adv-x="1109"/>
<glyph unicode="R" glyph-name="R" d="M108 103q0 12 13 8q13 -5 8 -17q-18 2 5 -20q19 -18 65.5 -33t94.5 -21q175 -27 436 48q126 37 214 99q17 12 27 22q-55 36 -44 83q4 21 16.5 30.5t38.5 13.5q23 0 35.5 -16.5t3.5 -39.5q-10 -30 -29 -53l-12 -14q21 -15 37 -24q5 -6 -7 -36q-1 -3 -6 -14 q-55 -118 -28 -117q13 2 36 20q61 50 130 132q34 38 39 47h6q-32 -45 -82.5 -98.5t-92.5 -85.5q-25 -19 -39 -19q-17 0 -27.5 12.5t-11.5 29.5q0 12 4 27t13.5 32.5t15 27.5t18 28.5t12.5 19.5l-1 1q-1 0 -3 1t-4.5 2.5t-6 4t-7.5 4.5q-139 -130 -463 -172 q-105 -17 -216.5 -4t-163.5 57q-24 20 -24 34zM1016 259q6 20 2 30.5t-18 9.5q-30 0 -40 -45q-8 -38 17 -58q29 30 39 63z" horiz-adv-x="1181"/>
<glyph unicode="S" glyph-name="S" d="M1031 200q-4 -8 -21 -19.5t-44 -26.5t-33 -19l3 -6q23 -52 -5 -106.5t-78 -54.5h-1q-41 0 -44 37v1q0 33 31 64q10 10 31.5 26.5t25.5 20.5q-4 43 -20 77q-11 -10 -27.5 -20t-26 -15.5t-35 -19t-31.5 -16.5q-86 -42 -214 -87q-126 -43 -250 -50h-21q-30 0 -51 4 q-95 20 -131 63q-15 18 -15 28q0 7 6.5 10t12.5 -2q8 -8 2 -16q-16 -2 2 -22q23 -27 79.5 -42.5t115.5 -13.5q124 4 250 46q122 41 212 87q70 34 120 70v1q-25 59 4 83q11 11 21 11q17 0 22 -11.5t1 -25t-12 -24.5q-3 -4 -14 -19q4 -9 16 -33t19 -40q8 5 32 18.5t40 24 t21 17.5h7zM896 111q-18 -9 -52 -43q-4 -4 -11 -14t-14 -23.5t-7.5 -23.5t9.5 -14q20 -5 39.5 18.5t28.5 48.5q5 14 7 41v10zM893 218q19 21 25 40q4 14 1.5 20t-11.5 5q-13 -2 -18.5 -21.5t2.5 -37.5q1 -2 1 -6z" horiz-adv-x="1024"/>
<glyph unicode="T" glyph-name="T" d="M201 427q8 0 8 -8q0 -7 -9 -24q-15 -28 -60 -35q-37 -7 -73 -1q-39 -194 -35 -296q1 -40 13 -75q78 -14 83 -50v-2q0 -15 -19 -13h-10q-55 8 -83 58q-38 -6 -115.5 -22.5t-145 -26.5t-130.5 -10h-20q-115 3 -211 68q-43 30 -63 63q-10 16 -10 25q0 11 11 11 q8 0 10.5 -8.5t-4.5 -13.5q-15 3 3 -21q24 -33 78 -63t109 -44q62 -16 170 -7q58 6 170.5 27.5t145.5 26.5q-18 30 -22 92v24q0 109 47 264l-6 3q-50 18 -86 14q-22 -1 -30 -9q-9 -8 -1 -10q3 -3 0 -6.5t-8 -3.5q-6 0 -5 6q0 22 49 27q34 4 90 -12q10 20 16 21q10 0 16 -12 q-3 -9 -5 -16q41 -8 72 -4q38 6 53 30q12 20 7 20q-1 0 -3 -1q-4 1 -2.5 7.5t5.5 6.5zM48 -21q20 -46 56 -51q21 -3 18 11q-2 14 -23 28q-21 12 -53 15l1 -1q1 -1 1 -2z" horiz-adv-x="131"/>
<glyph unicode="U" glyph-name="U" d="M964 73q-17 0 -27.5 7t-14 23t-4.5 28t3.5 36l6 32t7.5 29l1.5 4.5t0.5 3.5q6 24 -1 29t-30 0q-28 -6 -51 -14q-47 -15 -140 -49.5t-174 -60.5t-152 -42q-76 -16 -146 -18q-68 0 -131 21.5t-98 54.5q-23 21 -23 35q0 12 9 12q10 -1 11 -10l-2 -7q-19 -1 8 -27 q33 -30 94.5 -51t124.5 -21q69 1 149.5 17.5t126.5 31t129 43.5q16 6 103.5 37t124.5 43q34 11 59 11q43 0 35 -76l-4 -35q0 -2 -1 -7q-13 -74 8 -75q18 2 52 77q19 41 25 67q6 8 18.5 -0.5t17.5 -15.5v-26q5 -118 19 -120q10 -1 32 22q40 45 73 96q14 21 15 22q1 -1 6 -1 q-37 -52 -48 -66q-19 -28 -46 -56q-22 -23 -35 -23h-2q-27 6 -38.5 43.5t-11.5 82.5q-1 16 -1 25q-4 -8 -12.5 -29.5t-12.5 -30.5q-32 -72 -53 -72z" horiz-adv-x="1217"/>
<glyph unicode="V" glyph-name="V" d="M1173 195q31 -9 72 -10t62 15h6q-18 -19 -68 -18q-40 0 -72 7q-11 -66 -42 -115q-19 -33 -33 -30q-34 4 -34 65q0 28 4 48q3 24 -1 25q-10 4 -70 -12q-365 -104 -539 -130q-95 -14 -174 -14h-1q-72 0 -138 23.5t-100 59.5q-22 24 -22 37q4 20 18 6q7 -8 2 -13 q-23 0 3 -26q45 -45 150 -69q37 -9 80 -9q184 -2 465 69q47 12 141 38t113 31q61 18 76 15q39 -9 39 -77q0 -4 -1.5 -19.5t-2.5 -28.5l-2 -13q2 -1 7.5 5.5t13.5 20.5q32 56 43 114q-94 27 -102 71q-2 19 8 29.5t29 10.5h3q38 -1 56.5 -29.5t11.5 -73.5q0 -2 -1 -3z M1170 236q-4 25 -20.5 42t-40.5 10q-17 -9 -16.5 -24t11.5 -30q17 -20 65 -38q3 19 1 40z" horiz-adv-x="1307"/>
<glyph unicode="W" glyph-name="W" d="M1190 189q96 -18 129 7q4 0 7 -1q-17 -16 -69 -16q-33 -1 -67 5q-3 -53 -19 -89q-8 -20 -18 -23.5t-26 7.5q-39 24 -45 89q-18 -53 -55 -111q-13 -21 -23 -21h-3q-11 3 -17 14.5t-6 28.5t1.5 32.5t4 35t3.5 27.5q2 22 -9.5 26.5t-34.5 -0.5q-62 -8 -193 -46 q-177 -49 -331 -72q-83 -12 -154 -11q-169 0 -244 64q-19 17 -19 30q0 7 5 10.5t12 -1.5q7 -7 2 -13q-21 -6 6 -26q42 -30 117.5 -43t152 -10.5t152.5 14.5q106 17 366 81q53 13 105 24q58 10 81.5 -6t19.5 -71l-12 -80q4 -2 12.5 10t18 31t18 38.5t15.5 35.5t9 19q5 4 20 4 q14 0 22 -3q-1 -11 10.5 -57t19.5 -45q10 0 21 41.5t11 66.5q-97 25 -103 66q-3 29 39 29q25 0 45 -16.5t22 -41.5q2 -21 1 -33zM1186 190q3 47 -22 72q-18 16 -37 8t-15 -33q3 -25 74 -47z" horiz-adv-x="1317"/>
<glyph unicode="X" glyph-name="X" d="M1155 272q11 0 11 -7q0 -4 -4 -5q-7 -5 -11 1q1 4 -4 3q-2 -1 -6 -2q-12 -4 -22 -16q-27 -30 -45 -74q12 -20 27 -49q14 -31 22.5 -34t34.5 17q33 24 84 78q16 16 17 19h6q0 -1 -3 -4t-9 -10t-12 -13q-53 -55 -90 -79q-47 -33 -97 27q-39 -71 -76 -84q-9 -3 -15 -3 q-12 0 -12 8q5 16 16 8q-2 -4 4 -5h8q15 0 31 21q20 24 39 61q-25 35 -36 71q-11 35 -16 36q-16 5 -66 -12l-27 -9q-258 -92 -398 -119q-20 -4 -39 -7q-68 -12 -128 -11h-24q-179 7 -274 67q-29 17 -29 31q0 12 12 9q11 -4 9 -14q-19 -6 15 -26q69 -41 188.5 -53.5 t226.5 4.5q78 13 171.5 37.5t148 42.5t154.5 52q47 15 64 15h5q15 -3 25.5 -12t24 -30.5t15.5 -23.5q22 45 44 69q21 25 40 25z" horiz-adv-x="1259"/>
<glyph unicode="Y" glyph-name="Y" d="M1159 135q85 46 105 66q3 0 6 -1q-16 -19 -80 -54l-30 -18q3 -47 2 -109t-12 -100q-22 -62 -61 -86q-26 -16 -47 -16q-19 0 -35 10q-25 13 -29 46t6.5 64t25.5 55q40 65 124 125q0 24 -8 128l-2 -5q-3 -5 -5 -10q-17 -46 -40 -77q-13 -20 -24 -20q-28 2 -32 23 q-6 21 3 50q9 27 -3 30q-16 4 -59 -9q-25 -7 -266 -91q-161 -53 -287 -70q-40 -6 -98 -6q-79 0 -150.5 27t-110.5 68q-25 28 -25 39q0 15 13 9q11 -7 8 -15q-20 -1 8 -31q23 -24 69.5 -45.5t95.5 -34.5q39 -10 88 -10q135 -1 311 51q61 17 176.5 57t141.5 48q2 1 21.5 7.5 t28.5 8.5t24.5 3.5t24.5 -4t14 -16.5q11 -23 6 -53q-4 -43 13 -24q10 12 23 38q20 41 32 74q7 11 21 12h3q11 0 16 -8q-6 -13 -8 -40q0 -13 1 -42.5t1 -43.5zM1134 111q-75 -53 -118 -117q-25 -35 -32 -78q-10 -49 11 -67q19 -21 58 1q87 52 81 261z" horiz-adv-x="1265"/>
<glyph unicode="Z" glyph-name="Z" d="M904 231q-53 -13 -76 -7h-2q-13 -13 -45 -31q-99 -57 -300 -114q-143 -39 -264 -39q-59 0 -110.5 19.5t-75.5 50.5q-13 17 -13 28q0 7 5 9.5t10 -2.5q6 -7 0 -12q-16 0 1 -22q24 -28 79.5 -45t114.5 -17q115 1 243.5 33t228.5 75q47 20 81 41q27 14 41 28q-13 8 -15 18 q-4 12 2.5 18.5t18.5 6.5q8 0 11.5 -6.5t1.5 -16.5q-1 -4 -11 -17h1q28 -4 96 14q7 -17 5 -23t-14 -24q-62 -84 -106 -128q20 -2 44 -16t45 -16q11 -1 21 7t0 10q-1 8 7 8q9 -1 10 -8q0 -8 -14 -14.5t-24 -6.5h-2q-34 1 -56 20q-19 18 -49 10q-12 6 -12 28q0 5 2 9 q10 13 58.5 62.5t61.5 69.5zM825 229q14 20 14 30q-1 6 -11 1q-8 -6 -10 -19q0 -9 7 -12z" horiz-adv-x="1027"/>
<glyph unicode="\" glyph-name="backslash" d="M250 10q0 3 -28 65q-8 17 -30 66.5t-36 80.5q-9 18 -17 36l-16 36q-31 73 -81 184q-18 40 -25 60q9 12 13 12q23 -54 35 -80q27 -62 88.5 -200.5t88.5 -199.5q20 -43 21 -44q-1 -3 -2 -5.5t-2 -5.5q-3 -5 -9 -5z" horiz-adv-x="306"/>
<glyph unicode="^" glyph-name="asciicircum" d="M238 359q-16 -16 -33 -16q-2 0 -3 1q-6 13 -30 66.5t-42 94.5q-45 -85 -85 -160q-7 0 -7 8q74 135 100 183q43 -79 100 -177z" horiz-adv-x="276"/>
<glyph unicode="_" glyph-name="underscore" d="M218 17q0 -5 -5 -13h-151q-31 0 -32 -1q-1 2 -1 5q0 8 9 13h179q1 -1 1 -4z" horiz-adv-x="258"/>
<glyph unicode="`" glyph-name="grave" d="M23 512q2 5 8 14.5t11 9.5q4 0 18.5 -30t15.5 -36l-2 -2q-2 0 -3 -1q-5 7 -23 20q-21 15 -25 25z" horiz-adv-x="132"/>
<glyph unicode="a" glyph-name="a" d="M552 231q11 0 20 -6t12 -9.5t10 -14.5q0 -2 -1 -3.5t-3 -0.5q-4 0 -6 2t-4.5 8t-4.5 9q-7 12 -22 12q-34 3 -52 -44t-16 -95q3 -43 27 -14q11 13 21 37q21 56 24 62q11 9 23 3t18 -15q0 -7 -9 -64q-2 -18 -4 -50q0 -18 5 -22.5t11.5 0.5t17.5 17q55 65 111 158q2 0 5 -1 q-4 -7 -16 -27q-43 -67 -90 -125q-27 -31 -40 -30h-1q-13 0 -21 9.5t-10.5 28.5t-3 33.5t0.5 38.5t1 29q-3 -6 -8.5 -22t-9.5 -23q-8 -20 -21 -37q-16 -21 -36 -13.5t-28 31.5q-5 17 -5 32q0 16 9 45q-82 -90 -175 -121q-30 -10 -67 -10h-1q-75 0 -125.5 30.5t-67.5 86.5 q-8 26 -8 49v6q2 56 37.5 93.5t91.5 37.5h2q46 0 77.5 -18t39.5 -52q13 -44 -15 -77t-74 -32q-26 2 -44 17.5t-17 38.5q0 18 10 21q6 2 9.5 -2t2.5 -10t-5 -7q-13 7 -13 -10q1 -17 17 -30t37 -13q27 -2 45 22q21 25 22.5 61.5t-21.5 61.5q-26 27 -74 26q-66 -2 -101.5 -58 t-13.5 -124q17 -52 66.5 -81t120.5 -29q65 0 128 35q68 37 121 100q4 4 10.5 13t11.5 14q24 22 62 22h7z" horiz-adv-x="731"/>
<glyph unicode="b" glyph-name="b" d="M754 199q-11 -5 -26 -14.5t-33.5 -21.5t-26.5 -17q3 -38 -11.5 -65t-43.5 -32q-20 -4 -28 5.5t5 30.5q16 26 41 45q12 50 -6 55q-12 2 -23.5 -15t-20.5 -44.5t-14 -48t-8 -38.5q-8 -8 -14 -8h-2q-14 32 -21 79q-5 26 -9 78q-42 -45 -114 -83q-50 -28 -117 -33h-20 q-77 0 -129 37t-56 100v9q0 53 33.5 87t86.5 37h14q50 0 82 -24.5t29 -69.5q-2 -33 -26 -56t-59 -24q-27 0 -44.5 14t-18.5 38q0 16 9 21q9 3 12 -6.5t-5 -12.5q-6 3 -9 0.5t-2 -10.5q2 -16 17.5 -28t36.5 -12q30 1 47 29t14.5 62.5t-23.5 53.5q-20 20 -59.5 21t-66.5 -15 q-66 -38 -62 -113q3 -42 31.5 -73.5t71.5 -45.5q34 -11 79.5 -10.5t81.5 11.5q84 27 140 79q5 5 26 23q-1 9 -1 28v65q6 158 54 218q24 28 56 28q94 0 14 -165q-30 -60 -62 -107q-19 -27 -28 -40q-4 -105 13 -164q21 95 46 122q9 9 22 11q33 0 40 -37q12 6 34 19.5t26 15.5 q16 9 18 13q3 1 6 0q3 0 3 -2zM546 229q10 14 21 31t32.5 52.5t36.5 67t26.5 64t7.5 54.5t-25 27q-25 6 -46 -32q-21 -37 -32 -89q-18 -89 -21 -175zM595 84q-15 -24 -3 -28q8 -2 17 12q15 27 21 54q-20 -15 -35 -38z" horiz-adv-x="748"/>
<glyph unicode="c" glyph-name="c" d="M194 182q-27 0 -44 15t-17 40q2 18 10 21q6 2 9.5 -2.5t2.5 -10.5t-6 -7q-6 4 -9 1.5t-2 -10.5q1 -17 16 -30t36 -13q31 0 50 27t18 62t-22 56q-25 26 -73 25q-58 -2 -90 -40q-32 -39 -33 -87q0 -102 99 -147q39 -18 96 -18q37 0 68 10q105 35 178 122q20 34 54 37h4 q18 0 29 -8t5 -24q-4 -10 -7.5 -14t-7.5 -3q-5 0 1 6q4 -1 7.5 6.5t3 17t-7.5 11.5q-12 4 -23 -9t-16.5 -27t-9.5 -30q-11 -36 -9 -72q0 -22 7 -32.5t19.5 -9t25.5 7t28 17.5t23 19l16 14q32 29 61 63q26 32 27 35h3q2 0 3 -1q-7 -7 -25 -31q-26 -32 -56 -61 q-30 -33 -73 -56q-26 -10 -37 -10q-29 0 -45.5 24.5t-16.5 57.5q0 29 12 61q-83 -91 -172 -119q-27 -9 -68 -9h-1q-87 0 -144 44t-57 120q0 59 35.5 98.5t94.5 39.5h1q55 0 90 -25.5t31 -71.5q-3 -35 -28.5 -58.5t-63.5 -21.5z" horiz-adv-x="712"/>
<glyph unicode="d" glyph-name="d" d="M165 146q31 1 48.5 30t14.5 64t-25 56q-22 20 -62.5 21t-68.5 -16q-66 -37 -62 -117q3 -44 32 -75.5t74 -46.5q87 -32 183.5 6t151.5 98q2 3 6 7q7 20 24 33t41 10q13 -2 22 -11q-3 31 -3 64q-2 173 48 244q21 32 54 32q57 0 48 -78q-15 -117 -108 -292q12 -143 36 -149 q11 -3 35 28q54 63 96 146h8q-41 -82 -100 -151q-24 -28 -39 -28q-39 0 -63 109q-40 -55 -57 -53q-22 2 -34.5 19.5t-12.5 42.5q0 8 1 13l2 14q-3 -5 -31 -31q-110 -93 -229 -93q-79 0 -133 38t-58 104v8q-1 54 34 89.5t90 38.5h15q50 0 82.5 -24t31.5 -67 q-1 -37 -25.5 -61.5t-62.5 -25.5q-27 -1 -45 13.5t-20 38.5q0 19 8 22q7 2 10.5 -2t3 -10t-5.5 -8q-6 3 -9 0.5t-2 -9.5q1 -17 17.5 -29t38.5 -12zM583 186q49 88 83 194q20 58 21 99q2 48 -24 57q-25 9 -42 -30q-44 -94 -38 -320zM554 137q-1 4 -2 16.5t-2.5 20.5 t-4.5 17.5t-8 14.5t-13 5q-13 1 -22.5 -20t-12.5 -46.5t-1 -43.5q11 -52 66 35v1z" horiz-adv-x="752"/>
<glyph unicode="e" glyph-name="e" d="M184 207q31 0 50 27t17.5 62t-22.5 57q-25 26 -74 25q-66 -2 -101 -58t-13 -124q17 -52 66.5 -81t120.5 -29q64 0 127 35q61 33 113 90q23 38 60 38h1q20 0 33 -10t-5 -27q-19 -14 -46 -14q-2 -5 -4 -9l-4 -8q-13 -34 -13 -65q-1 -28 19.5 -36.5t45.5 3.5q52 25 111 92 q4 4 7.5 8t5.5 6.5t4.5 5l3.5 3.5t1 2q1 1 3 1l2 -2l-3 -3q-2 -3 -7.5 -9.5t-11.5 -13.5q-64 -72 -116 -95q-16 -6 -23 -7h-9q-31 0 -51 24t-20 56q0 21 10 47q-4 -4 -8.5 -8t-10.5 -10q-60 -63 -146 -92q-30 -10 -68 -10q-112 0 -166 66q-36 43 -36 98q0 60 35 99.5 t94 39.5h2q46 0 77.5 -17.5t39.5 -51.5q13 -44 -14.5 -77.5t-73.5 -32.5q-26 2 -44 17.5t-17 38.5q0 18 10 21q6 2 9.5 -2t2.5 -10t-5 -7q-13 6 -13 -10q1 -17 17 -30t37 -13zM553 216q20 17 2 23q-16 5 -41 -35q22 -1 39 12z" horiz-adv-x="688"/>
<glyph unicode="f" glyph-name="f" d="M188 191q-27 -1 -44.5 13.5t-19.5 37.5q0 19 9 22q6 2 10 -2t3.5 -10t-5.5 -8q-6 3 -9.5 0t-2.5 -10q4 -26 33.5 -35.5t52.5 8.5q27 22 29 65t-24 69q-21 19 -59.5 20t-65.5 -15q-52 -28 -59.5 -90.5t37.5 -106.5q34 -33 98 -42.5t126 8.5q75 24 133 72q10 84 32.5 163 t54.5 121q32 39 65 39q25 0 39.5 -13.5t11.5 -38.5q-3 -26 -25 -66q-32 -62 -128 -168q-8 -57 -13 -137q0 -1 4 -5.5t6 -7.5q67 22 146 91q32 29 37 37h9q-5 -7 -40 -38q-73 -67 -146 -94q-1 0 -1 -1l-2 -1q53 -87 49 -179q-1 -48 -29 -52h-4q-28 0 -45 39q-28 62 -28 185v1 q-30 8 -30 29v3q1 19 31 16l2 34l3 36q-106 -85 -217 -85q-65 0 -110 24.5t-65 69.5q-10 23 -10 50v2q0 51 34 85t86 38h14q48 2 80 -22.5t31 -66.5q-1 -35 -24 -59.5t-60 -24.5zM481 233q92 92 138 196q24 53 -7 67q-29 15 -57 -22q-45 -62 -72 -233zM466 46 q-2 -22 -0.5 -57t4 -67.5t11.5 -54.5t23 -20q35 6 13 107q-12 60 -42 112q-2 0 -5 -1t-4 -1v-18zM423 104q-15 -2 -14 -15t14 -18v33zM467 79q0 -6 -1 -9l6 2z" horiz-adv-x="662"/>
<glyph unicode="g" glyph-name="g" d="M606 280q27 -2 35 -25q0 -2 -1 -3.5t-3 -0.5q-3 0 -4.5 2t-4.5 7t-4 7q-12 12 -26.5 8t-23.5 -15q-32 -44 -26 -106q2 -37 24 -12q11 14 20 34q19 38 23 54q8 10 19 7.5t17 -11.5q-12 -39 -12 -114q69 44 112 75q15 10 17 15q1 -1 3 -1q2 -1 3 -1q-4 -9 -51 -39 q-30 -20 -85 -55q-2 -51 -3 -92q-7 -159 -73 -206q-24 -18 -48 -18q-31 0 -48.5 19.5t-17.5 51.5q0 82 76 160q39 40 85 73q1 9 1 17.5t1 17.5q2 51 3 80q-1 -1 -3.5 -6.5t-7 -15t-9.5 -20.5q-21 -41 -41 -40q-32 1 -41.5 33t5.5 61q-72 -81 -166 -112q-30 -10 -68 -10h-1 q-75 0 -125 30.5t-68 86.5q-8 26 -8 49v6q2 56 37.5 93t91.5 38h1q54 0 89.5 -25.5t31.5 -71.5q-3 -34 -24 -56q-28 -26 -68 -25q-26 0 -43.5 16t-16.5 39q0 19 9 22t12 -7.5t-5 -13.5q-12 8 -12 -9q1 -17 16.5 -30t36.5 -13q30 0 49 27t18 62t-21 57q-25 25 -74 24 q-66 -2 -101 -57.5t-13 -122.5q17 -53 66 -82.5t120 -29.5q60 0 128 36q56 30 118 96q31 42 79 42zM609 86q-84 -61 -128 -130q-20 -34 -25 -70q-7 -45 10.5 -66t57.5 3q72 48 85 263z" horiz-adv-x="769"/>
<glyph unicode="h" glyph-name="h" d="M583 6q-30 8 -30 66q0 33 7 94q3 25 -5 25q-11 0 -22 -20q-36 -52 -48 -98q-13 -18 -21 -15q-20 46 -23 124q-112 -112 -246 -112q-132 0 -174 95q-10 23 -10 50v2q0 51 34 85t86 38q9 0 14 1q50 0 82 -24.5t29 -69.5q-2 -33 -26 -56t-59 -24q-26 -2 -44.5 13t-18.5 38 q-1 18 8 21q6 2 10 -2t3.5 -9.5t-5.5 -7.5q-6 3 -9 0.5t-2 -9.5q1 -27 32 -36.5t53 8.5q14 12 22 27q12 28 7.5 58t-23.5 48q-27 25 -74 21q-63 -5 -96 -56.5t-7 -113.5q20 -46 69.5 -69.5t118.5 -18.5q124 8 225 109v37q0 142 40 228q32 72 87 72q30 0 46.5 -15t9.5 -45 q-18 -80 -107 -197q-29 -38 -39 -49q-1 -13 -1 -39q-2 -63 7 -102q4 28 23 61.5t38 51.5q13 11 23 11q33 -2 31 -67q0 -31 -10 -98q-2 -15 -1 -21.5t6 -4t10.5 7.5t12.5 14q45 60 83 126q19 32 24 40q3 0 6 -1q-7 -10 -25 -42t-28 -46q-22 -35 -52 -74q-24 -30 -38 -30h-3z M618 466q7 25 -4 38.5t-29 10.5t-31 -19q-60 -73 -76 -269q68 88 106 156q24 46 34 83z" horiz-adv-x="724"/>
<glyph unicode="i" glyph-name="i" d="M158 355q54 -2 88.5 -25.5t33.5 -68.5q-1 -37 -26 -60.5t-63 -25.5q-27 -2 -46 13.5t-19 39.5q-1 19 9 22q9 4 12.5 -6.5t-4.5 -14.5q-13 7 -12 -9q2 -17 18.5 -29t38.5 -12q31 2 48.5 30.5t14.5 64t-25 56.5q-22 20 -62.5 21t-69.5 -16q-67 -40 -63 -122q3 -57 48 -94 t105.5 -42.5t125.5 12.5q91 31 157 93q9 8 18 16.5t13.5 13l6.5 6.5q5 9 16 9h1q12 0 17 -4q0 -6 -6 -27q0 -1 -4.5 -18t-8 -33t-6.5 -35t-2 -31t7 -13q7 -1 27 14q37 30 91 90q23 28 24 30h6q-33 -50 -110 -118q-25 -21 -38 -21q-17 0 -25.5 16.5t-8.5 38.5q0 16 2.5 31.5 t7 33.5l6.5 26q-104 -95 -193 -126q-39 -14 -70 -15h-20q-141 0 -183 104q-11 28 -11 53v3q0 46 32 87q35 42 102 42zM541 264q14 0 14 22q0 6 -5 8h-1q-6 0 -12 -7.5t-8 -15.5q0 -7 12 -7z" horiz-adv-x="663"/>
<glyph unicode="j" glyph-name="j" d="M525 117q12 10 59 46t52 42q1 -1 3 -1q2 -1 3 -1q-5 -6 -27 -24t-51 -39.5t-39 -30.5q-3 -105 -16.5 -175.5t-52.5 -107.5q-25 -27 -58 -27q-23 0 -39.5 19.5t-16.5 45.5q0 20 11 48q31 79 140 178q8 81 4 127q-97 -97 -197 -131q-39 -14 -71 -15h-20q-99 0 -150 56 q-40 40 -43 102v1q0 54 35.5 91.5t90.5 38.5h7q53 0 88 -24.5t34 -69.5q-1 -37 -25.5 -60.5t-62.5 -25.5q-28 0 -46.5 14.5t-19.5 38.5q0 19 9 22q6 2 10 -2t3.5 -10t-4.5 -8q-13 6 -12 -9q1 -17 18 -29.5t38 -11.5q33 1 50 30t13.5 65t-25.5 56q-13 12 -31 17q-15 6 -45 3 q-55 -4 -88.5 -43t-30.5 -95q3 -46 32.5 -78.5t75.5 -48.5q39 -15 85 -11.5t83.5 14.5t67.5 28q55 31 92 65q24 23 40 39v-1q4 9 17 9q2 1 6 -1q4 -14 4 -116zM492 80q-99 -87 -132 -165q-18 -45 -7 -72q11 -29 43 -18q72 22 96 255zM488 277q0 -12 12 -12q4 0 8 3.5t4 7.5 q2 2 -1 4q-4 10 -12 10h-3q-8 -4 -8 -13z" horiz-adv-x="635"/>
<glyph unicode="k" glyph-name="k" d="M145 345q50 0 82 -24.5t29 -69.5q-2 -33 -26 -56t-59 -24q-26 -2 -44.5 13t-18.5 38q-1 18 8 21q6 2 10 -2t3.5 -9.5t-5.5 -7.5q-6 3 -9 0.5t-2 -9.5q1 -27 32 -36.5t53 8.5q14 12 22 27q12 29 7.5 58.5t-23.5 47.5q-27 25 -74 21q-63 -5 -96 -56.5t-7 -113.5 q20 -46 69.5 -69.5t118.5 -18.5q123 5 229 111q1 1 1 2v36q0 69 14 137q9 37 21 69q33 77 86 77q19 0 41 -11q25 -12 13 -52q-27 -87 -146 -236v-4q-2 -58 5 -90q21 81 57 117q11 11 27.5 13t28.5 -8q12 -15 -5 -40q-18 -24 -55 -28q4 -2 7.5 -7t7 -14t5.5 -15t5 -17.5 t4 -13.5q5 -19 15 -53q7 -26 14 -28t24 18q32 38 79 117q21 36 22 38q1 -1 7 -1q-8 -11 -25.5 -41.5t-23.5 -40.5q-24 -34 -48 -66q-24 -30 -37 -30h-2q-32 3 -47 34.5t-17 73.5q-2 39 -11 42q0 4 1 4q0 2 4 3q21 -3 39 32q18 34 2 34q-10 0 -20 -12q-3 -3 -18 -25 q-21 -42 -25 -51q-11 -30 -15 -46q-3 -5 -9 -7q-5 -4 -10 -2q-11 35 -15 88q-39 -43 -112 -83q-59 -33 -138 -33q-77 0 -128.5 37t-55.5 101v8q0 56 37.5 90.5t96.5 34.5zM606 499q-28 13 -53 -13q-62 -65 -79 -263q89 110 135 214q21 52 -3 62z" horiz-adv-x="716"/>
<glyph unicode="l" glyph-name="l" d="M163 135q-26 -1 -43.5 13.5t-19.5 37.5q0 18 8 21q6 2 10 -2t3.5 -9.5t-5.5 -7.5q-6 3 -9.5 0t-2.5 -10q4 -26 33.5 -36t52.5 8q26 23 29 65.5t-24 68.5q-24 24 -73 21q-63 -5 -95.5 -56.5t-6.5 -113.5q20 -46 69 -69.5t118 -18.5q125 7 230 112q-1 9 -1 28v15 q0 165 73 254q25 30 56 30q22 0 43 -11q44 -24 -15 -129q-40 -69 -116 -158q-3 -100 18 -140q8 -14 17.5 -16t19 4.5t24.5 22.5q42 43 93 116q5 7 9.5 13.5t7 10t3.5 4.5q4 0 7 -1q-1 -1 -3.5 -4.5t-7 -10t-9.5 -13.5q-53 -72 -97 -120q-29 -29 -45 -29h-2q-61 6 -74 128 q-115 -115 -250 -115q-77 0 -129 37t-56 101v8q0 53 33.5 87t86.5 37h14q48 2 80 -22.5t31 -66.5q-1 -35 -24.5 -59.5t-60.5 -24.5zM614 409q18 47 -8 62q-30 17 -54.5 -9.5t-39.5 -78.5t-23 -99.5t-11 -87.5q105 134 136 213z" horiz-adv-x="667"/>
<glyph unicode="m" glyph-name="m" d="M202 193q-28 0 -45.5 15t-19.5 39q0 19 9 22q7 2 10.5 -2t2.5 -10t-6 -8q-6 3 -9 0.5t-2 -10.5q2 -18 18 -30t38 -12q31 2 48.5 31t14.5 64.5t-25 56.5q-11 11 -31 17q-38 14 -78.5 -2.5t-60.5 -43.5q-29 -43 -23.5 -92.5t40.5 -83.5q60 -57 165 -50q70 4 137 42 q58 31 93 64q20 19 37 36q15 21 30 15q11 -6 -2 -120q2 3 20 59q18 52 38 50q27 0 37 -42q9 -38 6 -54l9 27q20 67 45 109q14 24 29 24q10 0 16.5 -5.5t10 -16.5t6 -23t1.5 -30t-1.5 -30.5t-3 -32.5t-4 -29.5t-4.5 -26.5t-3 -18q-7 -43 1.5 -49t32.5 16q60 48 111 108 q29 32 31 35q3 0 6 -1q0 -1 -23 -25q-63 -72 -112 -114q-31 -25 -44 -25q-54 0 -35 140q5 46 9 80q6 40 -5 38q-8 -1 -20 -25q-26 -56 -55 -145q-9 -2 -21.5 6t-12.5 16q0 110 -22 80l-7 -12q-31 -72 -36 -100q-11 -3 -22 6t-14 19q7 14 14 52q5 33 -2 40q-8 -6 -40 -37 q-67 -62 -161 -95q-39 -14 -69 -15h-20q-68 0 -115.5 27t-67.5 76q-9 24 -11 54v2q0 54 35.5 91.5t90.5 38.5h8q52 0 87.5 -25.5t34.5 -69.5q-1 -37 -26 -60.5t-63 -25.5z" horiz-adv-x="921"/>
<glyph unicode="n" glyph-name="n" d="M170 350q49 0 83 -24.5t34 -66.5q0 -37 -24 -61t-62 -28q-33 -1 -51 18q-14 14 -16 33q-1 19 8 22q7 3 11 -1t3 -10t-6 -8q-7 3 -9.5 0.5t-0.5 -10.5q3 -28 35 -37t54 11q27 23 28 68t-27 70q-12 12 -32 17q-40 12 -78 -5t-58 -46q-29 -45 -21.5 -93.5t43.5 -82.5 q25 -23 66 -37q70 -15 129.5 -2.5t106.5 41.5q66 38 126 105q4 7 16 11.5t18 -4.5q15 -72 14 -99q3 10 13.5 44.5t19 58t18.5 39.5q11 17 22 17h2q55 -9 18 -204q-8 -47 1 -49q7 -1 26 18q36 33 91 110q24 31 27 36q1 -1 6 -1q-8 -17 -59 -78q-25 -32 -57 -64 q-26 -28 -38 -26h-4q-26 9 -28.5 62t5.5 90q0 3 2 17t3.5 26t2.5 26t0 22.5t-4 8.5q-7 1 -15.5 -13.5t-16.5 -37.5t-15 -45.5t-13 -43.5t-8 -26q-8 -5 -19.5 2.5t-14.5 14.5q5 9 -0.5 39.5t-10.5 42.5q-7 -6 -37 -36q-71 -69 -157 -101q-43 -18 -100 -18q-80 0 -131.5 40 t-56.5 111v7q0 58 38.5 94t99.5 36z" horiz-adv-x="799"/>
<glyph unicode="o" glyph-name="o" d="M461 246q0 27 19.5 43t49.5 16q45 0 60.5 -39.5t8.5 -96.5h12q83 5 100 33q1 0 7 -2q-23 -33 -118 -35h-2q-10 -55 -41 -90q-16 -20 -36 -20q-31 0 -55.5 23t-24.5 52v9l-3 -3q-104 -91 -222 -91q-80 0 -131.5 37t-54.5 107v2q0 55 38 89.5t97 34.5q50 0 81.5 -24 t28.5 -69q-2 -33 -26 -56t-59 -24q-26 0 -44 14t-18 36q-2 19 9 22q6 2 9.5 -2t2.5 -10t-5 -8q-6 3 -9 1t-2 -9q1 -16 17 -28t37 -12q31 1 48 29t13.5 62t-24.5 54q-20 19 -59.5 20t-66.5 -14q-65 -37 -61 -114q3 -43 31.5 -74t71.5 -46q35 -11 80 -10t81 12q89 28 142 81 q7 17 25.5 33t28.5 0q6 -7 6 -11q-4 -4 -14 -31q-9 -25 -4 -46.5t22 -29.5q20 -7 39 12t30 44t15 47q-51 0 -89 21t-41 61zM593 169q9 48 -3 80q-10 32 -35 43q-26 9 -45 -13t-11 -50q14 -51 94 -60z" horiz-adv-x="713"/>
<glyph unicode="p" glyph-name="p" d="M565 211q45 0 45 -42q16 6 39 15q43 14 53 20l3 -1q2 0 4 -2q-12 -9 -51.5 -21t-47.5 -15q-2 -29 -25.5 -55.5t-50.5 -26.5q-9 0 -18 4q-18 11 5 35q18 21 49 33q7 18 7 34q0 17 -14 17q-30 1 -100 -103q-13 -133 -32 -217q-15 -64 -41 -96q-20 -24 -43 -24q-34 0 -34 27 q0 17 9 46q39 119 101 211q3 19 11.5 73.5t13.5 92.5t6 71q-116 -129 -262 -129q-65 0 -110 25.5t-63 70.5q-11 25 -11 49v2q0 55 37.5 89.5t96.5 34.5q49 0 80.5 -24t30.5 -66q-1 -35 -24.5 -59t-60.5 -25q-27 0 -45 14t-18 37q-1 18 8 21q9 4 12 -5.5t-4 -13.5 q-6 3 -9 0.5t-2 -9.5q1 -17 17 -28.5t37 -11.5q31 2 48 29.5t13.5 61.5t-24.5 54q-20 19 -59.5 20t-66.5 -14q-65 -37 -61 -114q3 -42 31.5 -73.5t71.5 -45.5q34 -10 79.5 -9.5t80.5 11.5q85 27 141 78q27 24 36 37v1q5 7 13 7q3 0 6 -3q-5 -132 -9 -184q25 36 50 62 q32 35 51 34zM419 29q-69 -114 -95 -209q-11 -40 1 -44q15 -7 31 20.5t29.5 81t20 83t13.5 68.5zM526 122q-20 -23 -9 -29t27 15q12 16 24 43q-28 -13 -42 -29z" horiz-adv-x="705"/>
<glyph unicode="q" glyph-name="q" d="M176 202q-26 2 -43.5 17t-17.5 39q2 18 10 21q11 3 13 -7t-6 -13q-6 4 -9.5 1.5t-2.5 -10.5q0 -17 16.5 -30t36.5 -13q31 -2 50 25.5t17.5 63.5t-21.5 57q-26 26 -73 25q-67 -2 -103 -58t-13 -124q17 -52 66.5 -81t120.5 -29q65 0 128 35q61 33 113 90q23 50 73 50 q41 0 54 -27q7 -17 7 -21q-1 -4 -5 -4q-3 0 -5 3q1 3 -4 22q-5 17 -25 21q-30 5 -51 -39t-19 -83q3 -59 57 21q19 28 21 35q18 21 34 -3q-15 -14 -27 -119q2 -2 4 -2.5t4 -2.5q49 20 91 59q26 23 27 29q3 -2 3 0l4 -2q-2 -5 -29 -29q-45 -40 -92 -61q35 -40 60.5 -104.5 t26.5 -127.5q0 -36 -12.5 -51t-42.5 -15q-86 0 -81 181q0 57 7 105q-18 0 -27 7t-3 17q9 19 32 13q1 -1 3 -1q1 1 1 3q13 74 14 90q-8 -10 -26 -39q-32 -48 -64 -18q-8 7 -15 19q-6 14 -6 29q0 16 7 35l-21 -21q-60 -63 -147 -92q-30 -10 -67 -10h-1q-75 0 -126 30.5 t-68 86.5q-7 22 -7 49v6q2 56 37.5 93.5t91.5 37.5h1q54 0 89.5 -26t31.5 -72q-3 -36 -28 -58.5t-64 -22.5zM565 -12q-2 -139 24 -192q16 -36 45 -30q44 11 17 133q-24 104 -75 157l-9 -3q-2 -42 -2 -65zM538 57l1 -1q0 3 1.5 10.5t2.5 11.5q-22 8 -22 -5q2 -11 17 -16z M568 59l3 1h1q-1 1 -2 1.5t-2 1.5v-4z" horiz-adv-x="696"/>
<glyph unicode="r" glyph-name="r" d="M544 176q-19 11 -30 18q-10 -12 -39 -41q-58 -61 -147 -91q-33 -11 -67 -11h-1q-75 2 -125.5 32t-68.5 85q-7 24 -7 50v6q2 55 37.5 92.5t91.5 37.5h1q56 0 91.5 -26t29.5 -76q-5 -39 -43 -63.5t-79 -5.5q-32 17 -31 48q0 19 10 22t12 -7.5t-5 -13.5q-13 8 -13 -8 q1 -17 17 -30t37 -13q47 -1 62.5 55.5t-16.5 89.5q-10 10 -31 19q-39 14 -74.5 3t-57.5 -37q-34 -41 -32.5 -96t35.5 -94q24 -28 62 -44q37 -17 96 -17q65 0 128 35q70 37 123 101q-38 34 -42 74q0 22 11.5 37.5t30.5 16.5q23 0 34 -16.5t6 -40.5q-7 -27 -29 -61 q11 -16 46 -36q6 -7 -6 -36q-1 -1 -5.5 -10.5t-9 -19.5t-10.5 -23.5t-10.5 -25.5t-7.5 -23t-2 -18t6 -9q15 -5 52 28q29 24 74 73q23 23 55 61q24 29 28 35h6q-20 -30 -85 -100q-43 -47 -78 -76q-37 -32 -56 -26q-13 4 -21.5 12t-10.5 18t-2 20.5t5 24t9.5 24.5t12.5 24.5 t12.5 21.5t12 18.5t8.5 12.5zM517 211q24 37 27 59q7 41 -16 44q-11 2 -18 -9t-9 -34q-4 -31 16 -60z" horiz-adv-x="733"/>
<glyph unicode="s" glyph-name="s" d="M622 200q-8 -12 -98 -64v-1q23 -54 -3 -110.5t-78 -56.5h-1q-41 0 -44 37v1q0 32 32 64q22 23 56 47l-2 22q-7 32 -15 50q-1 -1 -38 -40q-58 -61 -147 -91q-30 -10 -67 -10h-1q-75 0 -126 30.5t-68 86.5q-7 22 -7 49v6q2 56 37.5 93.5t91.5 37.5h2q98 0 118 -70 q10 -45 -17 -77.5t-73 -30.5q-26 0 -43.5 16t-17.5 39q2 18 10 21q7 2 10.5 -2.5t2.5 -10.5t-6 -7q-6 4 -9.5 1.5t-2.5 -10.5q0 -17 16.5 -30t36.5 -13q31 0 50 27t18 62t-22 56q-26 27 -73 26q-67 -2 -103 -57.5t-13 -124.5q17 -52 66.5 -81t120.5 -29q60 0 128 35 q74 39 124 102q-22 65 2 89q11 11 21 11q17 0 22 -11.5t1.5 -24.5t-11.5 -25q-1 -1 -17 -20q1 -2 4 -6.5t4 -6.5q18 -30 29 -58q5 3 31 17.5t41.5 24.5t20.5 17h7zM487 111q-18 -9 -52 -43q-18 -19 -26 -38q-12 -33 5 -36.5t35 15.5q35 39 38 92v10zM483 217q23 31 26 41 q4 14 1.5 20t-11.5 5q-15 -2 -20 -24.5t4 -41.5z" horiz-adv-x="617"/>
<glyph unicode="t" glyph-name="t" d="M25 364q-77 -17 -117 -17q-43 -2 -77.5 14t-47.5 44q-8 18 -8 33q0 30 22.5 51t52.5 21h11q29 -4 47 -24t8 -48q-12 -29 -54 -23q-24 4 -25 23q-3 21 6 24q8 3 9 -5q1 -7 -5 -8q-6 4 -7.5 1t0.5 -12q4 -17 20 -19q31 -3 40 23q8 24 -4 44t-36 22q-42 6 -63 -33 q-19 -42 -3.5 -72t50.5 -42q17 -6 35.5 -8t40 0.5t35.5 4.5t39 7.5t33 7.5q16 54 18 59q4 4 8 4q9 3 17 -13q0 -1 -9 -44l1 1q123 23 164 -18q10 -10 8 -16q0 -5 -5 -5q-6 0 -9.5 3.5t-1.5 8.5q3 0 4 1t0.5 2.5t-2 3.5t-4.5 5q-20 18 -62.5 20.5t-77.5 -8.5q-14 -5 -16 -5 q-20 -81 -34 -200q-8 -62 -6 -109q0 -41 11 -47.5t33 17.5q75 87 116 167h8q-11 -16 -19 -31q-12 -22 -38 -58q-29 -42 -55 -72q-27 -30 -42 -30h-3q-13 3 -23 13q-28 38 -21 115q6 108 34 212q1 4 2 7.5t2 7.5z" horiz-adv-x="183"/>
<glyph unicode="u" glyph-name="u" d="M153 341q49 0 81 -24.5t31 -65.5q-1 -35 -24.5 -59t-60.5 -25q-26 -1 -44 13.5t-20 37.5q0 18 9 21q10 4 13 -6q1 -10 -5 -13q-6 3 -9.5 0.5t-2.5 -9.5q2 -16 18.5 -28.5t36.5 -11.5q30 1 47 28.5t13.5 62t-24.5 54.5q-27 25 -73 21q-50 -5 -82.5 -39t-31.5 -83 q0 -90 103 -126q43 -14 96 -10q103 5 201 86q31 25 40 40q8 7 20 3.5t19 -9.5q0 -2 -4 -35t-3.5 -59t8.5 -27q18 -2 49 92q13 35 24 75q2 3 6 3q16 0 30 -19q0 -22 -5 -78t-5 -82q-1 -34 7 -35.5t27 19.5q41 40 94 111q25 33 26 36q3 0 5 -1q-1 -1 -18 -25q-49 -67 -98 -117 q-28 -28 -40 -28h-2q-34 6 -34 116q2 39 4 57q0 5 0.5 9.5t0.5 7.5t0.5 5t0.5 4v1l-8 -24q-10 -35 -15 -47q-29 -87 -50 -85q-24 0 -35 19.5t-11 48.5q0 5 5 55q-4 -4 -10.5 -11t-12.5 -13t-13 -12q-109 -90 -223 -90q-77 0 -128.5 37t-55.5 101v8q0 57 37 91t96 34z" horiz-adv-x="759"/>
<glyph unicode="v" glyph-name="v" d="M168 162q30 2 46.5 30t13.5 62.5t-24 53.5q-20 20 -59 20.5t-67 -15.5q-64 -36 -60 -114q3 -42 31.5 -73.5t70.5 -44.5q34 -11 79.5 -10.5t81.5 11.5q85 27 141 78q27 25 35 37q4 11 21 16q16 4 20 -1q2 -7 4 -27v-104q0 -23 3.5 -28.5t8 -0.5t15.5 23q32 59 43 115 q-110 29 -101 87q6 24 36 24h4q38 -1 55 -29t12 -74q0 -2 -1 -3q18 -6 44.5 -9t53.5 0t36 14h7q-18 -20 -69 -18q-40 0 -72 7q-11 -66 -42 -115q-18 -31 -31 -31q-17 0 -27 25q-13 32 -13 73q-2 39 -5 50l-12 -12q-39 -43 -113 -83q-52 -29 -117 -34h-21q-65 0 -111 25 t-64 70q-9 21 -9 49v3q0 51 34 85t86 38h14q50 0 82 -24.5t29 -69.5q-2 -33 -26 -56t-59 -24q-27 0 -45 14t-19 38q0 16 9 21q6 2 9.5 -2t3.5 -9.5t-5 -7.5q-6 3 -9.5 0t-2.5 -10q2 -16 18 -28t37 -12zM574 236q-4 25 -20.5 42t-39.5 10q-17 -8 -17 -24t12 -30 q17 -21 64 -38q3 19 1 40z" horiz-adv-x="712"/>
<glyph unicode="w" glyph-name="w" d="M172 173q-26 0 -44.5 14.5t-18.5 36.5q-1 18 9 21q9 4 12 -5.5t-5 -12.5q-6 3 -9 0.5t-2 -10.5q1 -16 17 -28t37 -12q28 2 44 24q19 26 17.5 63t-24.5 58q-27 27 -73 21q-64 -5 -97 -56t-7 -113q19 -46 69 -69.5t119 -19.5q117 7 206 90q33 32 37 39q7 6 24 12 q15 8 25 -2q2 -5 0 -31q-1 -11 -6.5 -59t-7.5 -70q-3 -34 1 -35q10 -2 25.5 31.5t30 73t18.5 44.5q5 4 20 4t22 -3q-1 -11 11 -56.5t20 -45.5q10 0 20.5 41.5t10.5 67.5q-97 24 -103 65q-3 29 39 29q26 0 46.5 -16.5t21.5 -41.5q2 -21 1 -33q96 -18 129 7q3 0 6 -1 q-17 -16 -69 -16q-34 -1 -66 6q-3 -55 -20 -90q-8 -20 -18 -23.5t-26 7.5q-39 24 -45 89q0 -1 -1 -3.5t-3 -8t-4 -11.5q-22 -60 -46 -100q-14 -23 -24 -23h-3q-33 8 -33 87v2q0 6 3.5 43.5t1.5 53.5q-42 -52 -126 -99q-51 -27 -117 -32h-21q-77 0 -128.5 36.5t-55.5 100.5v9 q0 52 34 86.5t87 37.5h13q48 0 80 -24t31 -65q0 -36 -24 -59.5t-61 -25.5zM673 190q3 47 -22 72q-18 16 -36.5 8.5t-14.5 -33.5q3 -25 73 -47z" horiz-adv-x="809"/>
<glyph unicode="x" glyph-name="x" d="M514 244q33 -6 64 -65q22 42 45 68q20 25 39 25q11 0 11 -7q0 -5 -6 -6.5t-9 2.5q1 3 -3 4q-3 0 -8 -2q-9 -3 -21 -17q-27 -32 -44 -73q7 -11 26 -50q12 -28 19.5 -32t30.5 10q41 28 85 76l24 26h5q-1 -2 -23 -26q-47 -51 -90 -80q-19 -13 -28 -13q-35 0 -69 41 q-48 -88 -92 -88q-11 0 -11 8q0 1 2 7q6 7 14 1q-3 -5 11 -5t32 21q21 27 39 63l-1 2q-25 35 -35 67q-7 21 -12 32q-2 -1 -39 -35q-66 -60 -154 -93q-32 -11 -67 -13h-20q-136 0 -174 97q-11 27 -11 51v2q0 57 37.5 92.5t97.5 35.5q49 0 81 -25t29 -69q-2 -33 -26 -56 t-59 -24q-25 -2 -43.5 13.5t-18.5 37.5q-2 19 8 22q6 2 9.5 -2t3 -10t-5.5 -8q-6 3 -9 0.5t-2 -9.5q1 -27 32 -36.5t53 8.5q27 21 30 64.5t-24 69.5q-21 19 -60 20t-66 -15q-29 -16 -46 -47.5t-15 -70.5q5 -67 60.5 -102.5t137.5 -30.5q63 4 132 41q58 32 89 62q30 29 36 33 v1q1 1 4.5 3.5t4.5 3.5z" horiz-adv-x="765"/>
<glyph unicode="y" glyph-name="y" d="M490 -183q-30 0 -47.5 19.5t-17.5 49.5q0 7 2 25q15 83 77 140q34 31 80 65q-1 33 -9 130q-1 -1 -7 -16q-20 -47 -40 -78q-12 -18 -26 -19t-23 18q-8 19 -8 39q0 16 -4 20q-10 -13 -42 -43q-109 -90 -223 -90q-80 0 -131 37.5t-54 107.5v2q2 55 39 89.5t95 34.5 q49 0 82 -25t30 -69q-2 -33 -26 -56t-60 -24q-25 -1 -43 13.5t-20 37.5q0 18 9 21q10 4 13 -6q1 -10 -5 -13q-6 3 -9.5 0.5t-2.5 -9.5q3 -26 32.5 -37t52.5 8q27 21 30 64.5t-24 69.5q-27 25 -73 21q-55 -4 -85 -42q-30 -37 -29 -80q0 -90 103 -126q35 -13 77.5 -10.5 t78.5 12t64 23.5q53 27 82 55q32 31 36 38q2 2 5.5 7t10.5 11t12 7t9 -4q8 -12 3 -53q-5 -55 10 -42q3 3 8 10q31 44 52 107q7 10 21 12h4q9 0 14 -8q-10 -25 -5 -128q11 8 51 30.5t53 37.5h6q-16 -21 -79 -55q-3 -2 -14 -8t-17 -10q2 -64 2 -120t-18 -104t-54 -71 q-26 -16 -48 -16zM584 112q-83 -63 -120 -118q-42 -64 -32 -120q4 -26 22 -33t47 9q38 23 60 79q23 66 23 183z" horiz-adv-x="713"/>
<glyph unicode="z" glyph-name="z" d="M575 236q-51 -14 -76 -7h-1q-7 -13 -42 -43q-99 -84 -202 -90h-21q-77 0 -128.5 36.5t-55.5 99.5v9q0 53 33.5 87t86.5 37h14q50 0 82 -24.5t29 -69.5q-2 -33 -26.5 -55.5t-59.5 -23.5q-26 -1 -43 13t-19 38q0 18 8 22q6 2 9.5 -2.5t3.5 -10t-5 -7.5q-6 3 -9.5 0 t-2.5 -10q2 -16 18.5 -28t36.5 -11q18 0 30 12q27 21 30 64t-24 70q-26 24 -73 20q-50 -5 -82.5 -39.5t-30.5 -83.5q0 -89 102 -125q34 -11 79.5 -10.5t81.5 11.5q86 27 141 79q29 27 35 36q-10 4 -15 14.5t0 19.5t20 9q11 0 12.5 -8t-2.5 -17t-9 -15h2q31 -5 96 16l3.5 -7 t2.5 -5.5t0.5 -6t-1 -5.5t-2.5 -6t-3 -5.5t-4 -6.5t-4 -7q-34 -50 -72 -100q-24 -32 -29 -37q20 -2 41 -11t42 -11q11 -1 21 7t0 10q-1 5 3.5 7t9 0t4.5 -6q0 -8 -14 -15t-24 -7h-1q-36 1 -53 15q-18 12 -47 5q-11 5 -11 28q0 5 2 9q2 3 50.5 62.5t62.5 79.5zM499 265 q-8 -6 -10 -19q0 -8 6 -12q15 21 13 31q-1 5 -9 0z" horiz-adv-x="692"/>
<glyph unicode="|" glyph-name="bar" d="M71 5q-7 0 -12 11v68q1 44 1 153v75q1 25 1 73v172q1 1 2 1l14 -7q1 -10 1 -77v-13q0 -101 -1 -160q0 -92 -1 -136v-108q-1 -15 -1 -36q0 -14 1 -15q-2 -1 -5 -1z" horiz-adv-x="145"/>
<glyph unicode="~" glyph-name="asciitilde" d="M274 255q0 -21 -22 -34.5t-49 -13.5q-21 0 -39.5 7t-39.5 20.5t-29 17.5q-9 4 -19 4q-24 0 -32 -9q-8 -10 -1 -11q2 -6 -6 -9q-8 0 -9 8q0 9 12 23q17 20 56 20q23 0 47 -11l33 -18q32 -18 53 -18t30 10q8 10 1 11q-1 3 1.5 6.5t6.5 3.5t6 -4v-3z" horiz-adv-x="339"/>
<glyph unicode="¡" glyph-name="exclamdown" d="M42 46q-8 0 -12 7q3 30 14.5 110.5t14.5 109.5l11 82q2 16 5.5 43t4.5 32q2 1 5 1h2q3 -3 5 -6q-4 -54 -9.5 -163.5t-6.5 -129.5q-3 -57 -5 -73q-13 -13 -29 -13zM91 491q-10 0 -10 13q0 14 14 14q9 0 9 -10v-6q-2 -8 -13 -11z" horiz-adv-x="154"/>
<glyph unicode="¨" glyph-name="dieresis" d="M98 492q-14 0 -14 15q0 14 14 14q9 0 14 -16q0 -10 -9 -13h-5zM44 492q-5 0 -10 4.5t-5 10.5q0 10 10 14h4q6 0 10.5 -5t4.5 -10q0 -6 -4.5 -10t-9.5 -4z" horiz-adv-x="136"/>
<glyph unicode="¯" glyph-name="macron" d="M27 484q0 10 10 17h45q24 1 62 1h5q1 -1 1 -4q0 -8 -5 -18q-37 -2 -75 0q-39 0 -42 -1q-1 2 -1 5z" horiz-adv-x="185"/>
<glyph unicode="°" glyph-name="degree" d="M21 463q1 19 18 33.5t38 14.5h2q20 -1 34 -13t14 -31v-4q-2 -17 -18 -31t-33 -14q-19 0 -37 13.5t-18 31.5zM113 470q0 14 -9.5 25.5t-22.5 11.5q-11 0 -21 -16t-10 -29v-2q0 -14 8 -26t20 -12q15 0 25 15t10 33z" horiz-adv-x="150"/>
<glyph unicode="´" glyph-name="acute" d="M62 533q5 0 11.5 -10.5t6.5 -13.5q-5 -13 -24 -26q-22 -15 -24 -19q-2 0 -5 3q1 3 15 31.5t15 31.5q3 3 5 3z" horiz-adv-x="110"/>
<glyph unicode="µ" glyph-name="mu" horiz-adv-x="320"/>
<glyph unicode="·" glyph-name="periodcentered" d="M61 252q-9 0 -15 5.5t-6 14.5q0 8 6 15t14 7q9 0 15 -7t6 -16q0 -7 -7 -13t-13 -6z" horiz-adv-x="112"/>
<glyph unicode="¸" glyph-name="cedilla" d="M192 -67q0 -27 -18 -42t-45 -15h-1q-25 0 -43.5 14.5t-18.5 37.5q6 34 35 38q12 2 26 -6.5t8 -17.5q-2 -2 -4 -1.5t-3.5 2.5t-0.5 4q7 2 -1 10q-14 10 -28 3t-20 -22q-7 -21 8 -42q18 -22 52 -10q30 14 28.5 44t-25.5 50q-22 19 -17 28q3 -1 9 -1q5 1 9 -1q0 -9 20 -19 q30 -15 30 -54z" horiz-adv-x="237"/>
<glyph unicode="¿" glyph-name="questiondown" d="M143 54q-41 2 -66.5 24t-25.5 61q0 69 69 125q33 25 74 53q37 24 45 68q3 18 -6 25q-8 7 -10 -5q-9 -5 -12 5q0 8 10 9q19 0 28.5 -16t4.5 -37q-9 -34 -46 -61t-70 -61q-40 -46 -44 -96q-4 -49 27 -72.5t81 -13.5q46 9 75 41.5t11 76.5q-18 41 -50 46q-26 4 -38 -11 q-11 -16 0 -19q4 -5 -3 -9q-6 -4 -10 1q-8 11 10 29q18 17 52 13q28 -5 45.5 -22.5t17.5 -47.5q0 -34 -26.5 -60t-61.5 -37q-27 -9 -66 -9h-15zM229 451q-8 2 -8 12q0 5 4 9.5t9 4.5q11 0 11 -10q0 -16 -14 -16h-2z" horiz-adv-x="362"/>
<glyph unicode="À" glyph-name="Agrave" d="M979 231q15 -1 27 -10t15 -20q0 -5 -4 -5q-4 1 -5 4l-10 15q-8 13 -23 13q-45 0 -62 -85l-2.5 -20t-2 -26t2 -23.5t7.5 -9.5q18 -2 38 48q5 14 10.5 28.5t8.5 22.5t4 11q11 9 23 3t18 -15q0 -13 -10 -63q-12 -55 4 -55q8 0 26 18q47 47 88 105q21 28 25 34q1 -1 5 -1 q-3 -5 -16 -24q-47 -65 -93 -111q-26 -26 -39 -26h-2q-13 1 -20.5 9.5t-9.5 23.5t-2.5 27t0.5 31.5t1 25.5q-11 -42 -38 -82q-17 -21 -36 -13t-27 32q-6 15 -6 32q0 29 13 54t32 37q-54 -18 -162.5 -58.5t-200.5 -71t-177 -49.5q-75 -16 -137 -18h-9q-59 0 -112 21t-78 53 q-14 19 -14 29q0 14 14 10q13 -5 9 -15l-2 -3q-16 -1 2 -23q24 -29 81.5 -47.5t116.5 -16.5q102 2 275 55q76 23 214 73.5t170 61.5q4 1 14.5 4.5t15.5 5.5q13 4 33 4h7zM931 294q1 5 6.5 14.5t10.5 9.5q4 0 18 -28t17 -38q-3 -3 -5 -3q-2 5 -23 20q-19 14 -24 25z" horiz-adv-x="1155"/>
<glyph unicode="Á" glyph-name="Aacute" d="M977 231q15 -1 27 -10t15 -20q0 -5 -4 -5q-4 1 -5 4l-10 15q-8 13 -22 13q-46 0 -63 -85l-2.5 -20t-2 -26t2 -23.5t7.5 -9.5q18 -2 38 48q5 14 10.5 28.5t8.5 22.5t4 11q11 9 23 3t19 -15l-3 -12q-2 -13 -5 -29.5t-5 -33.5t-1 -29t6 -13q8 -2 27 17q47 47 88 105 q21 28 25 34q1 -1 5 -1q-3 -5 -16 -24q-47 -65 -93 -111q-26 -26 -39 -26h-2q-13 1 -20.5 9.5t-9.5 23t-2.5 26.5t0.5 31.5t1 26.5q-11 -42 -38 -82q-17 -21 -36 -13t-27 32q-6 15 -6 32q0 29 13 54t32 37q-54 -18 -162.5 -58.5t-200.5 -71t-177 -49.5q-75 -16 -137 -18h-9 q-60 0 -112.5 21t-76.5 53q-15 18 -15 29q0 14 14 10q13 -5 9 -15l-2 -3q-16 -2 2 -23q24 -29 81.5 -47.5t116.5 -16.5q102 2 275 55q76 23 214 73.5t170 61.5q4 2 15.5 5t15.5 5q13 4 32 4h7zM961 252q3 8 17 37t17 29q5 0 11 -9.5t8 -14.5q-4 -9 -25 -24q-17 -12 -23 -21 q-1 1 -3 1z" horiz-adv-x="1155"/>
<glyph unicode="Â" glyph-name="Acircumflex" d="M978 231q15 -1 27 -10t15 -20q0 -5 -4 -5q-4 1 -5 4l-10 15q-8 13 -22 13q-46 0 -63 -85l-2.5 -20t-2 -26t2 -23.5t7.5 -9.5q18 -2 38 48q5 14 10.5 28.5t8.5 22.5t4 11q11 9 23 3t19 -15l-2 -12q-3 -13 -6 -29.5t-5 -33.5t-1 -29t6 -13q8 -2 27 17q47 47 88 105 q21 28 25 34q1 -1 5 -1q-3 -5 -16 -24q-47 -65 -93 -111q-26 -26 -39 -26h-2q-13 1 -20.5 9.5t-9.5 23.5t-2.5 27t0.5 31.5t1 25.5q-11 -42 -38 -82q-17 -21 -36 -13t-27 32q-6 15 -6 32q0 29 13 54t33 37q-8 -2 -54 -19q-7 -3 -49 -18.5t-54 -20t-50.5 -19t-56 -20.5 l-52.5 -18t-58 -19t-53.5 -16t-58 -16t-55.5 -13q-75 -16 -137 -18h-9q-60 0 -112.5 21t-76.5 53q-15 18 -15 29q0 14 14 10q13 -5 9 -15l-2 -3q-16 -2 2 -23q24 -29 81.5 -47.5t116.5 -16.5q102 2 275 55q76 23 214 73.5t170 61.5q4 1 14.5 4.5t15.5 5.5q13 4 33 4h7z M917 256q19 23 53 65q5 -6 20.5 -24.5t25.5 -31.5q-10 -10 -34 -15q-19 42 -23 51q-15 -20 -38 -49q-1 -1 -2.5 0.5t-1.5 3.5z" horiz-adv-x="1155"/>
<glyph unicode="Ã" glyph-name="Atilde" d="M978 231q15 -1 27 -10t15 -20q0 -5 -4 -5q-4 1 -5 4l-10 15q-8 13 -22 13q-46 0 -63 -85l-2.5 -20t-2 -26t2 -23.5t7.5 -9.5q18 -2 38 48q5 14 10.5 28.5t8.5 22.5t4 11q11 9 23 3t19 -15l-2 -12q-3 -13 -6 -29.5t-5 -33.5t-1 -29t6 -13q8 -2 27 17q47 47 88 105 q21 28 25 34q1 -1 5 -1q-3 -5 -16 -24q-47 -65 -93 -111q-26 -26 -39 -26h-2q-13 1 -20.5 9.5t-9.5 23.5t-2.5 27t0.5 31.5t1 25.5q-11 -42 -38 -82q-17 -21 -36 -13t-27 32q-6 15 -6 32q0 29 13 54t33 37q-8 -2 -54 -19q-7 -3 -49 -18.5t-54 -20t-50.5 -19t-56 -20.5 l-52.5 -18t-58 -19t-53.5 -16t-58 -16t-55.5 -13q-75 -16 -137 -18h-9q-60 0 -112.5 21t-76.5 53q-15 18 -15 29q0 14 14 10q13 -5 9 -15l-2 -3q-16 -2 2 -23q24 -29 81.5 -47.5t116.5 -16.5q102 2 275 55q76 23 214 73.5t170 61.5q4 1 14.5 4.5t15.5 5.5q13 4 33 4h7z M898 261q0 17 9.5 28t27.5 11q9 0 24 -6t26.5 -11.5t23.5 -4t18 13.5l2 1q1 0 2 -1v-1q0 -17 -10.5 -28.5t-27.5 -11.5q-11 0 -37.5 11.5t-33.5 11.5q-18 -2 -18 -13q-1 -1 -3 -1q-1 -1 -3 1z" horiz-adv-x="1155"/>
<glyph unicode="Ä" glyph-name="Adieresis" d="M979 231q15 -1 27 -10t15 -20q0 -5 -4 -5q-4 1 -5 4l-10 15q-8 13 -23 13q-45 0 -62 -85l-2.5 -20t-2 -26t2 -23.5t7.5 -9.5q18 -2 38 48q5 14 10.5 28.5t8.5 22.5t4 11q11 9 23 3t18 -15q0 -13 -10 -63q-12 -55 4 -55q8 0 26 18q47 47 88 105q21 28 25 34q1 -1 5 -1 q-3 -5 -16 -24q-47 -65 -93 -111q-26 -26 -39 -26h-2q-13 1 -20.5 9.5t-9.5 23.5t-2.5 27t0.5 31.5t1 25.5q-11 -42 -38 -82q-17 -21 -36 -13t-27 32q-6 15 -6 32q0 29 13 54t32 37q-54 -18 -162.5 -58.5t-200.5 -71t-177 -49.5q-75 -16 -137 -18h-9q-59 0 -112 21t-78 53 q-14 19 -14 29q0 14 14 10q13 -5 9 -15l-2 -3q-16 -1 2 -23q24 -29 81.5 -47.5t116.5 -16.5q102 2 275 55q76 23 214 73.5t170 61.5q4 1 14.5 4.5t15.5 5.5q13 4 33 4h7zM939 252q-5 0 -9.5 4.5t-4.5 10.5q0 5 4 11t9 3q6 0 10.5 -4.5t4.5 -10.5q0 -5 -4.5 -9.5t-9.5 -4.5z M993 252q-14 0 -14 15q0 14 14 14q4 0 9.5 -5.5t5.5 -9.5q0 -3 -3.5 -8t-6.5 -6h-5z" horiz-adv-x="1155"/>
<glyph unicode="Å" glyph-name="Aring" d="M978 231q15 -1 27 -10t15 -20q0 -5 -4 -5q-4 1 -5 4l-10 15q-8 13 -22 13q-46 0 -63 -85l-2.5 -20t-2 -26t2 -23.5t7.5 -9.5q18 -2 38 48q5 14 10.5 28.5t8.5 22.5t4 11q11 9 23 3t19 -15l-2 -12q-3 -13 -6 -29.5t-5 -33.5t-1 -29t6 -13q8 -2 27 17q47 47 88 105 q21 28 25 34q1 -1 5 -1q-3 -5 -16 -24q-47 -65 -93 -111q-26 -26 -39 -26h-2q-13 1 -20.5 9.5t-9.5 23.5t-2.5 27t0.5 31.5t1 25.5q-11 -42 -38 -82q-17 -21 -36 -13t-27 32q-6 15 -6 32q0 29 13 54t33 37q-8 -2 -54 -19q-7 -3 -49 -18.5t-54 -20t-50.5 -19t-56 -20.5 l-52.5 -18t-58 -19t-53.5 -16t-58 -16t-55.5 -13q-75 -16 -137 -18h-9q-60 0 -112.5 21t-76.5 53q-15 18 -15 29q0 14 14 10q13 -5 9 -15l-2 -3q-16 -2 2 -23q24 -29 81.5 -47.5t116.5 -16.5q102 2 275 55q76 23 214 73.5t170 61.5q4 1 14.5 4.5t15.5 5.5q13 4 33 4h7z M979 250q-13 1 -24 9t-11 20q0 14 11.5 23t26.5 9h1q12 -1 20.5 -9t8.5 -20v-4q-1 -11 -10.5 -19.5t-20.5 -8.5h-2zM1006 282q0 8 -7 16t-14 8t-14 -9t-7 -18v-1q2 -22 17 -24h1q8 0 15 8t9 17v3z" horiz-adv-x="1155"/>
<glyph unicode="Æ" glyph-name="AE" d="M1014 218q23 27 52 27h1q21 0 33.5 -10t-5.5 -27q-19 -14 -46 -14q-7 -15 -13 -34.5t-8.5 -41.5t8.5 -36t36 -12q35 7 83 51q49 43 71 76h3l2 -2l-3 -3q-2 -3 -7.5 -9.5t-11.5 -13.5q-64 -73 -116 -97q-16 -6 -23 -7h-8q-18 0 -38 13q-25 13 -31 42q-6 20 -8 35 q-13 -52 -42 -86q-9 -10 -17 -10h-2q-45 6 -45 66q0 17 4 32q14 42 36 56q-27 -8 -73 -25q-22 -8 -86 -32t-100 -37t-91.5 -32t-104.5 -33t-96 -24q-70 -15 -137 -17h-8q-34 0 -64 6q-90 22 -127 68q-13 17 -13 29q0 13 12 10q13 -4 10 -14l-2 -4q-16 -1 2 -23 q24 -29 81.5 -47.5t116.5 -16.5q103 2 276 55q102 32 333 117q62 24 83 27q20 11 46 11h5q23 -2 32 -13zM1009 210q-8 18 -25 18q-10 0 -18 -4q-10 -6 -16 -12q-17 -20 -26.5 -54.5t-6.5 -68.5q3 -42 25 -17q12 14 22 40q17 42 23 62q5 4 9 6q4 15 13 30zM1090 212 q20 17 3 23t-40 -35q23 0 37 12z" horiz-adv-x="1224"/>
<glyph unicode="Ç" glyph-name="Ccedilla" d="M968 44q-24 5 -38 27.5t-14 52.5q0 32 12 60t30 40q-14 -5 -65 -24l-144 -54q-217 -80 -343 -110q-74 -17 -136 -18h-11q-60 0 -111.5 20.5t-76.5 53.5q-13 17 -13 28q0 13 12 9q13 -4 9 -14q-1 -2 -3 -4q-15 -2 3 -23q24 -29 81 -46.5t117 -15.5q98 2 277 56 q132 42 332 120q66 25 89 29v-1l5 1q4 1 7 2h4q18 0 29 -8t5 -24q-4 -10 -7.5 -14t-7.5 -3q-5 0 1 6q4 -1 8 6.5t3 17t-8 11.5q-18 6 -34 -25q-29 -63 -24 -124q9 -71 119 27q63 58 88 97q1 1 3 1t3 -1q-3 -3 -24 -31q-22 -28 -57 -61q-31 -34 -72 -56q-12 -5 -25 -9 q1 -10 26 -22q25 -11 35 -43q3 -14 3 -27q0 -34 -22.5 -52t-56.5 -19h-1q-32 0 -55 18t-23 47q0 41 42 48q24 4 37 -9q10 -11 7 -20q-1 -4 -7 -1t-2 7q6 1 -2 11q-10 10 -29 7q-24 -3 -31.5 -31.5t9.5 -51.5q16 -20 44 -17q32 2 50 31t0 60q-13 22 -38 47q-11 10 -9 18z" horiz-adv-x="1164"/>
<glyph unicode="È" glyph-name="Egrave" d="M1078 201l2 -2l-3 -3q-3 -4 -10 -11t-14 -15q-49 -55 -105 -78q-14 -7 -28 -7q-32 0 -54 25t-22 57q0 10 1 15q-10 -3 -32.5 -12t-37.5 -14q-227 -87 -427 -115q-44 -6 -78 -6q-73 0 -141.5 25.5t-100.5 64.5q-13 16 -13 26q0 13 14 10q13 -4 10 -14q-1 -2 -4 -5 q-17 0 4 -21q28 -29 88.5 -49.5t121.5 -26.5q74 -7 225 26q56 14 85 21q132 37 287 95q15 63 60 63h5q11 -1 20 -4.5t13 -11.5t-9 -19q-17 -15 -42 -22q-12 -22 -10.5 -58t25.5 -43q30 -8 83 29q61 45 83 79q1 1 4 1zM873 307q8 24 18 24q5 0 18.5 -28t16.5 -38q-3 -3 -6 -3 q-1 3 -23 19q-19 13 -24 26zM896 200q15 5 35 18t7 19q-11 5 -23 -8t-19 -29z" horiz-adv-x="1072"/>
<glyph unicode="É" glyph-name="Eacute" d="M1077 201l2 -2l-3 -3q-3 -4 -10 -11t-14 -15q-49 -55 -105 -78q-14 -7 -28 -7q-32 0 -54 25t-22 57q0 10 1 15q-301 -114 -497 -141q-43 -6 -78 -6q-73 0 -141.5 25.5t-100.5 64.5q-13 16 -13 26q0 13 14 10q13 -4 10 -14q-1 -2 -4 -5q-17 0 4 -21q28 -29 88.5 -49.5 t121.5 -26.5q74 -7 225 26q56 14 85 21q132 37 287 95q15 63 60 63h5q11 -1 20 -4.5t13 -11.5t-9 -19q-16 -15 -41 -22q-29 -88 14 -101q30 -8 83 29q61 45 83 79q1 1 4 1zM933 339q3 0 8 -8q8 -9 10 -17q-5 -11 -24 -25q-22 -15 -24 -19q-3 0 -5 2q1 3 15 32t15 32q3 3 5 3 zM895 200q15 5 35 18t7 19q-17 9 -42 -37z" horiz-adv-x="1072"/>
<glyph unicode="Ê" glyph-name="Ecircumflex" d="M1077 201l2 -2l-3 -3q-3 -4 -10 -11t-14 -15q-49 -55 -105 -78q-14 -7 -28 -7q-32 0 -54 25t-22 57q0 10 1 15q-301 -114 -497 -141q-43 -6 -78 -6q-73 0 -141.5 25.5t-100.5 64.5q-13 16 -13 26q0 13 14 10q13 -4 10 -14q-1 -2 -4 -5q-17 0 4 -21q28 -29 88.5 -49.5 t121.5 -26.5q74 -7 225 26q56 14 85 21q132 37 287 95q15 63 60 63h5q11 -1 20 -4.5t13 -11.5t-9 -19q-16 -15 -41 -22q-29 -88 14 -101q30 -8 83 29q61 45 83 79q1 1 4 1zM859 278q42 53 54 67q20 -27 46 -57q-10 -10 -33 -15q-1 2 -9.5 19.5t-14.5 31.5q-15 -20 -38 -49 q-2 -1 -3 0l-1 1q0 2 -1 2zM895 200q15 5 35 18t7 19q-17 9 -42 -37z" horiz-adv-x="1072"/>
<glyph unicode="Ë" glyph-name="Edieresis" d="M1078 201l2 -2l-3 -3q-3 -4 -10 -11t-14 -15q-49 -55 -105 -78q-14 -7 -28 -7q-32 0 -54 25t-22 57q0 10 1 15q-10 -3 -32.5 -12t-37.5 -14q-227 -87 -427 -115q-44 -6 -78 -6q-73 0 -141.5 25.5t-100.5 64.5q-13 16 -13 26q0 13 14 10q13 -4 10 -14q-1 -2 -4 -5 q-17 0 4 -21q28 -29 88.5 -49.5t121.5 -26.5q74 -7 225 26q56 14 85 21q132 37 287 95q15 63 60 63h5q11 -1 20 -4.5t13 -11.5t-9 -19q-17 -15 -42 -22q-12 -22 -10.5 -58t25.5 -43q30 -8 83 29q61 45 83 79q1 1 4 1zM896 200q15 5 35 18t7 19q-11 5 -23 -8t-19 -29z M933 276q-5 0 -10 4.5t-5 10.5q0 5 4.5 10.5t9.5 5.5q6 0 10 -5.5t4 -11.5q0 -5 -4 -9.5t-9 -4.5zM879 277q-15 0 -15 15q0 9 10 15h4q5 0 10 -5.5t5 -10.5t-5 -9.5t-9 -4.5z" horiz-adv-x="1072"/>
<glyph unicode="Ì" glyph-name="Igrave" d="M1015 233q35 0 13 -75l-4 -13q-4 -13 -7 -23t-7 -25.5t-4 -21t3 -9.5q9 -3 36 21q33 28 89 91q16 19 17 22h6q-14 -20 -56 -65q-25 -28 -55 -53q-24 -21 -37 -21q-21 0 -28.5 21t-1.5 45q13 42 30 78q9 19 6 21q-15 5 -68 -12h-1l-1 -1h-1h-1l-1 -1h-1h-1l-1 -1h-1h-1 l-1 -1h-1h-1l-1 -1h-1h-1l-1 -1h-1h-1l-1 -1h-1h-1l-1 -1h-1l-2 -1q-266 -89 -410 -115q-16 -3 -32 -5q-83 -13 -151 -10q-78 2 -154 20t-120 47q-30 18 -30 31q0 7 6 9.5t10 -0.5q10 -6 5 -14q-17 -6 16 -25q69 -42 189.5 -55t225.5 5q133 21 344 85q64 21 133 42 q42 13 62 13zM995 307q0 3 7 13.5t12 10.5q2 0 5 -3q1 -3 14.5 -31.5t14.5 -31.5q-3 -3 -5 -3q-3 5 -23 19t-25 26z" horiz-adv-x="1152"/>
<glyph unicode="Í" glyph-name="Iacute" d="M1017 233q36 0 13 -75q0 -1 -4 -13.5t-7.5 -22.5t-7.5 -25t-3.5 -21t2.5 -10q8 -1 28 14q45 36 90 90q24 27 25 30h6q-9 -13 -56 -65q-19 -21 -55 -53q-24 -21 -37 -21q-15 0 -23 9t-8.5 23.5t2.5 30.5t9 33.5t11 29t9 18.5q9 20 5 21q-14 5 -68 -12 q-111 -37 -155.5 -51.5t-140 -40t-171.5 -37.5q-85 -13 -151 -10q-78 2 -155 20t-119 47q-32 19 -30 31q0 7 6 9.5t10 -0.5q10 -6 5 -14q-17 -5 15 -25q70 -41 189.5 -54.5t226.5 4.5q125 19 344 85q64 21 133 42q42 13 62 13zM1026 273q2 8 17 37t19 29q5 1 11 -10t6 -15 q-4 -10 -24 -24q-22 -16 -23 -19h-4z" horiz-adv-x="1152"/>
<glyph unicode="Î" glyph-name="Icircumflex" d="M26 173q0 13 13 9.5t9 -14.5q-18 -6 14 -25q60 -35 161.5 -51t199.5 -6q71 7 151 24t134 33t139.5 43t125.5 39q27 8 45 8q14 0 19 -12.5t1.5 -33t-8.5 -38.5t-12 -38t-8 -23q-4 -23 4 -22t25 14q66 55 115 120h5q-2 -5 -17 -22q-51 -61 -93 -96q-25 -21 -38 -21 q-22 0 -28.5 18.5t1 46t14.5 47t14 32.5q9 20 5 21q-14 5 -68 -12q-309 -103 -467 -129q-85 -13 -151 -10q-79 2 -155 20t-120 47q-30 18 -30 31zM991 266q7 8 26 31t28 34q3 -4 18.5 -23.5t27.5 -33.5q-2 -2 -8.5 -5t-14.5 -5.5t-10 -3.5q-2 5 -10.5 22.5t-13.5 29.5 q-15 -20 -38 -49q-2 -1 -3 0l-1 1q0 2 -1 2z" horiz-adv-x="1152"/>
<glyph unicode="Ï" glyph-name="Idieresis" d="M1015 233q35 0 13 -75l-4 -13q-4 -13 -7 -23t-7 -25.5t-4 -21t3 -9.5q9 -3 36 21q33 28 89 91q16 19 17 22h6q-14 -20 -56 -65q-25 -28 -55 -53q-24 -21 -37 -21q-21 0 -28.5 21t-1.5 45q13 42 30 78q9 19 6 21q-15 5 -68 -12h-1l-1 -1h-1h-1l-1 -1h-1h-1l-1 -1h-1h-1 l-1 -1h-1h-1l-1 -1h-1h-1l-1 -1h-1h-1l-1 -1h-1h-1l-1 -1h-1l-2 -1q-266 -89 -410 -115q-16 -3 -32 -5q-83 -13 -151 -10q-78 2 -154 20t-120 47q-30 18 -30 31q0 7 6 9.5t10 -0.5q10 -6 5 -14q-17 -6 16 -25q69 -42 189.5 -55t225.5 5q133 21 344 85q64 21 133 42 q42 13 62 13zM1059 262q-15 0 -15 14q0 9 10 15h4q5 0 9.5 -5.5t4.5 -10.5q0 -13 -13 -13zM1004 263q-14 0 -14 14q0 6 4.5 10.5t9.5 4.5t10 -5.5t5 -10.5t-5 -9t-10 -4z" horiz-adv-x="1152"/>
<glyph unicode="Ð" glyph-name="Eth" horiz-adv-x="1182"/>
<glyph unicode="Ñ" glyph-name="Ntilde" d="M1158 329q0 40 35 40q9 0 29 -8.5t32 -12t26 5.5q6 6 6 7h3q1 0 1 -1q1 0 1 -1q-3 -13 -6 -20t-11.5 -13t-21.5 -6q-10 0 -37 11.5t-34 11.5q-6 0 -12 -4t-6 -9q-1 0 -1 -1l-2 -1q-1 0 -2 1zM1240 290q61 0 21 -204q-8 -45 -2 -48q10 -4 37 24q41 44 91 113q17 23 19 25 h6q-3 -3 -27 -36q-51 -73 -99 -115q-19 -19 -28 -17h-4q-34 12 -27 116q7 72 10 92q7 47 -4 44q-7 -2 -19 -28q-9 -22 -26 -73t-22 -65q-8 -5 -22 4t-17 16q5 8 7.5 43t-7.5 42q-11 4 -72 -14q-84 -27 -153 -47q-75 -23 -103 -31q-145 -44 -294 -71q-208 -39 -328 -3 q-66 20 -96 42q-27 19 -27 36q-2 10 7 10q11 0 14 -10q0 -3 -1 -6q-25 -2 7 -24q38 -26 109 -42.5t140 -15.5q180 2 467 88q45 13 137.5 41.5t120.5 36.5q62 20 78 16q16 -5 25 -24q10 -19 10 -43q0 -26 -1 -31q3 9 12 39q16 65 40 103q11 16 21 17z" horiz-adv-x="1406"/>
<glyph unicode="Ò" glyph-name="Ograve" d="M1150 200q-10 -14 -46.5 -20.5t-72.5 -4.5q-7 -61 -41 -101q-18 -19 -37 -19q-30 0 -54.5 22.5t-24.5 49.5q0 25 25 44q-28 -8 -124.5 -36.5t-146 -42t-130 -33t-147.5 -30.5q-81 -15 -147 -15q-60 0 -113 21t-77 54q-14 19 -14 27t6 11.5t13 -2.5q9 -9 1 -16 q-15 -2 2 -23q25 -29 81.5 -46.5t117.5 -17.5q59 1 131 12.5t106.5 19.5t128.5 33.5t102 27.5q186 55 230 65q3 0 7 1t7 2q11 0 17 -19q-17 -5 -27.5 -41t3.5 -53q19 -16 35 -10t30 29t23 45.5t12 40.5q-98 7 -126 55q-5 7 -5 18q-3 24 19 37.5t51 13.5q38 0 54.5 -27 t14.5 -71q0 -5 -1 -10.5t-1 -10.5q32 -3 68 2.5t44 19.5zM1027 181q9 89 -38 107q-32 10 -51 -17t1 -53q23 -30 88 -37zM942 363q2 5 8 15t11 10q2 0 5 -3q1 -3 14.5 -32t14.5 -32q-1 0 -2.5 -1t-2.5 -1q-5 7 -23 20q-21 15 -25 24z" horiz-adv-x="1142"/>
<glyph unicode="Ó" glyph-name="Oacute" d="M1149 200q-10 -15 -46 -21.5t-73 -3.5q-7 -61 -41 -101q-18 -19 -37 -19q-29 0 -54 23t-25 49q0 25 25 44q-33 -9 -126 -36.5t-144.5 -42t-131 -33.5t-146.5 -30q-80 -15 -147 -15q-60 0 -113 21t-77 54q-22 28 -10 37q7 7 14.5 -1t2.5 -16q-16 -2 1 -23 q25 -29 81.5 -46.5t117.5 -17.5q106 2 277 43q58 14 125.5 32.5t146.5 41t119 33.5q29 9 44 11q11 0 17 -19q-18 -5 -27.5 -41t4.5 -53q29 -35 59 12t40 93q-99 8 -126 55q-5 7 -5 18q-2 10 2 16q16 35 68 35q38 0 54.5 -27t14.5 -71l-2 -21q32 -3 68 2.5t44 19.5q1 -1 3 -1 q2 -1 3 -1zM1026 181q9 89 -38 107q-31 11 -50.5 -16.5t0.5 -53.5q23 -30 88 -37zM972 317q3 9 17 38t18 29q8 0 17 -26q-4 -10 -24 -24q-18 -13 -23 -20q-2 0 -5 3z" horiz-adv-x="1142"/>
<glyph unicode="Ô" glyph-name="Ocircumflex" d="M895 248q0 24 20.5 37.5t50.5 13.5q38 0 54.5 -27t14.5 -71q-1 -5 -1 -10.5t-1 -10.5q32 -3 68 2.5t44 19.5l6 -2q-10 -14 -46.5 -20.5t-72.5 -4.5q-7 -62 -42 -101q-16 -19 -36 -19q-30 0 -54.5 22.5t-24.5 49.5t24 43q-3 0 -5 -1q-34 -9 -207 -60q-194 -56 -335 -80 q-81 -15 -147 -15q-60 0 -112.5 21t-78.5 54q-13 19 -14 27q0 8 6.5 11.5t13.5 -2.5q8 -9 1 -16q-15 -2 2 -23q25 -29 81 -46.5t117 -17.5q103 2 278 43q81 19 178 47q38 10 106 30t107 30q20 7 31 8q8 2 13 3q6 0 11 -6.5t5 -12.5q-17 -5 -27 -41t4 -53q28 -34 61 14t38 91 q-99 8 -125 55q-4 6 -6 18zM1027 181q9 88 -37 107q-31 11 -51.5 -17t1.5 -53q23 -30 87 -37zM921 320q6 8 24.5 31t28.5 36q10 -12 47 -57q-6 -6 -17 -10q-5 -2 -11 -4l-6 -1q-19 42 -23 51q-15 -20 -38 -49q-1 -1 -3 1z" horiz-adv-x="1142"/>
<glyph unicode="Õ" glyph-name="Otilde" d="M895 248q0 24 20.5 37.5t50.5 13.5q38 0 54.5 -27t14.5 -71q-1 -5 -1 -10.5t-1 -10.5q32 -3 68 2.5t44 19.5l6 -2q-10 -14 -46.5 -20.5t-72.5 -4.5q-7 -62 -42 -101q-16 -19 -36 -19q-30 0 -54.5 22.5t-24.5 49.5t24 43q-3 0 -5 -1q-34 -9 -207 -60q-194 -56 -335 -80 q-81 -15 -147 -15q-60 0 -112.5 21t-78.5 54q-13 19 -14 27q0 8 6.5 11.5t13.5 -2.5q8 -9 1 -16q-15 -2 2 -23q25 -29 81 -46.5t117 -17.5q103 2 278 43q81 19 178 47q38 10 106 30t107 30q20 7 31 8q8 2 13 3q6 0 11 -6.5t5 -12.5q-17 -5 -27 -41t4 -53q28 -34 61 14t38 91 q-99 8 -125 55q-4 6 -6 18zM1027 181q9 88 -37 107q-31 11 -51.5 -17t1.5 -53q23 -30 87 -37zM896 321q0 17 9 28.5t27 11.5q11 0 30 -8.5t30.5 -12t27.5 5.5q4 5 4 8h3q1 0 2 -1v-1q0 -16 -11 -28t-28 -12q-9 0 -29 9t-32 12.5t-24 -4.5q-4 -4 -4 -7q-1 0 -1 -1l-2 -1 q-1 0 -2 1z" horiz-adv-x="1142"/>
<glyph unicode="Ö" glyph-name="Odieresis" d="M896 248q0 24 20.5 37.5t50.5 13.5q37 0 54 -27t15 -71q0 -5 -1 -10.5t-1 -10.5q33 -3 68 2.5t44 19.5q1 -1 3 -1q2 -1 3 -1q-10 -14 -46.5 -20.5t-72.5 -4.5q-7 -62 -42 -101q-18 -19 -37 -19q-29 0 -53.5 22.5t-24.5 49.5t24 43q-3 0 -5 -1q-32 -8 -63.5 -17t-73.5 -22 t-71 -21q-200 -58 -335 -80q-80 -15 -147 -15q-59 0 -112 21.5t-78 53.5q-13 19 -14 27q0 8 6.5 11.5t13.5 -2.5q8 -8 0 -16q-14 -1 3 -23q25 -29 81 -46.5t117 -17.5q54 1 130 14q84 13 174 35.5t203 55t162 45.5q20 7 31 8q8 2 13 3q6 0 11 -6.5t5 -12.5q-17 -5 -27 -41 t4 -53q25 -30 53 4.5t40 71.5q1 2 6 29q-101 14 -126 55q-3 6 -5 18zM1028 181q9 88 -37 107q-32 11 -52 -16t1 -54q28 -31 88 -37zM938 317q-14 0 -14 15q0 5 4.5 11.5t9.5 3.5q5 0 9.5 -5t4.5 -11q0 -5 -4.5 -9.5t-9.5 -4.5zM978 332q4 15 13 15q5 0 10 -5.5t5 -10.5 q1 -4 -3 -8.5t-7 -5.5h-4q-14 0 -14 15z" horiz-adv-x="1142"/>
<glyph unicode="×" glyph-name="multiply" d="M38 188q6 6 41.5 44.5t51.5 57.5q3 3 6 6.5t5 5.5t3.5 4t2.5 3l2 2l1 1q6 -2 7 -6q0 -4 1 -6q0 -4 -23 -29q-11 -12 -43.5 -46t-46.5 -51q-6 5 -8 14zM38 301q0 9 7 12l3 -3q2 -3 6.5 -8.5t10.5 -11.5q14 -16 47 -51.5t47 -50.5q-4 -11 -9 -13q-15 17 -47 51.5t-42 45.5 q-5 6 -11 12t-8.5 9t-3.5 4v4z" horiz-adv-x="208"/>
<glyph unicode="Ø" glyph-name="Oslash" d="M896 248q0 24 20.5 37.5t50.5 13.5q16 0 32 -7.5t22 -19.5q64 139 69 150q2 0 11 -9q-4 -9 -73 -155q0 -1 1 -2q8 -27 7 -55q0 -5 -1 -10.5t-1 -10.5q33 -3 68 2.5t44 19.5q1 -1 3 -1q2 -1 3 -1q-10 -14 -46.5 -20.5t-72.5 -4.5q-7 -62 -42 -101q-18 -19 -37 -19 q-5 0 -20 5q-5 -12 -15.5 -33t-14.5 -30q-16 -33 -16 -36q-8 0 -10 12q4 8 43 92q-45 23 -45 62q0 27 24 43q-3 0 -5 -1q-32 -8 -63.5 -17t-73.5 -22t-71 -21q-200 -58 -335 -80q-80 -15 -147 -15q-59 0 -112 21.5t-78 53.5q-13 19 -14 27q0 8 6.5 11.5t13.5 -2.5 q8 -8 0 -16q-14 -1 3 -23q25 -29 81 -46.5t117 -17.5q54 1 130 14q84 13 174 35.5t203 55t162 45.5q20 7 31 8q8 2 13 3q6 0 11 -6.5t5 -12.5q-16 -5 -26.5 -38.5t0.5 -52.5q11 20 42 87l11 24q-77 19 -82 64zM996 223l21 42q-9 19 -29.5 24t-41.5 -10q-14 -12 -15.5 -29.5 t9.5 -31.5q19 -21 40 -28zM1027 175q-24 4 -35 6l-17 -35q-12 -25 -39 -83q19 -19 49 16q30 36 42 96zM1005 208l-10 -21q17 -5 33 -6q5 41 -4 68q-7 -13 -19 -41z" horiz-adv-x="1142"/>
<glyph unicode="Ù" glyph-name="Ugrave" d="M930 271q41 0 33 -76l-4 -35q-6 -44 -7 -56q-2 -26 14 -26q10 0 24 25q40 66 53 119q5 6 18 -2t18 -14q0 -16 1 -34q0 -52 8 -95q6 -18 12.5 -18t21.5 15q36 36 96 125h6q-48 -74 -94 -122q-22 -23 -35 -23h-2q-36 9 -44 73q-6 28 -6 53q-1 16 -1 25q-4 -8 -12.5 -29.5 t-12.5 -30.5q-32 -72 -53 -72q-72 -4 -28 159q1 3 1 4q6 24 0 29q-16 7 -73 -11q-35 -12 -139.5 -50.5t-183 -63.5t-152.5 -41q-77 -18 -146 -18q-65 0 -126.5 20.5t-97.5 51.5q-1 1 -6 5.5t-7 6.5t-5.5 6t-5 6.5t-3 6.5t-1.5 8q0 15 12 11q12 -3 8 -13l-1 -3q-22 -2 7 -27 q33 -30 94.5 -51t124.5 -21q119 1 307 59q53 16 162 56t155 54q47 14 70 14zM974 325q8 25 17 25q5 0 18.5 -29t16.5 -38q-3 -3 -5 -3q-2 5 -23 20q-19 14 -24 25z" horiz-adv-x="1217"/>
<glyph unicode="Ú" glyph-name="Uacute" d="M929 271q43 0 35 -76l-4 -35q0 -2 -1 -7q-13 -74 8 -75q20 0 52 77q20 48 25 67q5 6 18 -2t18 -14v-26q5 -118 19 -120q8 -2 24 14q36 36 96 125h6q-49 -73 -94 -122q-22 -23 -35 -23h-3q-49 12 -49 126q-1 16 -1 25q-4 -8 -12.5 -29.5t-12.5 -30.5q-32 -72 -53 -72 q-72 -4 -28 159q1 3 1 4q6 24 0 29q-9 5 -31 0q-28 -6 -51 -14q-47 -15 -140 -49.5t-174 -60.5t-152 -42q-76 -18 -146 -18q-69 0 -131 21t-98 55q-23 21 -23 35q0 8 5.5 11.5t11.5 -2.5q7 -7 1 -14q-22 -2 7 -27q33 -30 95 -51t125 -21q69 1 149.5 17.5t126.5 31t129 43.5 q16 6 103.5 37t124.5 43q34 11 59 11zM1040 361q5 0 11 -9.5t8 -14.5q-4 -9 -25 -25q-18 -13 -23 -20q-2 0 -5 3q1 4 14.5 32t14.5 31q3 3 5 3z" horiz-adv-x="1217"/>
<glyph unicode="Û" glyph-name="Ucircumflex" d="M930 271q41 0 33 -76l-4 -35q-6 -44 -7 -56q-2 -26 14 -26q10 0 24 25q40 66 53 119q5 6 18 -2t18 -14q0 -16 1 -34q0 -52 8 -95q6 -18 12.5 -18t21.5 15q36 36 96 125h6q-48 -74 -94 -122q-22 -23 -35 -23h-2q-36 9 -44 73q-6 28 -6 53q-1 16 -1 25q-4 -8 -12.5 -29.5 t-12.5 -30.5q-32 -72 -53 -72q-72 -4 -28 159q1 3 1 4q6 24 0 29q-16 7 -73 -11q-35 -12 -139.5 -50.5t-183 -63.5t-152.5 -41q-77 -18 -146 -18q-65 0 -126.5 20.5t-97.5 51.5q-1 1 -6 5.5t-7 6.5t-5.5 6t-5 6.5t-3 6.5t-1.5 8q0 15 12 11q12 -3 8 -13l-1 -3q-22 -2 7 -27 q33 -30 94.5 -51t124.5 -21q119 1 307 59q53 16 162 56t155 54q47 14 70 14zM971 292q6 7 23 29t29 37q0 -1 47 -56q-12 -10 -34 -15q-19 42 -23 51q-15 -20 -38 -49q-1 -1 -2 1z" horiz-adv-x="1217"/>
<glyph unicode="Ü" glyph-name="Udieresis" d="M1091 54q-45 11 -50 126q0 25 -1 26q0 -2 -8 -21q-17 -47 -44 -89q-15 -23 -26 -23q-12 -1 -21 2.5t-13.5 11.5t-7.5 16.5t-3 21.5t0.5 23t3.5 25t5 23.5t5 22t4 17.5q6 23 -0.5 28.5t-29.5 0.5q-28 -6 -51 -14q-31 -10 -139 -51q-187 -71 -328 -101q-77 -18 -145 -18 q-69 0 -131.5 21t-97.5 55q-23 21 -23 35q0 7 5.5 11t10.5 -2q7 -7 2 -14q-22 -2 7 -27q34 -30 95 -51t125 -21q79 2 150 18q75 16 156.5 41.5t181 61.5t144.5 51q34 11 60 11q33 0 36 -42q0 -24 -5.5 -67t-6.5 -58q-2 -26 13 -26q4 0 9 3t9.5 9t8 12t8 14.5t7 14t6 14 t4.5 10.5q12 26 26 67q5 5 16 -1q11 -4 19 -15q0 -82 10 -129q5 -19 12 -18t21 15q39 39 97 125h5q-59 -88 -102 -130q-16 -15 -27 -15h-2zM986 285q-5 0 -9.5 4.5t-4.5 10.5q0 5 4 11t9 3q6 0 10.5 -4.5t4.5 -10.5q0 -5 -4.5 -9.5t-9.5 -4.5zM1040 285q-14 0 -14 15 q0 14 14 14q10 0 15 -16q0 -9 -11 -13h-4z" horiz-adv-x="1217"/>
<glyph unicode="Ý" glyph-name="Yacute" d="M1167 261q-11 -24 -7 -96q0 -21 1 -31q4 3 12.5 7.5t12.5 6.5q60 33 80 53q2 0 5 -1q-16 -19 -80 -54q-3 -2 -9.5 -5.5t-11.5 -6.5t-9 -6q6 -118 -6 -190t-64 -105q-26 -16 -47 -16q-38 0 -55 26t-10 68q23 113 157 207q0 24 -8 128q-1 -1 -7 -16q-8 -21 -16 -34 q-28 -63 -49 -63q-26 2 -31 23q-6 21 3 50q9 27 -3 30q-17 4 -60 -9q-5 -1 -265 -91q-161 -53 -287 -70q-41 -6 -99 -6q-79 0 -150 27t-110 68q-25 28 -25 39q0 17 14 9q12 -8 6 -15q-19 -1 9 -31q23 -24 69.5 -45.5t95.5 -34.5q39 -10 88 -10q133 -1 311 51q109 32 176 56 q136 50 196 63q23 6 38 3t21 -18q11 -23 6 -53q-4 -44 13 -24q10 11 23 38q9 17 20 46q11 23 12 28q7 10 20 12h4q11 0 16 -8zM1136 112q-78 -57 -118 -118q-25 -35 -32 -78q-9 -50 10 -67q20 -20 58 1q36 22 59 79q23 61 23 183zM1079 289q3 8 17 37t18 29t10 -10t8 -15 q-4 -9 -25 -24q-20 -14 -22 -20q-3 0 -6 3z" horiz-adv-x="1265"/>
<glyph unicode="ß" glyph-name="germandbls" horiz-adv-x="1035"/>
<glyph unicode="à" glyph-name="agrave" d="M552 231q11 0 20 -6t12 -9.5t10 -14.5q0 -5 -4 -5q-4 1 -5.5 3t-4.5 7.5t-5 8.5q-8 13 -22 13q-11 0 -19 -4q-24 -15 -37.5 -53.5t-11.5 -81.5q3 -43 27 -14q11 13 21 37q21 56 24 62q11 9 23 3t18 -15q0 -17 -6.5 -57.5t-6.5 -56.5q0 -18 5 -22.5t11.5 0.5t17.5 17 q55 65 111 158q1 -1 5 -1q-4 -7 -16 -27q-43 -67 -90 -125q-27 -31 -40 -31l-1 1q-13 0 -21 9.5t-10.5 28t-3 33.5t0.5 38.5t1 29.5q-3 -6 -8.5 -22t-9.5 -23q-24 -55 -45 -53q-21 3 -33 21t-12 45q0 15 9 47q-72 -81 -164 -110q-33 -11 -67 -11h-1q-75 2 -125.5 32 t-68.5 85q-8 27 -8 50v6q2 55 38 92.5t92 37.5h1q99 0 118 -69q10 -45 -16.5 -78t-71.5 -31q-27 2 -44.5 16.5t-17.5 38.5q2 19 10 22q11 3 13 -7.5t-6 -13.5q-6 4 -9.5 1.5t-2.5 -9.5q1 -17 16.5 -30t36.5 -13q28 -2 46 21q20 27 21 62.5t-21 61.5q-27 27 -74 26 q-53 -1 -87 -38t-36 -91q0 -104 99 -146q37 -17 97 -17q65 0 128 35t112 90q27 46 81 46h7zM532 331q-10 0 -18 -24q5 -11 24 -25q22 -15 24 -19q1 0 4 3q0 2 -14 30.5t-15 31.5q-3 3 -5 3z" horiz-adv-x="731"/>
<glyph unicode="á" glyph-name="aacute" d="M552 231q11 0 20 -6t12 -9.5t10 -14.5q0 -5 -4 -5q-4 1 -5.5 3t-4.5 7.5t-5 8.5q-8 13 -22 13q-11 0 -19 -4q-24 -15 -37.5 -53.5t-11.5 -81.5q3 -43 27 -14q11 13 21 37q21 56 24 62q11 9 23 3t18 -15q0 -17 -6.5 -57.5t-6.5 -56.5q0 -18 5 -22.5t11.5 0.5t17.5 17 q55 65 111 158q1 -1 5 -1q-4 -7 -16 -27q-43 -67 -90 -125q-27 -31 -40 -31l-1 1q-13 0 -21 9.5t-10.5 28t-3 33.5t0.5 38.5t1 29.5q-3 -6 -8.5 -22t-9.5 -23q-24 -55 -45 -53q-21 3 -33 21t-12 45q0 26 9 44q-15 -15 -25 -26q-57 -62 -147 -92q-33 -11 -67 -11h-1 q-113 2 -165 66q-35 43 -37 98q0 60 35.5 100t94.5 40h1q54 0 89.5 -26t31.5 -72q-3 -32 -25 -56q-22 -20 -56.5 -24t-58.5 21q-14 16 -13 34q0 18 10 21q9 3 12 -7t-5 -13q-13 8 -13 -9q1 -17 16.5 -29.5t36.5 -14.5q36 0 55.5 36t9.5 77q-19 59 -92 59q-66 -2 -101.5 -58 t-13.5 -124q17 -53 66 -82t121 -29q64 0 128 36q61 34 119 97q25 50 83 50h7zM586 309q-8 24 -18 24q-5 0 -18.5 -28t-16.5 -38l2 -2q1 -1 4 -1q2 3 23 19q19 13 24 26z" horiz-adv-x="731"/>
<glyph unicode="â" glyph-name="acircumflex" d="M552 231q11 0 20 -6t12 -9.5t10 -14.5q0 -5 -4 -5q-4 1 -5.5 3t-4.5 7.5t-5 8.5q-8 13 -22 13q-11 0 -19 -4q-24 -15 -37.5 -53.5t-11.5 -81.5q3 -43 27 -14q11 13 21 37q21 56 24 62q11 9 23 3t18 -15q0 -17 -6.5 -57.5t-6.5 -56.5q0 -18 5 -22.5t11.5 0.5t17.5 17 q55 65 111 158q1 -1 5 -1q-4 -7 -16 -27q-43 -67 -90 -125q-27 -31 -40 -31l-1 1q-13 0 -21 9.5t-10.5 28t-3 33.5t0.5 38.5t1 29.5q-3 -6 -8.5 -22t-9.5 -23q-24 -55 -45 -53q-21 3 -33 21t-12 45q0 11 7 39q-3 -3 -12 -12.5t-16 -16.5q-59 -62 -147 -92q-30 -10 -67 -10 h-1q-111 0 -165 66q-36 43 -36 98q0 60 35 99.5t94 39.5h2q54 0 89 -26t31 -72q-3 -36 -28 -58.5t-64 -21.5q-27 0 -44.5 16t-16.5 40q1 17 10 20q6 2 9.5 -2t2.5 -10t-5 -7q-13 8 -13 -10q1 -17 17 -30t37 -13q31 0 50 27t18 62t-22 57q-25 26 -74 25q-67 -2 -102 -57.5 t-13 -124.5q8 -25 29 -47q51 -63 158 -63q60 0 128 35q68 37 121 100l5 9q27 46 81 46h7zM504 271q19 23 53 65q2 -3 18.5 -22.5t28.5 -34.5q-11 -11 -34 -14l-8 18q-9 18 -15 32q-11 -13 -24 -31q-14 -19 -17 -16q-1 1 -2 3z" horiz-adv-x="731"/>
<glyph unicode="ã" glyph-name="atilde" d="M552 231q11 0 20 -6t12 -9.5t10 -14.5q0 -5 -4 -5q-4 1 -5.5 3t-4.5 7.5t-5 8.5q-8 13 -22 13q-11 0 -19 -4q-24 -15 -37.5 -53.5t-11.5 -81.5q3 -43 27 -14q11 13 21 37q21 56 24 62q11 9 23 3t18 -15q0 -17 -6.5 -57.5t-6.5 -56.5q0 -18 5 -22.5t11.5 0.5t17.5 17 q55 65 111 158q1 -1 5 -1q-4 -7 -16 -27q-43 -67 -90 -125q-27 -31 -40 -31l-1 1q-13 0 -21 9.5t-10.5 28t-3 33.5t0.5 38.5t1 29.5q-3 -6 -8.5 -22t-9.5 -23q-24 -55 -45 -53q-21 3 -33 21t-12 45q0 14 5 32l4 13q-3 -3 -11.5 -12t-15.5 -16q-58 -63 -147 -92 q-33 -11 -67 -11h-1q-75 0 -125 30.5t-68 86.5q-8 27 -8 50v6q2 56 38 93.5t92 37.5h1q53 0 88.5 -26t31.5 -72q-3 -36 -28 -59t-64 -22q-25 0 -43 16.5t-18 39.5q2 18 10 21q10 3 13 -7t-6 -13q-6 4 -9.5 1.5t-2.5 -10.5q0 -17 16 -29.5t37 -14.5q31 0 50 27t18 62t-22 57 q-26 26 -73 26q-66 -2 -102 -58t-14 -124q17 -53 66.5 -82t120.5 -29q64 0 128 36q53 29 87 63l15 15t14 14.5t7 9.5q27 46 81 46h7zM485 272q0 40 36 40q10 -1 29.5 -9.5t30.5 -11t27 5.5q5 7 5 8h3q1 0 2 -1v-1q0 -16 -11 -27.5t-28 -11.5q-9 0 -29 8.5t-32 12t-24 -4.5 q-4 -4 -4 -7q0 -1 -1 -1t-2 -1q-1 0 -2 1z" horiz-adv-x="731"/>
<glyph unicode="ä" glyph-name="adieresis" d="M552 231q11 0 20 -6t12 -9.5t10 -14.5q0 -5 -4 -5q-4 1 -5.5 3t-4.5 7.5t-5 8.5q-8 13 -22 13q-11 0 -19 -4q-24 -15 -37.5 -53.5t-11.5 -81.5q3 -43 27 -14q11 13 21 37q21 56 24 62q11 9 23 3t18 -15q0 -17 -6.5 -57.5t-6.5 -56.5q0 -18 5 -22.5t11.5 0.5t17.5 17 q55 65 111 158q1 -1 5 -1q-4 -7 -16 -27q-43 -67 -90 -125q-27 -31 -40 -31l-1 1q-13 0 -21 9.5t-10.5 28t-3 33.5t0.5 38.5t1 29.5q-3 -6 -8.5 -22t-9.5 -23q-24 -55 -45 -53q-21 3 -33 21t-12 45q0 11 7 41q-84 -92 -176 -123q-30 -10 -67 -10h-1q-111 0 -165 66 q-36 43 -36 98q-1 60 34.5 99.5t94.5 39.5h1q54 0 89.5 -26t31.5 -72q-3 -36 -28 -58.5t-64 -21.5q-27 0 -44.5 16t-16.5 40q0 17 10 20q6 2 9.5 -2t2.5 -10t-5 -7q-13 8 -13 -10q1 -17 17 -30t37 -13q31 0 50 27t18 62t-22 57q-25 26 -74 25q-67 -2 -102 -57.5t-13 -124.5 q17 -52 66.5 -81t120.5 -29q60 0 128 35q86 45 127 109q27 46 81 46h7zM562 272q0 -14 14 -14q5 0 9.5 4t4.5 9q0 12 -15 17q-13 0 -13 -16zM508 273q0 -14 13 -14q5 0 10 4t5 9q-8 16 -15 16h-3q-10 -5 -10 -15z" horiz-adv-x="731"/>
<glyph unicode="å" glyph-name="aring" d="M552 231q11 0 20 -6t12 -9.5t10 -14.5q0 -5 -4 -5q-4 1 -5.5 3t-4.5 7.5t-5 8.5q-8 13 -22 13q-11 0 -19 -4q-24 -15 -37.5 -53.5t-11.5 -81.5q3 -43 27 -14q11 13 21 37q21 56 24 62q11 9 23 3t18 -15q0 -17 -6.5 -57.5t-6.5 -56.5q0 -18 5 -22.5t11.5 0.5t17.5 17 q55 65 111 158q1 -1 5 -1q-4 -7 -16 -27q-43 -67 -90 -125q-27 -31 -40 -31l-1 1q-13 0 -21 9.5t-10.5 28t-3 33.5t0.5 38.5t1 29.5q-3 -6 -8.5 -22t-9.5 -23q-24 -55 -45 -53q-21 3 -33 21t-12 45q0 14 5 32v2q-83 -92 -177 -124q-30 -10 -67 -10h-2q-75 0 -124.5 31 t-68.5 87q-8 26 -8 48v6q2 56 38 93.5t92 37.5h1q47 0 78.5 -17.5t39.5 -51.5q5 -16 2 -32q-3 -32 -29 -55t-62 -22q-27 0 -44.5 16t-16.5 40q0 18 10 21q6 2 9.5 -2.5t2.5 -10.5t-5 -7q-7 4 -10.5 1t-2.5 -11q1 -17 16.5 -30t36.5 -13q47 0 63.5 56t-17.5 90q-25 26 -73 25 q-67 -2 -101.5 -57t-12.5 -124q17 -53 66 -82t120 -29q60 0 128 35q80 45 122 102q23 61 89 61h7zM550 313q-14 0 -26 -9t-12 -23q0 -11 11.5 -19t23.5 -9h3q11 0 19.5 9t10.5 19v4q0 12 -8.5 19.5t-20.5 8.5h-1zM532 282q0 9 7 18t15 9q7 0 13.5 -8t6.5 -16q-1 -1 -1 -3 q-1 -9 -7.5 -17t-14.5 -8h-2q-7 1 -12 8.5t-5 15.5v1z" horiz-adv-x="731"/>
<glyph unicode="æ" glyph-name="ae" d="M485 59q-45 6 -45 66q-1 13 4 32l4 14q-78 -78 -157 -103q-30 -10 -67 -10h-1q-111 1 -164 66q-38 44 -38 99q0 59 35.5 98.5t94.5 39.5h1q54 0 89.5 -25.5t31.5 -71.5q-3 -35 -25 -55q-24 -26 -66 -26q-27 2 -44.5 17t-16.5 38q0 19 10 22t12 -7.5t-6 -13.5 q-6 4 -9.5 1.5t-2.5 -10.5q1 -17 16.5 -29.5t36.5 -12.5q32 -1 50.5 27.5t17.5 64.5q-2 37 -28.5 58t-67.5 20q-56 -1 -88 -41q-34 -41 -33 -95t34 -94q24 -27 63 -45q42 -17 97 -17q64 0 128 36q53 28 86 62l17 18q34 49 83 49h7q22 -1 31 -13q21 27 52 27h2q20 0 32.5 -10 t-5.5 -27q-19 -14 -46 -14q-9 -17 -16 -41t-4 -50t24 -32q9 -1 19 0q8 1 17 4t15 6t15 9.5t13 9.5t13 11t11 10q30 28 48 49q17 20 21 27h4q1 0 3 -2q-5 -5 -31.5 -34.5t-41.5 -42.5q-53 -46 -88 -53h-8q-36 0 -55 26.5t-22 64.5q-10 -41 -38 -82q-12 -15 -23 -15h-1z M570 211q-8 17 -25 17q-45 0 -63 -85q-3 -12 -4.5 -28.5t0.5 -33t10 -17.5q9 -1 18 11t19 37q21 50 24 62q3 4 8 6q5 18 13 31zM651 212q20 17 3 23q-18 6 -41 -35q25 0 38 12z" horiz-adv-x="789"/>
<glyph unicode="ç" glyph-name="ccedilla" d="M127 207q0 -18 16 -31t37 -13q46 0 63 56.5t-17 89.5q-25 26 -74 25q-67 -2 -102 -57.5t-13 -123.5q10 -29 28 -49q51 -62 159 -62q60 0 128 35q50 27 86 63q34 36 36 38q18 51 61 55h4q18 0 29 -8t5 -24q-4 -10 -7.5 -14t-7.5 -3q-4 0 -3 3l4 3q4 0 8 7.5t3 16.5t-8 11 q-12 4 -23 -9t-16.5 -27t-9.5 -30q-11 -37 -9 -72q0 -22 7 -32.5t19.5 -9t25.5 7t28 17.5t23 19l16 14q67 64 88 97q1 1 4 1q1 0 2 -1q-7 -7 -25 -31q-66 -83 -129 -117q-15 -7 -31 -10q1 -7 21 -17q30 -15 30 -54q0 -27 -18 -42t-45 -15h-1q-25 0 -43.5 14.5t-18.5 37.5 q0 22 23.5 34.5t39.5 -4.5q8 -8 5 -16q-1 -4 -5 -1t-2 6q6 2 -1 9q-14 12 -28 5t-20 -23q-7 -21 8 -42q17 -23 51 -11q30 15 28.5 45t-25.5 51q-21 18 -17 25q-23 5 -36.5 28t-13.5 52q0 7 3 21.5t3 22.5q-78 -94 -177 -123q-33 -11 -67 -11h-1q-109 0 -165 66 q-37 45 -37 98q0 60 35 99.5t94 39.5h2q54 0 89 -26t31 -72q-3 -35 -28 -58t-63 -22q-27 0 -44.5 16t-16.5 40q1 17 10 20q7 2 10.5 -2t2.5 -9.5t-6 -7.5q-6 4 -9.5 1.5t-2.5 -10.5z" horiz-adv-x="712"/>
<glyph unicode="è" glyph-name="egrave" d="M163 173q48 -3 63.5 55t-17.5 90q-26 27 -73 26q-66 -2 -101.5 -58t-13.5 -124q17 -52 66.5 -81t120.5 -29q65 0 128 35q71 38 125 103q0 3 1 4q18 55 63 55h3q21 0 34 -10t-5 -27q-19 -14 -45 -14q-9 -18 -14 -39t0 -41.5t23 -25.5q19 -5 41 4q51 24 99 75q7 8 13.5 15 t10 10t3.5 4q1 1 3 1l2 -2q-1 -1 -27 -30q-54 -58 -104 -77q-14 -7 -29 -7q-32 0 -53.5 23.5t-21.5 56.5q0 12 1 18q-1 -1 -35 -37q-59 -63 -147 -92q-33 -11 -67 -11h-1q-112 1 -165 66q-36 43 -36 99q-1 59 34.5 99t94.5 40h1q56 0 91.5 -26.5t29.5 -76.5q-5 -39 -43 -64 t-78 -5q-33 18 -32 49q0 18 10 21q9 3 11.5 -7t-4.5 -13q-13 8 -13 -9q1 -17 16.5 -30t36.5 -13zM499 322q0 3 7 14.5t12 10.5q1 0 4 -3q0 -2 15 -31.5t15 -31.5q-3 -3 -5 -3q-4 5 -24 20q-20 14 -24 24zM553 216q20 17 2 23q-11 3 -22.5 -9t-17.5 -26q21 -1 38 12z" horiz-adv-x="688"/>
<glyph unicode="é" glyph-name="eacute" d="M117 229q1 -17 16.5 -29.5t36.5 -14.5q36 0 55.5 36t9.5 77q-19 58 -92 58q-66 -2 -101.5 -57.5t-13.5 -123.5q17 -53 66 -82.5t121 -29.5q62 0 128 37q73 39 120 98q20 51 62 51h3q21 0 34 -10t-5 -27q-19 -14 -45 -14q-9 -18 -14 -39t0 -41.5t23 -25.5q19 -5 41 4 q51 24 99 75q7 8 13.5 15t10 10t3.5 4q1 1 3 1l2 -2q-1 -1 -27 -30q-54 -58 -104 -77q-14 -7 -29 -7q-32 0 -53.5 23.5t-21.5 56.5q0 12 3 24q-17 -17 -30 -31q-59 -63 -147 -92q-30 -10 -67 -10h-1q-113 2 -165 66q-35 43 -37 98q0 60 35.5 99.5t94.5 39.5h1 q47 0 78.5 -17.5t39.5 -51.5q5 -18 2 -33q-4 -39 -42 -64t-78 -5q-33 18 -32 48q0 19 10 22q9 3 12 -7.5t-5 -13.5q-13 8 -13 -8zM581 318q-2 5 -8 15t-11 10q-4 0 -18.5 -30t-15.5 -37l2 -2q2 0 3 -1q5 7 24 21q20 16 24 24zM553 216q20 17 2 23q-11 3 -22.5 -9t-17.5 -26 q21 -1 38 12z" horiz-adv-x="688"/>
<glyph unicode="ê" glyph-name="ecircumflex" d="M173 192q32 0 50.5 27.5t17 62.5t-21.5 56q-25 26 -73 25q-58 -2 -90 -40q-33 -40 -34 -88q0 -101 99 -146q39 -18 97 -18q60 0 128 35q71 38 119 98q20 45 60 45h3q21 0 34 -10t-5 -27q-19 -14 -45 -14q-9 -18 -14 -39t0 -41.5t23 -25.5q19 -5 41 4q51 24 99 75 q7 8 13.5 15t10 10t3.5 4q1 1 3 1l2 -2q-1 -1 -27 -30q-54 -58 -104 -77q-14 -7 -29 -7q-32 0 -53.5 23.5t-21.5 56.5q0 16 4 29v1q-85 -93 -176 -122q-30 -10 -67 -10h-1q-87 0 -144 44.5t-57 120.5q0 60 35 99t94 39h1q54 0 90 -25.5t32 -71.5q-3 -35 -28.5 -59t-63.5 -22 q-26 0 -44 15.5t-18 39.5q2 19 10 22q7 2 10.5 -2.5t2.5 -10.5t-6 -7q-6 4 -9.5 1t-2.5 -11q1 -17 16.5 -30t36.5 -13zM486 286q6 8 24.5 31t28.5 36q10 -12 47 -57q-7 -9 -33 -15q-1 2 -9.5 19.5t-14.5 31.5q-15 -20 -38 -49q-1 -1 -5 3zM553 216q20 17 2 23 q-11 3 -22.5 -9t-17.5 -26q21 -1 38 12z" horiz-adv-x="688"/>
<glyph unicode="ë" glyph-name="edieresis" d="M168 169q-27 0 -44.5 16t-17.5 40q2 18 10 21q10 3 13 -7t-6 -13q-6 4 -9.5 1.5t-2.5 -10.5q1 -18 16.5 -31t36.5 -13q31 0 50 27t18 62t-22 57q-26 26 -73 25q-53 -1 -87 -38t-36 -90q0 -103 98 -147q37 -17 97 -17q62 0 128 35q50 27 86 63q31 30 38 41q0 2 1 3 q18 55 63 55h3q21 0 34 -10t-5 -27q-19 -14 -45 -14q-9 -18 -14 -39t0 -41.5t23 -25.5q19 -5 41 4q51 24 99 75q7 8 13.5 15t10 10t3.5 4q1 1 3 1l2 -2q-1 -1 -27 -30q-54 -58 -104 -77q-14 -7 -29 -7q-32 0 -53.5 23.5t-21.5 56.5q0 12 1 18q-10 -10 -34 -37 q-36 -36 -87 -65q-22 -14 -61 -26q-33 -11 -67 -11h-1q-87 0 -144 44t-57 120q0 60 35.5 100t94.5 40h1q54 0 89 -25.5t32 -72.5q-3 -35 -28.5 -59t-63.5 -22zM553 216q20 17 2 23q-11 3 -22.5 -9t-17.5 -26q21 -1 38 12zM493 297q0 -6 4.5 -10.5t10.5 -4.5q5 0 9 4t4 10 t-4 11t-10 5h-4q-10 -4 -10 -15zM548 296q0 -6 4.5 -10.5t9.5 -4.5t9.5 4.5t4.5 9.5q-5 14 -14 17q-14 0 -14 -16z" horiz-adv-x="688"/>
<glyph unicode="ì" glyph-name="igrave" d="M519 61q-17 0 -26 15.5t-11 36.5v28q4 40 11 62q-104 -96 -194 -127q-36 -13 -70 -14h-20q-81 0 -135 40t-58 109v10q0 56 34.5 92.5t90.5 37.5h8q52 0 87.5 -25.5t34.5 -69.5q-1 -37 -25.5 -60.5t-62.5 -25.5q-28 0 -47 15t-19 39q-1 18 9 21q10 4 13 -6q1 -10 -5 -13 q-7 3 -10 0.5t-2 -10.5q2 -18 18.5 -30t38.5 -12q31 2 48.5 30.5t14.5 64t-25 56.5q-29 28 -76 22q-67 -5 -101 -60t-8 -122q21 -49 73 -74.5t124 -20.5q69 4 136 42q65 35 130 100q1 1 1 4q4 6 19 11q4 0 6 1q7 0 12 -8q0 -17 -11 -64t-11 -69q-1 -15 4 -19t12.5 -0.5 t18.5 12.5q48 38 91 90q23 28 24 30h6q-33 -50 -110 -118q-25 -21 -38 -21zM510 345q-5 0 -11 -10t-8 -15q4 -10 25 -25q18 -13 23 -20q2 0 5 3q-1 3 -14.5 32t-14.5 32q-3 3 -5 3z" horiz-adv-x="663"/>
<glyph unicode="í" glyph-name="iacute" d="M519 61q-17 0 -26 15.5t-11 36.5v28q1 17 7 47q0 3 1 4q-3 -3 -14.5 -13.5t-21.5 -19.5q-39 -36 -95 -67q-82 -44 -155 -44q-83 0 -136.5 41.5t-56.5 115.5v2q0 54 35.5 91.5t90.5 38.5h8q66 0 99 -36q22 -24 22 -57t-22 -57q-19 -22 -55 -28t-61 17q-14 14 -16 34 q0 19 9 22q11 5 13 -6q3 -9 -5 -14q-6 4 -9.5 1t-2.5 -11q2 -17 18.5 -29t38.5 -12q31 1 48.5 30t14.5 64.5t-25 56.5q-26 26 -76 22q-52 -5 -85.5 -41.5t-32.5 -89.5q0 -98 107 -136q39 -13 99 -10q68 5 136 43q58 31 93 64q10 10 19.5 19t14.5 13.5t6 5.5q1 9 3 14 q4 6 19 11q4 0 6 1q7 0 12 -8q0 -17 -11 -64t-11 -69q-1 -15 4 -19t12.5 -0.5t18.5 12.5q48 38 91 90q23 28 24 30h6q-33 -50 -110 -118q-25 -21 -38 -21zM548 342q10 0 18 -25q-4 -10 -24 -25q-18 -13 -23 -20q-1 1 -3 1l-2 2q1 3 14.5 32t14.5 32q3 3 5 3z" horiz-adv-x="663"/>
<glyph unicode="î" glyph-name="icircumflex" d="M519 61q-17 0 -26 15.5t-11 36.5v28q2 30 9 54q-105 -95 -194 -128q-41 -14 -90 -14q-68 0 -115.5 27.5t-67.5 75.5q-10 26 -10 54v2q0 55 35 92t90 38h8q52 0 88 -25t35 -69q-1 -36 -26 -61t-63 -25q-27 -2 -46.5 13.5t-19.5 39.5q-1 18 9 22q6 2 10 -2t3.5 -10t-5.5 -8 q-7 3 -10 0.5t-2 -10.5q2 -17 19 -29.5t38 -11.5q28 2 44 25q21 27 19.5 65.5t-25.5 60.5q-28 26 -76 22q-59 -5 -89 -45q-33 -44 -28.5 -96t40.5 -86q56 -56 165 -50q65 4 136 42q56 29 93 65q28 26 37 34q1 8 3 13q4 6 19 11q4 0 6 1q7 0 12 -8q0 -17 -11 -64t-11 -69 q-1 -15 4 -19t12.5 -0.5t18.5 12.5q48 38 91 90q23 28 24 30h6q-33 -50 -110 -118q-25 -21 -38 -21zM478 281q5 6 12.5 16t19 24.5t20.5 25.5q2 -3 18.5 -22.5t28.5 -34.5q-6 -6 -33 -15q-2 5 -23 51q-38 -47 -40 -48q-3 -2 -3 3z" horiz-adv-x="663"/>
<glyph unicode="ï" glyph-name="idieresis" d="M14 221q2 56 36 92.5t90 37.5h7q94 0 119 -66q13 -45 -13 -79t-72 -35q-27 -1 -45.5 14t-20.5 39q0 18 9 22q11 5 13 -7q2 -9 -5 -13q-6 4 -9.5 1t-2.5 -11q2 -17 19 -29.5t38 -11.5q31 1 49 30t14.5 65.5t-25.5 55.5q-26 26 -76 22q-53 -5 -86 -41.5t-32 -90.5 q0 -27 10 -50q19 -50 71 -75t125 -21q64 4 137 43q55 30 92 65q10 9 19 18t14 13.5t7 6.5q4 6 19 11q4 0 6 1q7 0 12 -8q0 -17 -11 -64t-11 -69q-1 -15 4 -19t12.5 -0.5t18.5 12.5q48 38 91 90q23 28 24 30h6q-33 -50 -110 -118q-25 -21 -38 -21q-17 0 -26 15.5t-11 36.5v28 q3 30 12 66q-11 -9 -37 -34q-70 -64 -159 -97q-41 -14 -91 -14q-83 0 -138 43.5t-55 115.5zM536 291q0 -6 4.5 -10.5t10.5 -4.5q5 0 9 4t4 10t-4 11t-10 5h-4q-10 -4 -10 -15zM482 292q0 -15 15 -15h4q10 7 10 14q0 5 -5 10.5t-10 5.5t-9.5 -4.5t-4.5 -10.5z" horiz-adv-x="663"/>
<glyph unicode="ð" glyph-name="eth" d="M572 278q31 -28 31 -82v-1q0 -72 -41 -120q-17 -20 -40 -20q-31 0 -52 24t-21 56q0 17 7 34q-36 -35 -103 -73q-60 -34 -137 -34t-129.5 37t-56.5 101v8q0 56 37.5 90.5t97.5 34.5q49 0 81 -25t29 -69q-2 -33 -26 -56t-59 -24q-25 -2 -43.5 13.5t-18.5 37.5q-2 18 9 21 q6 2 9.5 -2t3 -9.5t-5.5 -7.5q-6 3 -9 0.5t-2 -9.5q1 -17 17.5 -29t36.5 -11q30 1 47.5 29t14 62.5t-24.5 54.5q-20 19 -59.5 19.5t-66.5 -15.5q-65 -37 -61 -113q3 -47 39 -83q58 -53 158 -46q124 7 228 111q21 35 57 40q6 0 11 -6t5 -12q-18 -5 -37 -62q-6 -18 -8 -33 q-7 -35 15 -47t45 14q18 20 31 55t10.5 74.5t-28.5 60.5q-6 -8 -11 -15.5t-8 -11.5l-2 -4q-8 3 -8 10v3q4 2 20 24q-41 20 -49 14q-3 6 2 11.5t11 5.5q17 0 45 -17q2 3 39 49q5 -3 6 -12q-9 -9 -36 -45z" horiz-adv-x="713"/>
<glyph unicode="ñ" glyph-name="ntilde" d="M633 290q60 0 20 -204q-8 -45 -2 -48q10 -4 37 24q41 44 91 113q14 19 20 25h6q-7 -7 -28 -36q-53 -75 -98 -115q-18 -19 -29 -17h-4q-34 12 -27 116q5 60 11 92q7 45 -4 44q-8 -1 -20 -28q-9 -22 -25 -72t-22 -66q-8 -5 -19.5 2.5t-14.5 14.5q5 9 -0.5 38.5t-10.5 42.5 q-17 -17 -38 -37q-71 -69 -157 -101q-43 -18 -100 -18q-80 0 -131.5 40t-56.5 111v7q0 53 34 89t87 40h16q51 0 84.5 -23.5t33.5 -66.5q0 -37 -24.5 -62.5t-61.5 -26.5q-28 -1 -46.5 13.5t-20.5 37.5q-1 17 8 22q7 2 11 -2t3 -9.5t-6 -7.5q-7 3 -9.5 0t-1.5 -11 q5 -27 36 -36t54 11q28 24 29 68.5t-28 69.5q-12 12 -32 17q-38 12 -75.5 -3.5t-57.5 -41.5q-31 -48 -24 -98.5t42 -83.5q59 -54 167 -45q124 13 226 115l37 37v1q3 7 16 12.5t18 -4.5q15 -72 14 -99q1 3 4.5 15.5t6.5 23.5q16 65 40 103q11 15 22 17zM553 328q0 39 35 39 q10 0 30.5 -8.5t31.5 -12t25 6.5q6 5 6 6q1 1 3 1q1 0 2 -1v-1q0 -16 -11.5 -28t-28.5 -12q-9 0 -29 9.5t-31.5 13.5t-23.5 -5q-4 -5 -4 -8q-1 -1 -3 -1q-1 0 -2 1z" horiz-adv-x="799"/>
<glyph unicode="ò" glyph-name="ograve" d="M190 142q-26 0 -44 13.5t-18 36.5q-2 19 8 22q6 2 10 -2t3.5 -9.5t-5.5 -7.5q-6 3 -9.5 0.5t-2.5 -9.5q2 -17 18 -28.5t37 -11.5q30 2 47 29.5t14 61.5t-24 54q-20 20 -59.5 21t-66.5 -15q-66 -38 -62 -114q3 -42 32 -74t71 -45q76 -26 158.5 1t138.5 75l6 6 q6 17 25 32.5t30 0.5q6 -7 6 -11q-8 -6 -15 -36.5t-3 -46.5q8 -23 28 -25t38 19q30 36 40 86q-50 0 -87 19.5t-43 57.5q-2 28 17 45.5t50 17.5q46 0 62.5 -40.5t6.5 -95.5q34 0 69.5 8.5t43.5 24.5q1 0 7 -2q-24 -33 -117 -35h-3q-11 -56 -40 -90q-17 -20 -37 -20 q-26 0 -54 25q-26 23 -26 50v8q-93 -86 -205 -92h-20q-77 0 -129 36.5t-56 100.5v8q0 53 33.5 87t86.5 37h14q50 0 82 -24t29 -69q-2 -33 -26 -56t-59 -24zM592 170q8 41 -1.5 76t-35.5 46q-26 10 -45 -12.5t-11 -50.5q7 -27 32.5 -43t60.5 -16zM496 370q2 5 8 15t11 10 q2 0 5 -3q1 -4 14.5 -32t14.5 -32q-3 -3 -5 -3q-5 7 -23 20q-21 15 -25 25z" horiz-adv-x="713"/>
<glyph unicode="ó" glyph-name="oacute" d="M188 146q30 2 47.5 29.5t14 61.5t-24.5 54q-27 27 -74 21q-52 -3 -84.5 -39t-29.5 -90q4 -63 59 -97t127 -32.5t129 31.5q63 33 91 61q6 17 25 32.5t30 0.5q6 -7 6 -11q-4 -4 -14 -31t-4 -52q8 -23 28 -25t38 19q30 36 40 86q-50 0 -87 19.5t-43 57.5q-2 28 17 45.5 t50 17.5q46 0 62.5 -40.5t6.5 -95.5q34 0 69 9t45 24q1 0 7 -2q-8 -12 -46 -25q-29 -8 -72 -10h-3q-11 -56 -40 -90q-17 -20 -37 -20q-26 0 -54 25q-26 23 -26 50v8q-93 -86 -205 -92h-20q-77 0 -129 37t-56 100v8q0 53 33.5 87t86.5 37h14q50 0 82 -24t29 -69 q-2 -33 -26 -56t-59 -24q-26 0 -44 13.5t-18 36.5q-2 19 8 22q6 2 10 -2t3.5 -9.5t-5.5 -7.5q-6 3 -9 0.5t-2 -9.5q1 -17 17 -28.5t37 -11.5zM593 170q8 41 -1.5 76t-35.5 46q-26 10 -45 -12.5t-11 -50.5q7 -27 32.5 -43t60.5 -16zM562 391q5 0 11 -10t8 -15q-4 -10 -24 -24 q-20 -15 -24 -20q-2 0 -3 1q-1 0 -2 1q1 3 15 32t15 32q3 3 4 3z" horiz-adv-x="713"/>
<glyph unicode="ô" glyph-name="ocircumflex" d="M30 191q0 51 34 85t86 38h14q50 2 82 -23t29 -70q-2 -33 -26 -55.5t-59 -23.5q-15 -1 -29 4q-33 16 -33 46q-2 19 8 22q6 2 10 -2t3.5 -10t-5.5 -8q-6 3 -9.5 0.5t-2.5 -9.5q2 -16 18.5 -28t36.5 -11q31 1 47.5 28.5t13 62t-23.5 54.5q-27 25 -75 21q-63 -5 -95.5 -56.5 t-6.5 -113.5q20 -46 69 -69.5t118 -18.5q55 3 109.5 28t92.5 58q2 2 3.5 3t3.5 3q13 33 41 40q5 0 12 -6.5t7 -11.5q-8 -6 -15 -37t-3 -46q9 -24 28 -26t38 20q30 35 40 85q-49 0 -86 19.5t-44 57.5q-3 28 16.5 45.5t50.5 17.5q47 0 63 -40t6 -96q33 0 69 9t44 25 q1 -1 3.5 -1.5t3.5 -0.5q-9 -15 -46 -25q-32 -10 -71 -11h-3q-11 -56 -40 -90q-18 -19 -37 -19q-30 0 -55 23t-25 51q0 7 1 10q-57 -55 -139 -81q-39 -13 -87 -13q-64 0 -109.5 25t-65.5 70q-10 23 -10 49v2zM592 169q8 40 -1 77t-36 45q-24 9 -44 -12q-16 -17 -13.5 -40.5 t17.5 -38.5q31 -31 77 -31zM492 331q4 5 22 26.5t31 38.5q30 -36 46 -56q-1 -2 -33 -15q-2 5 -10.5 22.5t-13.5 29.5q-15 -20 -38 -49q-2 -2 -3 0q-1 1 -1 3z" horiz-adv-x="713"/>
<glyph unicode="õ" glyph-name="otilde" d="M461 246q0 27 19.5 43t49.5 16q45 0 61.5 -41t6.5 -95q35 0 69 8.5t44 24.5q1 0 7 -2q-2 -4 -17 -13q-11 -5 -29 -12q-29 -8 -72 -10h-2q-11 -56 -40 -90q-17 -20 -37 -20q-29 0 -54 25q-26 23 -26 50v9q-93 -86 -206 -93h-19q-80 0 -133 38.5t-53 106.5q0 52 34 86.5 t87 37.5h14q41 0 69 -16t37 -45q16 -42 -11 -76.5t-70 -35.5q-26 0 -43.5 14t-18.5 36q0 19 9 22q9 4 12 -6t-4 -13q-13 6 -12 -9q2 -17 18 -28.5t37 -11.5q45 4 58 59.5t-22 85.5q-27 27 -74 21q-52 -3 -84 -39t-29 -90q3 -42 31.5 -73.5t71.5 -45.5q76 -27 157.5 0.5 t139.5 75.5l6 6q5 16 24.5 32.5t29.5 0.5q6 -7 7 -11q-3 -2 -14 -31q-10 -23 -5 -45.5t22 -29.5q28 -12 52.5 26t31.5 77q-51 0 -89 20.5t-41 60.5zM593 170q8 41 -1.5 76.5t-36.5 45.5q-26 10 -44.5 -12.5t-10.5 -50.5q7 -28 32.5 -43.5t60.5 -15.5zM500 356 q-18 -2 -18 -13q-1 -1 -3 -1q-1 -1 -1 2l3 18q5 20 32 20q10 0 30 -9t31.5 -12.5t25.5 6.5q5 4 5 7q1 1 3 1l2 -2q-8 -40 -39 -40q-11 0 -37.5 11.5t-33.5 11.5z" horiz-adv-x="713"/>
<glyph unicode="ö" glyph-name="odieresis" d="M461 246q0 27 19.5 42.5t49.5 15.5q45 0 61 -41t7 -95q34 0 68.5 9t44.5 25q1 -1 3 -1l4 -1q-9 -14 -46 -25q-34 -10 -72 -11h-2q-11 -56 -40 -90q-18 -19 -37 -19q-31 0 -55.5 23t-24.5 51q0 7 1 11q-95 -95 -226 -95q-94 0 -145 51q-41 39 -41 94q0 52 34 86.5t87 37.5 h14q40 2 68.5 -14.5t37.5 -46.5q15 -42 -11.5 -76t-69.5 -35q-26 -1 -43 13t-19 37q0 19 9 22q9 4 11 -7q3 -11 -3 -13q-13 6 -12 -9q2 -16 18.5 -28t36.5 -11q30 1 47 28.5t13.5 62t-24.5 54.5q-27 25 -74 21q-63 -5 -96 -56.5t-7 -113.5q11 -24 29 -42q58 -53 159 -46 q65 3 116 31q65 34 92 61q13 32 41 40q6 0 12 -6.5t8 -11.5q-3 -2 -14 -31q-10 -25 -5.5 -46t22.5 -30q28 -11 52.5 27t31.5 76q-51 0 -89 21t-41 61zM593 169q6 30 1 61.5t-20 46.5q-10 11 -19 14q-26 10 -44.5 -12t-10.5 -50q7 -28 32.5 -44t60.5 -16zM570 341 q-13 0 -13 14q0 15 13 15q4 0 9.5 -5.5t5.5 -10.5q0 -3 -3.5 -7.5t-6.5 -5.5h-5zM517 371q13 -4 13 -17q1 -5 -4 -9t-9 -4q-5 0 -10.5 4.5t-3.5 9.5q0 16 14 16z" horiz-adv-x="713"/>
<glyph unicode="ø" glyph-name="oslash" d="M463 246q-2 27 18 42.5t50 15.5q35 0 56 -31q28 65 36 82q2 5 5 11l2 5q4 1 11 -9q-33 -74 -46 -105l1 -1q11 -38 3 -88q34 0 68.5 9t44.5 25q1 -1 3 -1l4 -1q-9 -14 -46 -25q-34 -10 -72 -11h-2q-11 -56 -40 -90q-18 -19 -38 -19q-7 0 -14 3h-2q-5 -13 -18 -41t-19 -44 q-1 -3 -2.5 -5.5t-1.5 -3.5l-1 -2q-6 0 -9 13q1 1 39 87q-51 22 -51 67q0 7 1 11q-95 -95 -226 -95q-79 0 -132.5 39t-53.5 106q0 52 34 86.5t87 37.5h14q40 2 68.5 -14.5t37.5 -46.5q15 -42 -11.5 -76t-69.5 -35q-26 -1 -43 13t-19 37q0 19 9 22q9 4 11 -7q3 -11 -3 -13 q-6 3 -9.5 0.5t-2.5 -9.5q3 -25 32.5 -35.5t52.5 7.5q27 21 30 64t-24 70q-27 25 -74 21q-50 -5 -82.5 -39.5t-30.5 -83.5q0 -90 103 -126q39 -13 95 -9q104 5 202 86q2 1 4 4l2 2q13 32 41 40q8 0 14 -7q3 -5 6 -11q-3 -2 -14 -31q-18 -46 5 -69q28 64 45 102l-16 6 q-25 9 -43.5 27t-18.5 43zM545 179q6 14 19.5 43t19.5 44q-16 22 -28 25q-26 10 -44.5 -12t-10.5 -50q10 -33 44 -50zM554 167q-44 -99 -47 -105q28 -14 53 24.5t32 77.5q-20 0 -38 3zM592 249q-28 -59 -34 -74q8 -3 18 -4q12 -2 18 -2q9 47 -2 80z" horiz-adv-x="713"/>
<glyph unicode="ù" glyph-name="ugrave" d="M175 165q31 0 47 29.5t13 65.5q-4 36 -29.5 55t-67.5 16q-52 -5 -84.5 -40.5t-29.5 -88.5q3 -43 31.5 -73.5t71.5 -45.5q54 -16 110.5 -9t101.5 30q76 40 113 81q13 15 13 20q8 7 20 3.5t19 -9.5q0 -2 -4 -35t-3.5 -59t8.5 -27q29 -3 73 167q2 3 6 3q16 0 30 -19 q0 -19 -5.5 -80.5t-4.5 -89.5q0 -19 5 -23.5t11 0.5t18 17q41 40 94 111q25 33 26 36q1 -1 6 -1q-48 -71 -117 -142q-28 -28 -40 -28h-2q-34 4 -34 116q2 39 4 57q0 5 0.5 9.5t0.5 7.5t0.5 5t0.5 4v1q-17 -66 -48 -129q-7 -14 -13 -21t-12 -6q-46 0 -46 68q0 8 2.5 27.5 t2.5 21.5q-119 -119 -239 -126h-21q-77 0 -128.5 36.5t-55.5 100.5v9q0 53 33.5 87t86.5 37h13q49 0 81 -23.5t31 -65.5q-1 -35 -24.5 -59.5t-60.5 -25.5q-27 0 -45 14t-19 38q0 16 9 21q6 2 9.5 -2t3.5 -9.5t-5 -7.5q-6 3 -9.5 0t-2.5 -10q2 -16 18.5 -28t36.5 -11z M508 321q8 25 17 25q5 0 19 -29t17 -38q-1 0 -2.5 -1t-3.5 -1q-2 5 -23 20q-20 14 -24 24z" horiz-adv-x="759"/>
<glyph unicode="ú" glyph-name="uacute" d="M176 166q30 2 47 29.5t14 62t-24 54.5q-20 19 -59.5 19.5t-66.5 -14.5q-66 -38 -62 -114q3 -42 31.5 -73t71.5 -46q89 -28 179.5 8t145.5 95l11 11q1 3 1 7q8 7 20 3.5t19 -9.5q0 -2 -4 -35t-3.5 -59t8.5 -27q29 -3 73 167q2 3 6 3q16 0 30 -19q0 -19 -5.5 -80.5 t-4.5 -89.5q0 -19 5 -23.5t11 0.5t18 17q41 40 94 111q25 33 26 36q1 -1 6 -1q-48 -71 -117 -142q-28 -28 -40 -28h-2q-34 4 -34 116q2 39 4 57q0 5 0.5 9.5t0.5 7.5t0.5 5t0.5 4v1q-17 -66 -48 -129q-7 -14 -13 -21t-12 -6q-46 0 -46 68q0 6 1 16t2.5 20t1.5 14 q-9 -11 -36 -35q-104 -91 -223 -91q-133 0 -175 96q-9 21 -9 49v2q0 55 37 89.5t96 34.5q50 0 82.5 -24.5t29.5 -69.5q-2 -33 -26 -56t-59 -24q-27 0 -45 14t-18 37q-1 18 8 21q9 4 12 -5.5t-4 -13.5q-6 3 -9.5 0.5t-2.5 -9.5q2 -17 18 -28.5t37 -11.5zM559 344q10 0 18 -25 q-5 -11 -24 -25q-20 -15 -24 -20q-2 0 -5 3q1 3 15 32t15 32q3 3 5 3z" horiz-adv-x="759"/>
<glyph unicode="û" glyph-name="ucircumflex" d="M180 164q-26 0 -44 14.5t-19 36.5q0 18 9 21q6 2 9.5 -1.5t3 -9t-4.5 -7.5q-7 3 -10 0.5t-2 -10.5q2 -17 17.5 -28.5t36.5 -11.5q30 2 47.5 29.5t15 61.5t-25.5 54q-34 27 -83.5 18.5t-75.5 -38.5q-31 -42 -26.5 -90t37.5 -80q54 -53 160 -47q72 4 136 40t103 85q1 1 1 4 q8 7 20 3.5t19 -9.5q0 -2 -4 -35t-3.5 -59t8.5 -27q29 -3 73 167q2 3 6 3q16 0 30 -19q0 -19 -5.5 -80.5t-4.5 -89.5q0 -19 5 -23.5t11 0.5t18 17q41 40 94 111q25 33 26 36q1 -1 6 -1q-48 -71 -117 -142q-28 -28 -40 -28h-2q-34 4 -34 116q2 39 4 57q0 5 0.5 9.5t0.5 7.5 t0.5 5t0.5 4v1q-17 -66 -48 -129q-7 -14 -13 -21t-12 -6q-46 0 -46 68q0 6 1 16.5t2.5 21.5t1.5 14q-9 -11 -36 -35t-84 -57q-65 -34 -138 -34q-80 2 -132.5 40.5t-52.5 106.5q0 56 37 90t97 34q48 0 80.5 -24t31.5 -65q-1 -36 -25 -60t-61 -25zM496 271q9 10 53 66 q10 -12 46 -57q-11 -11 -33 -14q-2 6 -10.5 22.5t-13.5 27.5q-27 -33 -38 -48q-1 -1 -2.5 0.5t-1.5 2.5z" horiz-adv-x="759"/>
<glyph unicode="ü" glyph-name="udieresis" d="M174 162q30 1 47.5 29t14 62.5t-24.5 54.5q-26 26 -73 20q-53 -4 -85 -39.5t-29 -89.5q3 -42 31.5 -73t71.5 -45q34 -12 79.5 -11.5t81.5 12.5q86 28 140 78q27 24 36 37q0 9 5 12t12 1t13 -5t10 -6q0 -2 -4 -35t-3.5 -59t8.5 -27q29 -3 73 167q2 3 6 3q16 0 30 -19 q0 -19 -5.5 -80.5t-4.5 -89.5q0 -19 5 -23.5t11 0.5t18 17q41 40 94 111q25 33 26 36q1 -1 6 -1q-48 -71 -117 -142q-28 -28 -40 -28h-2q-34 4 -34 116q2 39 4 57q0 5 0.5 9.5t0.5 7.5t0.5 5t0.5 4v1q-17 -66 -48 -129q-7 -14 -13 -21t-12 -6q-46 0 -46 68q0 8 2.5 27.5 t2.5 20.5q-120 -120 -240 -127h-21q-79 0 -130 37.5t-54 106.5v3q0 51 34.5 85t86.5 38h13q50 0 82 -24.5t29 -69.5q-2 -33 -25.5 -56t-59.5 -24q-26 0 -44.5 14.5t-18.5 37.5q-1 17 9 21q9 3 12 -6.5t-5 -12.5q-6 3 -9 0.5t-2 -10.5q1 -16 17 -28t37 -12zM554 308 q0 -15 14 -15h4q10 3 10 14q0 5 -5 10t-10 5q-13 0 -13 -14zM500 308q0 -6 4.5 -10.5t9.5 -4.5t9.5 4.5t4.5 9.5q-5 15 -14 15q-5 3 -9.5 -2.5t-4.5 -11.5z" horiz-adv-x="759"/>
<glyph unicode="ý" glyph-name="yacute" d="M503 133q-31 4 -33 57q0 16 -4 20q-12 -16 -42 -42q-104 -91 -223 -91q-76 0 -128 37t-56 101v9q0 56 37.5 90t96.5 34q50 0 82 -24.5t29 -69.5q-2 -33 -26 -56t-59 -24q-26 0 -44.5 14.5t-18.5 36.5q-1 18 8 21q10 4 13 -5.5t-5 -13.5q-6 3 -9 0.5t-2 -9.5q1 -16 17 -28 t37 -12q31 2 48 29.5t13.5 61.5t-24.5 54q-20 19 -59.5 20t-66.5 -14q-65 -37 -61 -114q3 -43 31.5 -74t71.5 -45q35 -11 79.5 -10t81.5 12q86 28 140 78q34 33 37 39q5 8 18.5 19t18.5 1q8 -12 3 -53q-4 -43 4 -44q5 0 14 13q8 9 19 33q22 43 32 73q7 10 22 12h4q9 0 14 -8 q-7 -14 -7 -40q-1 -15 0 -46.5t1 -40.5l16 10q11 7 29.5 18t26.5 16q24 14 33 24q1 -1 6 -1q-17 -20 -79 -54q-5 -3 -15.5 -8.5t-15.5 -8.5q7 -156 -9 -210q-21 -62 -62 -87q-26 -16 -47 -16q-30 2 -48 20.5t-18 48.5q0 12 3 25q15 86 77 140q37 34 79 65q0 22 -9 130 q-2 -6 -7 -16q-16 -42 -40 -78q-13 -19 -24 -19zM583 113q-82 -61 -119 -119q-23 -34 -31 -78t9 -65t59 0q46 27 65.5 99.5t16.5 162.5zM521 289q2 8 16.5 36.5t18.5 28.5q5 1 11 -9.5t6 -14.5q-4 -10 -24 -24q-20 -15 -24 -20q-1 0 -4 3z" horiz-adv-x="713"/>
</font>
</defs>
</svg>
