<?xml version="1.0" encoding="UTF-8" ?>
<!DOCTYPE svg PUBLIC "-//W3C//DTD SVG 1.1//EN" "http://www.w3.org/Graphics/SVG/1.1/DTD/svg11.dtd">
<svg width="117pt" height="88pt" viewBox="0 0 117 88" version="1.1" xmlns="http://www.w3.org/2000/svg">
<path fill="#ffffff" d=" M 0.00 0.00 L 117.00 0.00 L 117.00 41.79 C 115.30 39.08 114.90 35.25 112.03 33.50 C 107.72 32.67 106.21 38.14 104.45 41.07 C 107.15 43.20 109.50 45.88 109.59 49.50 C 107.98 48.33 106.37 47.15 104.74 46.01 C 104.19 47.28 103.55 48.53 103.22 49.89 C 104.31 51.90 106.18 53.31 107.79 54.89 C 107.02 55.99 106.25 57.08 105.48 58.17 C 104.07 56.86 102.62 55.58 101.11 54.39 C 99.30 57.39 99.08 60.83 99.60 64.24 C 98.08 63.19 96.87 60.67 94.67 61.54 C 93.15 63.17 92.22 65.23 91.05 67.10 C 91.74 64.28 92.48 61.48 93.03 58.63 C 92.23 58.54 90.62 58.36 89.82 58.26 C 93.66 53.02 92.89 46.31 92.31 40.23 C 91.28 33.92 89.25 27.82 87.94 21.56 L 87.96 22.41 C 85.79 16.49 84.50 9.28 79.01 5.44 C 69.01 5.54 58.84 5.13 48.96 7.09 C 44.40 7.95 41.28 11.92 40.09 16.20 C 37.50 24.88 37.38 34.03 36.66 43.00 C 36.58 47.66 36.04 52.37 36.80 56.99 C 37.72 59.54 40.08 61.16 41.70 63.23 C 36.15 60.69 30.58 57.60 24.32 57.42 C 24.22 61.50 26.17 65.12 28.17 68.53 C 26.64 68.38 25.11 68.23 23.57 68.08 C 22.91 65.65 22.93 60.41 19.11 61.78 C 18.28 63.06 17.65 64.46 16.98 65.83 C 16.24 65.31 15.50 64.79 14.76 64.27 C 15.21 61.92 15.56 59.54 15.65 57.15 C 13.44 57.38 11.32 58.04 9.23 58.75 C 10.12 56.28 11.42 53.94 11.83 51.32 C 10.08 50.91 8.30 50.69 6.53 50.42 C 7.36 48.17 8.78 46.25 10.40 44.51 C 10.64 41.89 12.35 38.35 9.49 36.60 C 5.86 35.36 0.09 36.57 0.00 41.27 L 0.00 0.00 Z" />
<path fill="#381d1d" d=" M 48.96 7.09 C 58.84 5.13 69.01 5.54 79.01 5.44 C 84.50 9.28 85.79 16.49 87.96 22.41 L 87.94 21.56 C 89.25 27.82 91.28 33.92 92.31 40.23 C 92.89 46.31 93.66 53.02 89.82 58.26 C 90.62 58.36 92.23 58.54 93.03 58.63 C 92.48 61.48 91.74 64.28 91.05 67.10 C 92.22 65.23 93.15 63.17 94.67 61.54 C 96.87 60.67 98.08 63.19 99.60 64.24 C 99.08 60.83 99.30 57.39 101.11 54.39 C 102.62 55.58 104.07 56.86 105.48 58.17 C 106.25 57.08 107.02 55.99 107.79 54.89 C 106.18 53.31 104.31 51.90 103.22 49.89 C 103.55 48.53 104.19 47.28 104.74 46.01 C 106.37 47.15 107.98 48.33 109.59 49.50 C 109.50 45.88 107.15 43.20 104.45 41.07 C 106.21 38.14 107.72 32.67 112.03 33.50 C 114.90 35.25 115.30 39.08 117.00 41.79 L 117.00 42.17 C 115.54 42.71 114.08 43.25 112.62 43.79 C 112.45 45.11 112.30 46.43 112.15 47.74 C 113.24 48.06 114.33 48.37 115.42 48.68 C 115.72 49.36 116.31 50.72 116.61 51.40 C 115.06 53.16 112.98 54.22 110.76 54.87 C 108.76 57.49 107.41 60.64 109.42 63.71 C 107.13 66.19 104.06 66.28 100.93 65.91 C 99.94 68.28 99.43 70.84 98.12 73.07 C 96.21 72.47 95.03 70.82 93.75 69.41 C 93.21 69.44 92.66 69.47 92.12 69.51 C 91.40 71.70 90.96 74.39 88.71 75.60 C 85.79 77.72 82.06 77.25 78.74 76.65 C 77.31 77.82 76.15 80.04 74.00 79.67 C 71.31 79.64 70.33 76.80 69.85 74.63 C 71.57 75.31 73.28 76.05 74.98 76.78 C 74.52 75.29 74.05 73.80 73.59 72.32 C 78.31 73.27 83.34 75.51 87.97 72.99 C 85.20 72.16 82.43 71.28 79.63 70.55 C 77.26 70.31 74.93 71.26 72.58 71.45 C 73.51 70.24 74.46 69.04 75.42 67.85 C 75.32 66.90 75.22 65.95 75.12 65.01 C 75.99 64.65 77.73 63.95 78.60 63.60 C 77.40 63.55 76.19 63.54 74.99 63.53 C 74.63 65.78 73.52 67.72 71.81 69.22 C 72.13 70.48 72.47 71.73 72.66 73.02 C 71.04 75.36 67.92 74.38 65.51 74.63 C 64.20 75.82 63.17 77.99 61.06 77.39 C 59.84 76.20 58.70 74.95 57.62 73.64 L 59.35 72.63 C 56.41 72.21 55.32 75.84 52.74 76.69 C 51.68 78.22 50.43 79.61 49.05 80.87 C 47.94 79.86 46.85 78.82 45.77 77.78 C 43.01 78.91 40.05 80.36 37.00 79.48 C 33.12 78.46 29.47 76.78 25.81 75.19 C 26.64 73.93 27.48 72.69 28.34 71.45 C 26.26 71.35 24.17 71.24 22.09 71.14 C 20.62 72.58 19.60 75.31 17.14 74.94 C 14.59 73.68 15.60 70.55 15.56 68.31 C 14.46 67.59 13.36 66.86 12.25 66.14 C 10.85 66.96 9.45 67.81 7.96 68.49 C 6.99 67.76 6.06 67.00 5.16 66.20 C 6.23 64.67 7.34 63.16 8.47 61.67 C 7.86 60.66 7.25 59.64 6.64 58.63 C 4.32 58.98 1.55 60.15 0.00 57.68 L 0.00 54.83 C 1.45 54.13 2.90 53.43 4.36 52.75 C 4.05 51.30 3.74 49.85 3.43 48.40 C 2.26 47.26 1.07 46.14 0.00 44.91 L 0.00 41.27 C 0.09 36.57 5.86 35.36 9.49 36.60 C 12.35 38.35 10.64 41.89 10.40 44.51 C 8.78 46.25 7.36 48.17 6.53 50.42 C 8.30 50.69 10.08 50.91 11.83 51.32 C 11.42 53.94 10.12 56.28 9.23 58.75 C 11.32 58.04 13.44 57.38 15.65 57.15 C 15.56 59.54 15.21 61.92 14.76 64.27 C 15.50 64.79 16.24 65.31 16.98 65.83 C 17.65 64.46 18.28 63.06 19.11 61.78 C 22.93 60.41 22.91 65.65 23.57 68.08 C 25.11 68.23 26.64 68.38 28.17 68.53 C 26.17 65.12 24.22 61.50 24.32 57.42 C 30.58 57.60 36.15 60.69 41.70 63.23 C 40.08 61.16 37.72 59.54 36.80 56.99 C 36.04 52.37 36.58 47.66 36.66 43.00 C 37.38 34.03 37.50 24.88 40.09 16.20 C 41.28 11.92 44.40 7.95 48.96 7.09 Z" />
<path fill="#91ac94" d=" M 49.08 10.10 C 55.67 8.73 62.44 8.30 69.15 8.56 C 70.60 8.33 71.71 9.37 72.86 10.03 C 65.23 10.64 57.08 9.29 49.96 12.80 C 50.47 13.40 51.49 14.60 52.00 15.20 C 60.16 15.48 68.35 14.71 76.51 14.29 C 76.57 12.43 77.09 9.81 74.22 10.40 C 74.06 9.82 73.74 8.66 73.58 8.09 C 75.73 8.40 78.49 8.11 79.79 10.28 C 82.61 14.54 83.95 19.58 85.49 24.40 C 87.85 33.61 91.04 43.02 89.39 52.65 C 89.00 54.79 87.33 56.74 85.08 56.97 C 81.38 58.00 77.66 56.75 73.98 56.38 C 73.63 56.90 72.92 57.94 72.57 58.46 C 73.59 58.69 75.64 59.16 76.66 59.40 C 75.45 60.75 74.25 62.10 73.05 63.46 C 71.66 63.15 70.28 62.84 68.90 62.54 C 70.28 60.20 73.07 58.00 72.13 55.01 C 69.90 52.46 66.80 54.48 64.47 55.74 C 63.73 54.18 64.07 51.47 61.88 51.17 C 59.81 50.53 58.63 52.64 57.26 53.73 C 56.44 52.94 55.61 52.16 54.80 51.37 C 54.78 48.91 54.47 46.00 51.83 44.95 C 48.46 42.80 45.23 47.57 46.48 50.59 C 47.66 52.19 49.51 53.07 51.13 54.15 C 48.47 54.61 46.08 55.84 44.40 58.00 C 42.93 57.51 40.52 57.96 40.18 55.95 C 39.00 48.68 40.24 41.26 40.46 33.94 C 40.61 27.44 41.91 21.02 43.77 14.82 C 44.40 12.32 46.59 10.54 49.08 10.10 Z" />
<path fill="#ffffff" d=" M 53.09 13.31 C 59.52 11.31 66.31 11.82 72.94 11.60 C 73.38 11.75 74.26 12.05 74.69 12.20 C 67.50 12.57 60.31 13.78 53.09 13.31 Z" />
<path fill="#381d1d" d=" M 71.29 16.32 C 73.86 16.18 76.88 15.07 79.09 16.93 C 81.29 19.30 82.11 22.55 83.34 25.46 C 84.66 29.24 86.47 32.95 86.90 36.97 C 87.22 39.21 85.02 40.46 83.08 40.49 C 73.40 41.43 63.67 42.00 53.95 42.57 C 50.46 42.73 46.39 43.04 43.66 40.40 C 42.06 39.04 42.72 36.79 42.75 34.98 C 43.30 30.31 43.97 25.62 45.38 21.11 C 45.87 19.38 47.10 17.55 49.08 17.48 C 56.46 16.72 63.93 17.42 71.29 16.32 Z" />
<path fill="#ffffff" d=" M 48.71 21.54 C 50.51 18.12 54.89 19.57 57.99 19.28 C 64.49 19.79 70.91 18.51 77.39 18.30 C 80.70 24.16 83.42 30.49 84.56 37.15 C 72.44 39.10 60.15 39.97 47.89 39.77 C 46.44 39.85 45.28 38.50 45.32 37.11 C 45.09 31.76 46.17 26.27 48.71 21.54 Z" />
<path fill="#92ad95" d=" M 107.89 38.98 C 109.04 37.93 109.86 35.90 111.72 36.27 C 113.74 37.18 112.96 39.48 112.48 41.11 C 110.95 40.40 109.42 39.68 107.89 38.98 Z" />
<path fill="#93ae95" d=" M 2.89 39.90 C 4.61 39.04 6.60 39.34 8.46 39.29 C 8.56 40.47 8.66 41.66 8.76 42.84 C 8.08 42.79 6.71 42.69 6.02 42.64 C 5.12 43.17 4.17 43.57 3.17 43.84 C 2.33 42.72 2.10 41.12 2.89 39.90 Z" />
<path fill="#ffffff" d=" M 112.62 43.79 C 114.08 43.25 115.54 42.71 117.00 42.17 L 117.00 88.00 L 0.00 88.00 L 0.00 57.68 C 1.55 60.15 4.32 58.98 6.64 58.63 C 7.25 59.64 7.86 60.66 8.47 61.67 C 7.34 63.16 6.23 64.67 5.16 66.20 C 6.06 67.00 6.99 67.76 7.96 68.49 C 9.45 67.81 10.85 66.96 12.25 66.14 C 13.36 66.86 14.46 67.59 15.56 68.31 C 15.60 70.55 14.59 73.68 17.14 74.94 C 19.60 75.31 20.62 72.58 22.09 71.14 C 24.17 71.24 26.26 71.35 28.34 71.45 C 27.48 72.69 26.64 73.93 25.81 75.19 C 29.47 76.78 33.12 78.46 37.00 79.48 C 40.05 80.36 43.01 78.91 45.77 77.78 C 46.85 78.82 47.94 79.86 49.05 80.87 C 50.43 79.61 51.68 78.22 52.74 76.69 C 55.32 75.84 56.41 72.21 59.35 72.63 L 57.62 73.64 C 58.70 74.95 59.84 76.20 61.06 77.39 C 63.17 77.99 64.20 75.82 65.51 74.63 C 67.92 74.38 71.04 75.36 72.66 73.02 C 72.47 71.73 72.13 70.48 71.81 69.22 C 73.52 67.72 74.63 65.78 74.99 63.53 C 76.19 63.54 77.40 63.55 78.60 63.60 C 77.73 63.95 75.99 64.65 75.12 65.01 C 75.22 65.95 75.32 66.90 75.42 67.85 C 74.46 69.04 73.51 70.24 72.58 71.45 C 74.93 71.26 77.26 70.31 79.63 70.55 C 82.43 71.28 85.20 72.16 87.97 72.99 C 83.34 75.51 78.31 73.27 73.59 72.32 C 74.05 73.80 74.52 75.29 74.98 76.78 C 73.28 76.05 71.57 75.31 69.85 74.63 C 70.33 76.80 71.31 79.64 74.00 79.67 C 76.15 80.04 77.31 77.82 78.74 76.65 C 82.06 77.25 85.79 77.72 88.71 75.60 C 90.96 74.39 91.40 71.70 92.12 69.51 C 92.66 69.47 93.21 69.44 93.75 69.41 C 95.03 70.82 96.21 72.47 98.12 73.07 C 99.43 70.84 99.94 68.28 100.93 65.91 C 104.06 66.28 107.13 66.19 109.42 63.71 C 107.41 60.64 108.76 57.49 110.76 54.87 C 112.98 54.22 115.06 53.16 116.61 51.40 C 116.31 50.72 115.72 49.36 115.42 48.68 C 114.33 48.37 113.24 48.06 112.15 47.74 C 112.30 46.43 112.45 45.11 112.62 43.79 Z" />
<path fill="#381d1d" d=" M 76.74 44.75 C 78.69 43.10 81.25 44.29 83.45 44.58 C 84.48 47.54 84.50 51.73 80.79 52.68 C 77.43 53.85 75.45 50.55 74.33 47.99 C 75.11 46.89 75.82 45.74 76.74 44.75 Z" />
<path fill="#ffffff" d=" M 0.00 44.91 C 1.07 46.14 2.26 47.26 3.43 48.40 C 3.74 49.85 4.05 51.30 4.36 52.75 C 2.90 53.43 1.45 54.13 0.00 54.83 L 0.00 44.91 Z" />
<path fill="#ffffff" d=" M 78.12 49.20 C 78.63 48.05 79.30 46.99 80.09 46.01 C 80.39 47.10 80.68 48.20 80.94 49.31 C 80.24 49.28 78.83 49.23 78.12 49.20 Z" />
<path fill="#ffffff" d=" M 49.54 49.01 C 49.82 48.71 50.39 48.12 50.67 47.82 C 53.49 48.54 49.89 52.13 49.54 49.01 Z" />
<path fill="#63575e" d=" M 105.46 49.09 C 106.84 48.63 107.33 49.10 106.94 50.52 C 105.55 50.99 105.06 50.51 105.46 49.09 Z" />
<path fill="#685e65" d=" M 112.18 51.27 C 112.69 51.78 112.69 51.78 112.18 51.27 Z" />
<path fill="#564449" d=" M 9.16 52.23 C 10.46 52.91 10.45 53.58 9.14 54.26 C 7.83 53.59 7.84 52.91 9.16 52.23 Z" />
<path fill="#737276" d=" M 3.32 55.20 C 4.64 55.84 4.62 56.50 3.26 57.17 C 1.94 56.53 1.96 55.87 3.32 55.20 Z" />
<path fill="#964c65" d=" M 60.32 55.39 C 62.16 55.59 61.78 58.77 60.08 58.91 C 58.22 58.70 58.64 55.57 60.32 55.39 Z" />
<path fill="#665d63" d=" M 48.36 57.27 C 49.33 55.97 52.07 57.31 50.95 58.84 C 49.97 60.13 47.24 58.80 48.36 57.27 Z" />
<path fill="#9e506c" d=" M 55.84 63.01 C 54.34 61.04 52.02 58.28 54.61 56.10 C 55.93 57.35 57.24 58.61 58.54 59.89 C 57.64 60.93 56.74 61.97 55.84 63.01 Z" />
<path fill="#b25879" d=" M 64.11 59.68 C 65.85 58.17 67.82 56.96 69.94 56.05 C 68.62 59.13 67.20 62.17 66.01 65.31 C 66.82 65.54 68.44 65.99 69.26 66.22 C 68.44 67.12 67.63 68.02 66.81 68.92 C 67.35 69.55 68.42 70.80 68.96 71.43 C 67.21 71.53 65.46 71.61 63.71 71.68 C 63.31 70.95 62.52 69.47 62.13 68.74 C 61.50 69.26 60.26 70.29 59.64 70.81 C 58.61 70.92 57.59 71.03 56.57 71.14 C 57.19 69.61 56.29 66.95 54.30 67.34 C 51.76 68.63 49.52 71.09 46.38 70.39 C 48.52 66.89 52.25 65.03 55.90 63.50 C 57.86 65.76 60.36 67.27 63.43 66.45 C 64.05 64.25 64.32 61.97 64.11 59.68 Z" />
<path fill="#9c4d68" d=" M 60.05 60.77 C 62.78 59.81 63.53 64.09 61.00 64.81 C 58.85 64.45 58.89 62.15 60.05 60.77 Z" />
<path fill="#91ac94" d=" M 28.13 61.31 C 33.44 62.06 37.87 65.17 42.29 67.95 C 39.13 68.79 35.58 68.91 32.63 67.32 C 30.31 66.07 29.30 63.50 28.13 61.31 Z" />
<path fill="#85958c" d=" M 50.30 62.06 C 53.29 60.52 50.42 65.41 50.30 62.06 Z" />
<path fill="#92ad95" d=" M 78.96 64.90 C 81.98 62.69 85.58 61.59 89.31 61.47 C 88.35 63.57 87.69 66.22 85.40 67.30 C 83.54 68.05 81.48 67.69 79.53 67.74 C 79.39 67.03 79.10 65.61 78.96 64.90 Z" />
<path fill="#797f7f" d=" M 105.16 62.23 C 106.81 61.64 107.37 62.15 106.85 63.78 C 105.20 64.37 104.63 63.85 105.16 62.23 Z" />
<path fill="#6d6b6c" d=" M 44.45 63.11 C 48.38 62.52 44.42 67.64 43.41 64.28 C 43.67 63.99 44.19 63.40 44.45 63.11 Z" />
<path fill="#706f70" d=" M 43.20 70.13 C 43.71 69.21 44.26 68.31 44.84 67.44 C 44.94 69.45 44.97 71.47 44.92 73.49 C 44.17 72.64 41.77 71.54 43.20 70.13 Z" />
<path fill="#6d6c6c" d=" M 17.33 70.39 C 18.16 68.94 20.58 70.33 19.43 71.72 C 18.60 73.18 16.17 71.78 17.33 70.39 Z" />
<path fill="#92ad95" d=" M 32.09 73.24 C 34.68 72.15 37.40 71.40 39.99 70.31 C 40.59 72.42 41.36 74.48 41.86 76.62 C 38.51 76.95 33.98 76.09 32.09 73.24 Z" />
<path fill="#727074" d=" M 49.33 74.09 C 50.81 72.88 51.80 75.59 50.49 76.36 C 49.01 77.58 48.04 74.86 49.33 74.09 Z" />
<path fill="#381d1d" d=" M 57.93 76.54 C 61.39 78.11 59.42 84.08 55.80 83.46 C 53.91 82.45 52.33 80.19 53.10 78.00 C 54.83 77.52 55.89 79.21 57.14 80.07 C 57.34 79.19 57.73 77.42 57.93 76.54 Z" />
<path fill="#381d1d" d=" M 66.91 76.04 C 70.74 76.51 70.92 82.58 66.99 82.89 C 64.26 83.43 63.29 80.27 63.08 78.18 C 64.33 78.60 65.57 79.05 66.80 79.52 C 66.83 78.65 66.88 76.91 66.91 76.04 Z" />
</svg>
