<?xml version="1.0" encoding="UTF-8" ?>
<!DOCTYPE svg PUBLIC "-//W3C//DTD SVG 1.1//EN" "http://www.w3.org/Graphics/SVG/1.1/DTD/svg11.dtd">
<svg width="255pt" height="124pt" viewBox="0 0 255 124" version="1.1" xmlns="http://www.w3.org/2000/svg">
<path fill="#ffffff" d=" M 0.00 0.00 L 169.10 0.00 C 167.38 1.75 165.92 4.39 167.23 6.82 C 168.11 9.57 171.30 9.73 173.62 10.46 C 173.64 11.60 173.66 12.75 173.68 13.89 C 171.42 12.88 168.90 11.60 166.53 13.18 C 165.52 15.38 165.29 17.91 166.81 19.95 C 168.20 21.48 169.79 22.81 171.38 24.13 C 170.82 25.54 170.30 26.96 169.71 28.36 L 169.15 26.79 C 169.01 26.39 168.73 25.58 168.59 25.18 C 168.31 24.86 167.75 24.22 167.47 23.90 C 166.16 22.67 164.01 22.96 162.71 24.04 C 161.20 28.19 164.02 32.17 166.32 35.40 C 161.86 41.37 155.84 47.11 148.12 48.08 C 149.56 49.13 151.28 49.97 152.23 51.57 C 154.57 51.83 157.02 51.85 159.24 52.76 C 161.34 54.04 162.25 56.52 163.73 58.38 C 162.01 59.00 160.18 59.22 158.44 59.76 C 161.34 62.19 166.01 61.34 168.35 64.65 C 171.10 68.20 170.06 73.37 167.10 76.47 C 165.96 75.93 164.82 75.39 163.68 74.86 C 163.43 74.23 163.19 73.59 162.95 72.95 C 164.36 70.72 164.82 67.84 163.38 65.50 C 162.26 63.42 159.61 63.69 157.62 63.34 C 156.89 59.68 154.53 56.68 150.66 56.19 C 151.10 52.54 148.25 50.44 145.25 49.24 C 145.29 47.90 145.34 46.57 145.40 45.24 C 144.89 44.98 143.86 44.45 143.35 44.18 C 143.28 45.26 143.14 47.41 143.07 48.48 C 142.07 46.37 141.25 44.00 139.24 42.61 C 139.64 45.04 140.35 47.38 141.06 49.73 C 138.82 50.70 136.51 51.50 134.16 52.17 C 135.37 50.02 137.75 47.85 136.28 45.21 C 134.46 45.09 134.38 47.75 133.32 48.89 C 133.32 47.41 133.29 45.92 133.24 44.44 C 129.81 45.74 126.39 47.11 122.80 47.91 C 125.23 45.91 127.94 44.29 130.72 42.85 C 130.52 41.66 130.32 40.46 130.13 39.27 C 127.69 39.32 125.24 39.22 122.80 39.20 C 125.40 37.87 128.09 36.69 130.51 35.03 C 127.43 35.52 124.12 35.73 121.39 37.39 C 119.79 37.82 120.15 39.34 120.45 40.57 C 122.59 42.30 125.56 41.53 128.10 41.71 C 124.79 43.51 121.63 45.60 118.67 47.93 C 118.95 48.63 119.53 50.02 119.82 50.71 C 123.36 50.29 126.88 49.56 130.23 48.31 C 130.80 49.60 131.39 50.88 131.98 52.17 C 128.47 53.41 124.77 54.56 121.94 57.10 C 119.02 59.38 117.81 63.01 116.11 66.16 C 115.12 64.61 114.14 63.04 113.23 61.44 C 115.88 59.28 118.07 56.43 118.35 52.90 C 119.24 44.70 118.12 36.12 114.49 28.65 C 115.16 28.18 116.48 27.24 117.15 26.77 C 115.66 26.30 114.17 25.81 112.69 25.30 C 113.57 22.28 116.00 20.27 119.06 19.67 C 119.57 18.98 120.09 18.28 120.59 17.58 C 116.22 17.02 112.30 19.85 110.82 23.84 C 110.27 23.52 109.17 22.88 108.62 22.56 C 104.87 27.83 104.50 34.38 104.74 40.62 C 102.97 38.34 101.18 36.07 99.35 33.83 C 99.19 29.20 98.46 22.49 92.34 22.52 C 94.18 25.11 96.14 27.76 96.12 31.10 C 92.34 29.04 90.71 23.59 86.08 23.27 C 85.49 23.66 84.32 24.43 83.73 24.82 C 81.84 22.32 79.92 19.71 77.00 18.34 C 76.07 19.09 75.14 19.85 74.22 20.61 C 72.78 18.86 71.65 16.64 69.55 15.59 C 68.03 14.82 66.50 15.80 65.07 16.25 C 66.50 16.94 67.91 17.68 69.33 18.38 C 68.15 19.13 65.11 18.36 65.26 20.33 C 66.62 20.88 68.02 21.32 69.41 21.79 C 69.50 22.94 69.60 24.09 69.70 25.24 C 71.74 25.48 73.54 24.47 75.29 23.57 C 77.42 24.50 79.47 25.61 81.34 26.99 C 79.26 27.57 77.14 28.06 75.02 28.48 L 75.25 30.54 C 78.45 30.40 81.44 29.27 84.04 27.44 C 85.85 28.78 89.99 28.84 89.81 31.62 C 87.75 31.71 85.69 31.58 83.62 31.57 C 82.81 33.75 85.65 34.14 87.05 34.50 C 89.26 34.04 91.27 32.86 93.51 32.50 C 94.30 33.36 95.06 34.26 95.77 35.19 C 92.39 36.20 88.95 35.43 85.57 34.94 C 87.78 39.42 93.78 38.32 97.49 36.53 C 98.37 37.56 99.26 38.59 100.16 39.60 C 98.56 39.87 96.96 40.15 95.36 40.41 C 95.42 40.85 95.53 41.72 95.58 42.16 C 93.76 42.35 91.86 42.55 90.35 43.71 C 92.57 44.14 94.89 44.12 97.04 44.89 C 98.25 46.71 98.10 49.06 98.66 51.12 C 101.28 47.59 99.01 43.47 95.84 41.39 C 97.54 41.83 99.26 42.21 100.95 42.66 C 101.90 44.19 102.90 45.68 103.90 47.17 C 102.98 47.36 101.12 47.75 100.19 47.94 C 103.64 49.17 108.05 49.26 110.31 52.57 C 111.54 55.07 110.01 57.85 109.47 60.35 C 109.90 60.80 110.76 61.70 111.20 62.15 C 110.72 62.40 109.76 62.90 109.29 63.15 C 109.66 65.96 110.26 68.89 109.40 71.66 C 108.60 73.62 106.57 74.67 105.06 76.00 C 104.57 75.35 104.08 74.71 103.59 74.06 C 109.23 69.90 107.19 59.53 100.09 58.49 C 99.18 55.01 96.19 52.84 92.73 52.32 C 94.75 54.62 97.87 55.89 98.85 59.01 C 102.46 60.29 105.96 63.83 105.09 67.95 C 104.16 73.06 99.13 75.78 94.97 78.06 C 92.77 79.37 90.19 78.78 87.80 78.58 C 89.06 79.52 90.18 81.32 92.03 80.85 C 95.86 80.11 99.18 77.81 102.15 75.38 C 102.63 76.04 103.11 76.70 103.59 77.36 C 103.29 78.09 102.70 79.55 102.41 80.28 C 98.22 82.54 93.35 86.87 88.54 83.48 C 88.51 84.18 88.47 85.58 88.44 86.28 C 87.18 87.44 85.93 88.61 84.68 89.77 C 84.18 89.65 83.17 89.41 82.67 89.29 C 82.51 88.47 82.35 87.66 82.20 86.84 C 83.95 86.11 85.99 85.65 87.07 83.89 C 83.54 84.04 79.70 85.29 76.40 83.41 C 74.22 82.08 72.98 79.70 71.22 77.92 C 71.29 82.27 74.95 84.70 78.47 86.31 C 79.18 88.92 80.41 91.33 81.78 93.66 C 83.76 93.05 85.71 92.32 87.57 91.40 C 88.10 92.36 88.62 93.31 89.15 94.26 C 92.38 94.77 95.66 94.77 98.89 94.25 C 98.28 98.52 98.60 102.84 99.81 106.98 C 103.25 106.03 105.64 103.19 108.15 100.84 C 108.28 101.77 108.55 103.62 108.68 104.54 C 109.97 103.99 111.26 103.44 112.55 102.88 C 112.20 104.10 111.86 105.31 111.52 106.52 C 109.48 107.34 106.86 107.56 105.54 109.51 C 104.33 111.63 107.27 112.29 108.48 113.27 C 106.63 115.45 104.26 113.53 102.02 113.59 C 99.77 114.51 97.14 115.78 96.50 118.36 C 95.95 120.32 97.00 122.19 97.58 124.00 L 0.00 124.00 L 0.00 57.68 C 1.11 60.34 1.83 64.02 5.07 64.83 C 7.84 65.58 10.82 65.71 13.20 67.52 C 11.43 68.63 9.75 69.91 8.68 71.73 C 11.38 72.49 14.07 72.09 16.28 70.32 C 17.52 70.95 18.76 71.58 20.02 72.18 C 18.58 73.21 17.14 74.24 15.71 75.29 C 20.65 79.74 26.04 72.90 31.36 75.33 C 29.07 76.35 26.71 77.30 24.64 78.74 C 19.90 82.14 14.16 84.39 10.75 89.38 C 20.68 92.81 32.41 93.22 41.75 87.84 C 45.46 86.07 48.46 82.81 52.63 82.10 C 52.45 83.02 52.26 83.94 52.08 84.86 C 50.65 84.80 49.23 84.69 47.81 84.51 C 48.31 85.73 48.78 86.96 49.23 88.21 C 47.66 88.76 46.07 87.96 44.51 87.79 C 44.61 88.63 44.81 90.30 44.91 91.14 C 43.68 90.49 42.45 89.83 41.23 89.16 C 41.25 91.07 41.32 92.98 41.48 94.88 C 42.88 93.97 44.29 93.05 45.68 92.12 C 45.69 92.95 45.71 94.61 45.72 95.44 C 47.83 93.51 49.27 91.05 50.87 88.72 C 50.60 89.92 50.07 92.31 49.80 93.51 C 53.42 91.90 53.16 87.77 54.37 84.61 C 54.42 85.86 54.53 88.36 54.58 89.62 C 59.03 87.23 56.21 81.96 56.08 78.16 C 58.78 80.84 61.94 83.16 65.82 83.66 C 65.74 84.44 65.58 86.01 65.50 86.79 C 62.42 86.35 60.14 84.47 58.41 81.99 C 58.50 83.54 58.07 85.42 59.40 86.61 C 60.77 88.56 63.34 87.56 65.28 87.44 C 66.10 89.79 67.25 92.55 70.05 92.98 C 72.13 93.96 73.86 92.37 75.19 90.99 C 73.13 90.40 70.15 91.35 68.78 89.23 C 67.38 87.04 67.87 84.36 67.99 81.92 C 68.98 84.34 69.21 87.30 71.27 89.11 C 73.49 90.26 76.39 90.23 78.46 88.75 C 78.33 88.41 78.06 87.71 77.92 87.37 C 75.94 87.00 73.34 88.10 72.02 86.07 C 70.69 83.43 70.90 80.29 70.29 77.46 C 69.80 78.31 68.84 80.03 68.35 80.88 C 65.48 80.77 62.21 81.27 59.89 79.15 C 57.82 78.01 58.56 75.25 57.93 73.35 C 57.38 74.38 56.71 75.33 55.93 76.19 C 54.40 74.38 52.64 72.55 53.44 69.91 C 52.81 70.35 51.55 71.23 50.91 71.66 C 49.95 69.65 48.58 67.88 47.54 65.92 C 48.72 61.86 51.89 59.00 55.13 56.52 C 52.87 55.62 50.57 54.84 48.27 54.03 C 48.94 51.51 49.59 48.97 50.28 46.45 C 51.04 46.41 52.55 46.35 53.30 46.32 C 51.70 43.94 52.81 41.77 54.61 39.95 C 54.98 40.79 55.72 42.49 56.09 43.34 C 56.87 38.82 59.85 35.28 63.90 33.27 C 65.17 34.02 66.44 34.77 67.71 35.51 C 69.02 34.86 70.33 34.22 71.64 33.58 C 71.40 34.39 70.92 36.00 70.68 36.80 C 67.37 37.84 61.35 38.35 62.45 43.29 C 58.90 44.66 55.06 45.58 51.94 47.84 C 49.79 49.40 50.68 52.38 50.52 54.61 C 51.34 54.48 53.00 54.23 53.83 54.11 C 53.11 53.30 52.39 52.50 51.67 51.70 C 54.26 47.53 59.17 46.12 63.36 44.16 C 63.41 43.58 63.50 42.43 63.54 41.85 C 67.42 39.17 72.13 37.94 76.83 38.72 C 75.62 37.75 74.40 36.77 73.17 35.81 C 73.16 35.54 73.13 34.99 73.12 34.72 C 75.27 34.42 77.08 35.78 78.95 36.59 C 80.17 36.64 81.41 36.73 82.50 37.35 C 79.06 38.69 73.89 38.92 73.48 43.63 C 75.69 42.53 77.73 41.04 80.11 40.34 C 82.45 39.60 84.50 41.30 86.52 42.16 C 84.56 39.16 84.37 34.94 80.98 33.03 C 77.18 30.26 72.25 31.06 68.06 32.32 C 62.54 29.23 57.22 34.79 54.89 39.38 C 53.49 39.87 52.09 40.38 50.69 40.89 C 50.06 37.07 49.20 32.51 45.23 30.76 C 46.56 34.08 48.78 37.24 48.56 40.98 C 48.30 45.28 47.53 49.77 44.91 53.32 C 43.64 46.98 44.56 39.55 39.50 34.62 C 40.42 39.81 42.46 44.80 42.32 50.17 C 41.13 49.24 38.87 48.77 39.01 46.85 C 38.79 43.41 38.41 39.96 37.38 36.66 C 36.93 36.56 36.03 36.37 35.58 36.28 C 36.22 39.36 36.70 42.48 36.80 45.63 C 35.61 44.59 34.00 43.63 33.87 41.88 C 33.08 37.56 32.41 33.17 30.79 29.06 C 30.47 27.99 29.39 27.47 28.61 26.78 C 29.56 31.18 30.99 35.46 31.77 39.90 C 28.43 37.08 26.45 33.19 24.91 29.18 C 24.23 29.29 22.85 29.51 22.17 29.62 C 20.96 26.88 19.36 24.19 16.44 23.03 C 16.94 24.42 17.42 25.83 17.88 27.24 C 15.40 25.57 12.70 23.94 9.57 24.20 C 11.72 26.20 14.23 27.75 16.82 29.12 C 15.67 29.82 13.94 30.20 14.12 31.92 C 16.43 32.69 18.79 31.81 21.07 31.40 C 22.10 32.52 23.13 33.65 24.16 34.78 C 22.77 35.52 21.35 36.31 20.58 37.76 C 22.54 37.68 24.49 37.49 26.44 37.25 C 27.30 38.29 28.17 39.32 29.06 40.34 C 27.05 40.33 25.03 40.24 23.02 40.36 C 24.10 43.76 28.46 42.88 31.21 43.19 C 32.04 44.27 32.85 45.36 33.67 46.44 C 30.97 46.42 28.22 46.19 25.61 47.05 C 29.36 50.05 34.73 47.81 38.50 50.67 C 35.25 50.92 31.99 50.61 28.74 50.56 C 31.83 54.95 38.01 53.07 42.56 53.61 C 39.32 55.66 35.46 55.47 31.83 54.87 C 32.09 57.54 34.85 57.78 36.96 57.86 C 40.07 58.00 42.89 56.44 45.92 56.03 C 47.64 56.39 49.25 57.10 50.89 57.72 C 47.93 59.57 46.00 62.46 45.41 65.91 C 38.26 59.97 28.36 56.39 19.14 58.79 C 23.00 65.84 30.78 68.69 37.22 72.76 C 33.31 72.88 29.40 72.61 25.57 71.79 C 24.66 69.61 24.58 66.34 22.01 65.40 C 20.38 66.22 19.90 68.13 18.94 69.53 C 18.83 66.90 18.93 64.10 17.24 61.88 C 16.06 63.27 14.88 64.65 13.67 66.02 C 11.89 62.75 15.78 59.41 14.07 56.10 C 12.82 54.05 10.12 53.70 8.00 53.04 C 4.95 52.03 2.28 54.21 0.00 55.91 L 0.00 0.00 Z" />
<path fill="#2d2020" d=" M 169.10 0.00 L 172.10 0.00 C 175.37 3.09 174.12 8.21 175.70 12.15 C 177.05 11.07 178.59 9.49 180.47 10.48 C 181.87 11.97 181.41 14.20 180.79 15.93 C 179.47 19.68 176.02 21.99 173.00 24.31 C 175.07 24.34 177.71 22.81 179.28 24.76 C 179.54 25.86 179.75 26.98 179.90 28.10 C 182.04 28.17 184.18 28.42 186.26 29.01 C 193.65 24.64 201.70 21.19 210.19 19.69 C 212.41 19.92 211.83 22.57 210.88 23.83 C 208.93 26.61 206.12 28.61 203.56 30.79 C 209.60 30.88 217.31 29.67 221.66 34.82 C 221.53 35.33 221.28 36.35 221.16 36.85 C 214.59 40.62 207.07 42.18 199.72 43.64 C 203.95 45.85 208.58 47.23 213.32 47.75 C 215.28 45.47 216.56 42.61 218.95 40.71 C 219.95 39.89 221.80 40.24 221.38 41.92 C 221.63 44.41 219.89 46.44 218.85 48.54 C 220.64 48.63 222.43 48.72 224.23 48.77 C 226.09 44.65 228.27 39.36 233.53 39.04 C 232.98 42.33 231.54 45.33 229.84 48.16 C 234.26 47.31 238.54 45.79 242.34 43.36 C 242.19 41.34 241.11 39.01 242.80 37.32 C 243.13 37.50 243.81 37.84 244.15 38.01 C 246.52 39.44 249.66 41.76 252.45 40.17 C 252.58 38.55 252.39 36.80 251.09 35.68 C 248.88 36.23 246.75 37.04 244.51 37.47 C 245.74 35.53 247.53 33.46 250.05 33.50 C 252.40 33.30 253.90 35.37 255.00 37.13 L 255.00 40.83 C 253.15 42.20 251.40 43.68 249.94 45.46 C 247.75 45.55 245.57 45.29 243.39 45.44 C 239.89 47.12 236.41 48.88 232.64 49.89 C 233.91 52.21 234.61 54.74 233.31 57.24 C 230.34 55.95 228.01 53.70 226.15 51.09 C 223.95 51.14 221.75 51.16 219.55 51.17 C 219.60 52.75 219.64 54.33 219.66 55.92 C 218.23 55.32 216.81 54.74 215.37 54.17 C 214.70 55.84 213.98 57.48 213.22 59.10 C 214.90 59.88 216.58 60.67 218.25 61.49 C 220.59 59.21 223.46 56.84 226.99 57.60 C 229.17 57.30 229.74 59.59 230.76 60.98 C 229.70 63.10 228.24 64.98 226.41 66.50 C 227.75 67.75 229.07 69.02 230.40 70.29 C 233.12 70.90 235.54 72.31 236.71 74.96 C 235.64 76.58 235.01 78.90 233.01 79.64 C 230.97 80.23 228.23 80.14 227.03 78.09 C 225.34 75.81 226.57 72.95 227.26 70.55 C 225.42 69.08 223.59 67.60 221.69 66.21 C 221.38 68.26 222.61 71.15 220.53 72.56 C 219.52 73.56 218.31 73.90 216.91 73.58 C 213.79 70.78 214.12 65.94 215.60 62.37 C 213.94 61.91 212.29 61.46 210.63 61.02 C 211.86 63.44 212.54 67.45 208.93 68.10 C 204.90 68.39 204.10 63.47 202.59 60.71 C 201.65 60.54 200.71 60.42 199.77 60.33 C 198.88 61.35 197.99 62.37 197.10 63.38 C 195.32 63.75 193.53 64.11 191.77 64.57 C 195.89 64.57 200.62 63.46 204.19 66.16 C 205.70 67.42 203.72 68.97 202.95 69.97 C 200.38 73.12 196.28 73.93 192.57 74.94 C 199.56 78.53 203.22 85.86 205.70 92.95 C 206.90 96.42 207.30 100.10 207.41 103.75 C 206.11 103.45 204.67 103.32 203.74 102.25 C 199.00 97.77 194.82 92.75 190.46 87.91 C 191.29 94.16 194.39 101.44 190.07 107.08 C 185.65 103.07 184.18 97.14 181.95 91.83 C 180.43 93.60 179.11 95.63 177.18 96.98 C 174.72 94.81 175.36 90.70 174.57 87.70 C 171.61 90.12 167.58 94.81 163.67 91.40 C 169.46 90.12 173.25 85.31 175.68 80.23 C 174.24 80.94 172.87 82.17 171.15 81.77 C 172.07 79.24 174.20 76.77 172.30 74.11 C 171.35 75.05 170.58 76.15 169.70 77.14 C 169.12 77.21 167.95 77.34 167.36 77.41 C 167.67 78.37 168.28 80.28 168.59 81.24 C 167.25 82.86 166.25 85.36 163.90 85.64 C 162.04 86.05 161.04 84.69 160.83 83.01 C 162.43 82.85 164.03 82.68 165.64 82.51 C 165.64 81.12 165.84 79.71 165.54 78.34 C 164.33 77.57 163.00 77.03 161.72 76.40 C 161.19 75.15 160.97 73.58 159.56 72.94 C 159.49 72.59 159.35 71.90 159.28 71.56 C 159.88 71.33 161.09 70.87 161.69 70.64 C 161.74 69.28 161.78 67.92 161.83 66.56 C 157.91 66.36 154.16 67.56 150.38 68.38 C 151.70 66.82 153.23 65.45 154.85 64.20 C 154.47 62.68 154.79 60.67 153.26 59.73 C 151.66 59.11 149.95 58.85 148.29 58.45 C 148.32 56.81 148.34 55.16 148.37 53.52 C 143.61 50.77 138.45 53.24 134.35 55.97 C 134.31 55.30 134.24 53.95 134.20 53.28 C 128.90 55.48 122.85 57.74 119.98 63.10 C 117.91 67.15 116.97 73.20 121.43 76.03 C 122.02 79.13 118.26 76.43 116.88 76.20 C 117.73 78.81 117.40 82.71 120.72 83.58 C 122.82 81.86 124.03 79.34 125.83 77.34 C 125.59 79.12 125.30 80.90 124.99 82.67 C 125.65 82.89 126.97 83.34 127.63 83.57 C 127.54 84.09 127.37 85.12 127.29 85.64 C 125.67 85.49 123.94 85.48 122.93 83.92 C 121.75 84.55 120.57 85.20 119.41 85.85 C 119.75 86.31 120.10 86.76 120.46 87.22 C 121.97 88.03 123.48 88.86 124.89 89.85 C 124.14 89.99 122.64 90.27 121.88 90.41 C 122.03 90.93 122.33 91.95 122.47 92.47 C 123.71 92.90 124.93 93.40 126.12 93.97 C 125.79 94.66 125.46 95.35 125.13 96.04 C 126.54 96.19 127.94 96.40 129.33 96.66 C 128.97 98.23 128.71 99.82 128.48 101.42 C 130.10 102.12 131.83 102.47 133.54 102.83 C 135.80 105.72 133.75 110.31 129.93 109.86 C 126.68 109.07 126.35 105.12 126.45 102.34 C 125.96 101.61 125.47 100.87 124.98 100.13 C 124.28 101.46 123.55 102.78 122.81 104.08 C 120.86 101.74 121.47 98.83 121.99 96.11 C 121.27 96.78 119.85 98.13 119.14 98.80 C 119.24 96.46 120.73 93.76 118.97 91.68 C 118.65 92.62 118.01 94.50 117.69 95.44 C 115.06 92.89 118.50 89.38 117.71 86.29 C 116.40 85.73 115.74 86.10 115.75 87.40 C 115.76 91.23 115.43 95.05 115.40 98.87 C 116.32 101.18 118.47 103.24 117.81 105.94 C 116.57 107.71 115.20 104.60 113.95 104.22 C 112.89 107.19 113.63 110.16 114.56 113.05 C 115.24 114.94 113.44 116.13 112.41 117.38 C 111.77 115.95 111.15 114.51 110.56 113.07 C 109.09 114.81 107.70 116.66 107.21 118.93 C 106.91 121.50 104.52 122.70 102.62 124.00 L 97.58 124.00 C 97.00 122.19 95.95 120.32 96.50 118.36 C 97.14 115.78 99.77 114.51 102.02 113.59 C 104.26 113.53 106.63 115.45 108.48 113.27 C 107.27 112.29 104.33 111.63 105.54 109.51 C 106.86 107.56 109.48 107.34 111.52 106.52 C 111.86 105.31 112.20 104.10 112.55 102.88 C 111.26 103.44 109.97 103.99 108.68 104.54 C 108.55 103.62 108.28 101.77 108.15 100.84 C 105.64 103.19 103.25 106.03 99.81 106.98 C 98.60 102.84 98.28 98.52 98.89 94.25 C 95.66 94.77 92.38 94.77 89.15 94.26 C 88.62 93.31 88.10 92.36 87.57 91.40 C 85.71 92.32 83.76 93.05 81.78 93.66 C 80.41 91.33 79.18 88.92 78.47 86.31 C 74.95 84.70 71.29 82.27 71.22 77.92 C 72.98 79.70 74.22 82.08 76.40 83.41 C 79.70 85.29 83.54 84.04 87.07 83.89 C 85.99 85.65 83.95 86.11 82.20 86.84 C 82.35 87.66 82.51 88.47 82.67 89.29 C 83.17 89.41 84.18 89.65 84.68 89.77 C 85.93 88.61 87.18 87.44 88.44 86.28 C 88.47 85.58 88.51 84.18 88.54 83.48 C 93.35 86.87 98.22 82.54 102.41 80.28 C 102.70 79.55 103.29 78.09 103.59 77.36 C 103.11 76.70 102.63 76.04 102.15 75.38 C 99.18 77.81 95.86 80.11 92.03 80.85 C 90.18 81.32 89.06 79.52 87.80 78.58 C 90.19 78.78 92.77 79.37 94.97 78.06 C 99.13 75.78 104.16 73.06 105.09 67.95 C 105.96 63.83 102.46 60.29 98.85 59.01 C 97.87 55.89 94.75 54.62 92.73 52.32 C 96.19 52.84 99.18 55.01 100.09 58.49 C 107.19 59.53 109.23 69.90 103.59 74.06 C 104.08 74.71 104.57 75.35 105.06 76.00 C 106.57 74.67 108.60 73.62 109.40 71.66 C 110.26 68.89 109.66 65.96 109.29 63.15 C 109.76 62.90 110.72 62.40 111.20 62.15 C 110.76 61.70 109.90 60.80 109.47 60.35 C 110.01 57.85 111.54 55.07 110.31 52.57 C 108.05 49.26 103.64 49.17 100.19 47.94 C 101.12 47.75 102.98 47.36 103.90 47.17 C 102.90 45.68 101.90 44.19 100.95 42.66 C 99.26 42.21 97.54 41.83 95.84 41.39 C 99.01 43.47 101.28 47.59 98.66 51.12 C 98.10 49.06 98.25 46.71 97.04 44.89 C 94.89 44.12 92.57 44.14 90.35 43.71 C 91.86 42.55 93.76 42.35 95.58 42.16 C 95.53 41.72 95.42 40.85 95.36 40.41 C 96.96 40.15 98.56 39.87 100.16 39.60 C 99.26 38.59 98.37 37.56 97.49 36.53 C 93.78 38.32 87.78 39.42 85.57 34.94 C 88.95 35.43 92.39 36.20 95.77 35.19 C 95.06 34.26 94.30 33.36 93.51 32.50 C 91.27 32.86 89.26 34.04 87.05 34.50 C 85.65 34.14 82.81 33.75 83.62 31.57 C 85.69 31.58 87.75 31.71 89.81 31.62 C 89.99 28.84 85.85 28.78 84.04 27.44 C 81.44 29.27 78.45 30.40 75.25 30.54 L 75.02 28.48 C 77.14 28.06 79.26 27.57 81.34 26.99 C 79.47 25.61 77.42 24.50 75.29 23.57 C 73.54 24.47 71.74 25.48 69.70 25.24 C 69.60 24.09 69.50 22.94 69.41 21.79 C 68.02 21.32 66.62 20.88 65.26 20.33 C 65.11 18.36 68.15 19.13 69.33 18.38 C 67.91 17.68 66.50 16.94 65.07 16.25 C 66.50 15.80 68.03 14.82 69.55 15.59 C 71.65 16.64 72.78 18.86 74.22 20.61 C 75.14 19.85 76.07 19.09 77.00 18.34 C 79.92 19.71 81.84 22.32 83.73 24.82 C 84.32 24.43 85.49 23.66 86.08 23.27 C 90.71 23.59 92.34 29.04 96.12 31.10 C 96.14 27.76 94.18 25.11 92.34 22.52 C 98.46 22.49 99.19 29.20 99.35 33.83 C 101.18 36.07 102.97 38.34 104.74 40.62 C 104.50 34.38 104.87 27.83 108.62 22.56 C 109.17 22.88 110.27 23.52 110.82 23.84 C 112.30 19.85 116.22 17.02 120.59 17.58 C 120.09 18.28 119.57 18.98 119.06 19.67 C 116.00 20.27 113.57 22.28 112.69 25.30 C 114.17 25.81 115.66 26.30 117.15 26.77 C 116.48 27.24 115.16 28.18 114.49 28.65 C 118.12 36.12 119.24 44.70 118.35 52.90 C 118.07 56.43 115.88 59.28 113.23 61.44 C 114.14 63.04 115.12 64.61 116.11 66.16 C 117.81 63.01 119.02 59.38 121.94 57.10 C 124.77 54.56 128.47 53.41 131.98 52.17 C 131.39 50.88 130.80 49.60 130.23 48.31 C 126.88 49.56 123.36 50.29 119.82 50.71 C 119.53 50.02 118.95 48.63 118.67 47.93 C 121.63 45.60 124.79 43.51 128.10 41.71 C 125.56 41.53 122.59 42.30 120.45 40.57 C 120.15 39.34 119.79 37.82 121.39 37.39 C 124.12 35.73 127.43 35.52 130.51 35.03 C 128.09 36.69 125.40 37.87 122.80 39.20 C 125.24 39.22 127.69 39.32 130.13 39.27 C 130.32 40.46 130.52 41.66 130.72 42.85 C 127.94 44.29 125.23 45.91 122.80 47.91 C 126.39 47.11 129.81 45.74 133.24 44.44 C 133.29 45.92 133.32 47.41 133.32 48.89 C 134.38 47.75 134.46 45.09 136.28 45.21 C 137.75 47.85 135.37 50.02 134.16 52.17 C 136.51 51.50 138.82 50.70 141.06 49.73 C 140.35 47.38 139.64 45.04 139.24 42.61 C 141.25 44.00 142.07 46.37 143.07 48.48 C 143.14 47.41 143.28 45.26 143.35 44.18 C 143.86 44.45 144.89 44.98 145.40 45.24 C 145.34 46.57 145.29 47.90 145.25 49.24 C 148.25 50.44 151.10 52.54 150.66 56.19 C 154.53 56.68 156.89 59.68 157.62 63.34 C 159.61 63.69 162.26 63.42 163.38 65.50 C 164.82 67.84 164.36 70.72 162.95 72.95 C 163.19 73.59 163.43 74.23 163.68 74.86 C 164.82 75.39 165.96 75.93 167.10 76.47 C 170.06 73.37 171.10 68.20 168.35 64.65 C 166.01 61.34 161.34 62.19 158.44 59.76 C 160.18 59.22 162.01 59.00 163.73 58.38 C 162.25 56.52 161.34 54.04 159.24 52.76 C 157.02 51.85 154.57 51.83 152.23 51.57 C 151.28 49.97 149.56 49.13 148.12 48.08 C 155.84 47.11 161.86 41.37 166.32 35.40 C 164.02 32.17 161.20 28.19 162.71 24.04 C 164.01 22.96 166.16 22.67 167.47 23.90 L 168.27 25.89 C 167.19 25.72 165.02 25.39 163.93 25.22 C 164.06 28.14 165.10 30.92 167.71 32.47 C 167.65 30.26 167.53 28.04 167.42 25.83 L 169.15 26.79 L 169.71 28.36 C 170.30 26.96 170.82 25.54 171.38 24.13 C 169.79 22.81 168.20 21.48 166.81 19.95 C 166.65 19.12 166.34 17.48 166.18 16.66 C 166.71 16.82 167.76 17.16 168.28 17.32 C 169.13 19.19 170.69 20.50 172.36 21.63 C 171.94 19.25 173.01 15.57 170.07 14.50 C 169.44 15.01 168.19 16.02 167.56 16.53 C 167.21 15.41 166.90 14.28 166.53 13.18 C 168.90 11.60 171.42 12.88 173.68 13.89 C 173.66 12.75 173.64 11.60 173.62 10.46 C 171.30 9.73 168.11 9.57 167.23 6.82 C 165.92 4.39 167.38 1.75 169.10 0.00 Z" />
<path fill="#ffffff" d=" M 172.10 0.00 L 255.00 0.00 L 255.00 37.13 C 253.90 35.37 252.40 33.30 250.05 33.50 C 247.53 33.46 245.74 35.53 244.51 37.47 L 244.15 38.01 C 243.81 37.84 243.13 37.50 242.80 37.32 C 241.11 39.01 242.19 41.34 242.34 43.36 C 238.54 45.79 234.26 47.31 229.84 48.16 C 231.54 45.33 232.98 42.33 233.53 39.04 C 228.27 39.36 226.09 44.65 224.23 48.77 C 222.43 48.72 220.64 48.63 218.85 48.54 C 219.89 46.44 221.63 44.41 221.38 41.92 C 221.80 40.24 219.95 39.89 218.95 40.71 C 216.56 42.61 215.28 45.47 213.32 47.75 C 208.58 47.23 203.95 45.85 199.72 43.64 C 207.07 42.18 214.59 40.62 221.16 36.85 C 221.28 36.35 221.53 35.33 221.66 34.82 C 217.31 29.67 209.60 30.88 203.56 30.79 C 206.12 28.61 208.93 26.61 210.88 23.83 C 211.83 22.57 212.41 19.92 210.19 19.69 C 201.70 21.19 193.65 24.64 186.26 29.01 C 184.18 28.42 182.04 28.17 179.90 28.10 C 179.75 26.98 179.54 25.86 179.28 24.76 C 177.71 22.81 175.07 24.34 173.00 24.31 C 176.02 21.99 179.47 19.68 180.79 15.93 C 181.41 14.20 181.87 11.97 180.47 10.48 C 178.59 9.49 177.05 11.07 175.70 12.15 C 174.12 8.21 175.37 3.09 172.10 0.00 Z" />
<path fill="#82a787" d=" M 169.01 4.04 C 169.24 2.37 171.03 2.19 172.30 2.74 C 172.59 4.39 171.92 6.01 171.73 7.62 C 170.43 6.95 167.93 5.95 169.01 4.04 Z" />
<path fill="#2d2020" d=" M 132.47 19.06 C 131.71 15.28 135.70 12.55 139.15 13.32 C 141.13 13.35 141.58 15.82 142.60 17.06 C 142.01 17.64 141.41 18.22 140.81 18.80 C 140.63 17.99 140.28 16.37 140.10 15.56 C 136.90 14.81 134.70 17.23 132.47 19.06 Z" />
<path fill="#82a787" d=" M 166.81 19.95 C 165.29 17.91 165.52 15.38 166.53 13.18 C 166.90 14.28 167.21 15.41 167.56 16.53 C 168.19 16.02 169.44 15.01 170.07 14.50 C 173.01 15.57 171.94 19.25 172.36 21.63 C 170.69 20.50 169.13 19.19 168.28 17.32 C 167.76 17.16 166.71 16.82 166.18 16.66 C 166.34 17.48 166.65 19.12 166.81 19.95 Z" />
<path fill="#82a787" d=" M 174.74 19.59 C 175.26 16.62 176.84 13.96 179.44 12.35 C 179.35 15.34 177.82 18.69 174.74 19.59 Z" />
<path fill="#2d2020" d=" M 121.00 16.97 C 122.97 15.82 125.35 14.30 127.67 15.46 C 129.98 16.82 130.60 19.98 128.98 22.13 C 128.44 20.53 127.81 18.94 127.06 17.42 C 125.06 17.00 123.53 18.32 122.29 19.68 C 122.73 20.72 123.16 21.75 123.59 22.79 C 122.64 22.20 121.71 21.59 120.78 20.98 C 120.85 19.64 120.92 18.31 121.00 16.97 Z" />
<path fill="#2d2020" d=" M 143.79 20.81 C 145.55 16.75 151.67 17.78 152.45 22.03 C 151.20 24.21 149.89 21.06 148.98 20.36 C 147.25 20.52 145.52 20.69 143.79 20.81 Z" />
<path fill="#2d2020" d=" M 128.21 27.01 C 128.75 22.96 132.68 20.95 136.05 19.50 C 138.75 20.27 141.50 22.13 140.97 25.36 C 140.01 24.48 139.15 23.49 138.17 22.63 C 136.62 21.49 134.56 22.90 132.95 23.05 C 134.77 24.10 137.29 24.40 138.10 26.64 C 136.77 26.50 135.44 26.35 134.11 26.19 C 133.49 25.30 132.83 24.44 132.18 23.57 C 131.21 25.10 129.97 26.46 128.21 27.01 Z" />
<path fill="#2d2020" d=" M 153.34 20.93 C 155.55 21.85 156.41 24.02 156.65 26.27 C 158.72 27.66 161.47 28.56 162.63 30.93 C 163.13 33.03 162.97 37.45 159.63 36.23 C 158.37 34.27 161.75 32.79 160.41 30.69 C 159.55 29.21 158.32 31.09 157.84 31.80 C 154.90 35.86 151.25 39.70 146.56 41.69 C 145.00 42.25 143.95 43.58 142.65 44.55 C 142.62 43.82 142.57 42.34 142.54 41.61 C 147.91 38.37 153.72 35.14 156.72 29.34 C 153.95 30.80 151.33 32.54 148.74 34.30 C 147.75 36.71 145.29 39.65 142.36 38.38 C 144.14 33.10 150.12 31.50 153.74 27.80 C 154.81 25.54 153.89 23.18 153.34 20.93 Z" />
<path fill="#82a787" d=" M 188.55 30.56 C 194.40 26.58 201.49 24.97 208.23 23.16 C 204.42 28.44 198.37 32.33 192.03 33.83 C 195.26 31.31 199.03 29.62 202.21 27.05 C 196.56 26.73 192.80 31.48 187.86 33.25 C 188.03 32.58 188.38 31.23 188.55 30.56 Z" />
<path fill="#2d2020" d=" M 9.57 24.20 C 12.70 23.94 15.40 25.57 17.88 27.24 C 17.42 25.83 16.94 24.42 16.44 23.03 C 19.36 24.19 20.96 26.88 22.17 29.62 C 22.85 29.51 24.23 29.29 24.91 29.18 C 26.45 33.19 28.43 37.08 31.77 39.90 C 30.99 35.46 29.56 31.18 28.61 26.78 C 29.39 27.47 30.47 27.99 30.79 29.06 C 32.41 33.17 33.08 37.56 33.87 41.88 C 34.00 43.63 35.61 44.59 36.80 45.63 C 36.70 42.48 36.22 39.36 35.58 36.28 C 36.03 36.37 36.93 36.56 37.38 36.66 C 38.41 39.96 38.79 43.41 39.01 46.85 C 38.87 48.77 41.13 49.24 42.32 50.17 C 42.46 44.80 40.42 39.81 39.50 34.62 C 44.56 39.55 43.64 46.98 44.91 53.32 C 47.53 49.77 48.30 45.28 48.56 40.98 C 48.78 37.24 46.56 34.08 45.23 30.76 C 49.20 32.51 50.06 37.07 50.69 40.89 C 52.09 40.38 53.49 39.87 54.89 39.38 C 57.22 34.79 62.54 29.23 68.06 32.32 C 72.25 31.06 77.18 30.26 80.98 33.03 C 84.37 34.94 84.56 39.16 86.52 42.16 C 84.50 41.30 82.45 39.60 80.11 40.34 C 77.73 41.04 75.69 42.53 73.48 43.63 C 73.89 38.92 79.06 38.69 82.50 37.35 C 81.41 36.73 80.17 36.64 78.95 36.59 C 77.08 35.78 75.27 34.42 73.12 34.72 C 73.13 34.99 73.16 35.54 73.17 35.81 C 74.40 36.77 75.62 37.75 76.83 38.72 C 72.13 37.94 67.42 39.17 63.54 41.85 C 63.50 42.43 63.41 43.58 63.36 44.16 C 59.17 46.12 54.26 47.53 51.67 51.70 C 52.39 52.50 53.11 53.30 53.83 54.11 C 53.00 54.23 51.34 54.48 50.52 54.61 C 50.68 52.38 49.79 49.40 51.94 47.84 C 55.06 45.58 58.90 44.66 62.45 43.29 C 61.35 38.35 67.37 37.84 70.68 36.80 C 70.92 36.00 71.40 34.39 71.64 33.58 C 70.33 34.22 69.02 34.86 67.71 35.51 C 66.44 34.77 65.17 34.02 63.90 33.27 C 59.85 35.28 56.87 38.82 56.09 43.34 C 55.72 42.49 54.98 40.79 54.61 39.95 C 52.81 41.77 51.70 43.94 53.30 46.32 C 52.55 46.35 51.04 46.41 50.28 46.45 C 49.59 48.97 48.94 51.51 48.27 54.03 C 50.57 54.84 52.87 55.62 55.13 56.52 C 51.89 59.00 48.72 61.86 47.54 65.92 C 48.58 67.88 49.95 69.65 50.91 71.66 C 51.55 71.23 52.81 70.35 53.44 69.91 C 52.64 72.55 54.40 74.38 55.93 76.19 C 56.71 75.33 57.38 74.38 57.93 73.35 C 58.56 75.25 57.82 78.01 59.89 79.15 C 62.21 81.27 65.48 80.77 68.35 80.88 C 68.84 80.03 69.80 78.31 70.29 77.46 C 70.90 80.29 70.69 83.43 72.02 86.07 C 73.34 88.10 75.94 87.00 77.92 87.37 C 78.06 87.71 78.33 88.41 78.46 88.75 C 76.39 90.23 73.49 90.26 71.27 89.11 C 69.21 87.30 68.98 84.34 67.99 81.92 C 67.87 84.36 67.38 87.04 68.78 89.23 C 70.15 91.35 73.13 90.40 75.19 90.99 C 73.86 92.37 72.13 93.96 70.05 92.98 C 67.25 92.55 66.10 89.79 65.28 87.44 C 63.34 87.56 60.77 88.56 59.40 86.61 C 58.07 85.42 58.50 83.54 58.41 81.99 C 60.14 84.47 62.42 86.35 65.50 86.79 C 65.58 86.01 65.74 84.44 65.82 83.66 C 61.94 83.16 58.78 80.84 56.08 78.16 C 56.21 81.96 59.03 87.23 54.58 89.62 C 54.53 88.36 54.42 85.86 54.37 84.61 C 53.16 87.77 53.42 91.90 49.80 93.51 C 50.07 92.31 50.60 89.92 50.87 88.72 C 49.27 91.05 47.83 93.51 45.72 95.44 C 45.71 94.61 45.69 92.95 45.68 92.12 C 44.29 93.05 42.88 93.97 41.48 94.88 C 41.32 92.98 41.25 91.07 41.23 89.16 C 42.45 89.83 43.68 90.49 44.91 91.14 C 44.81 90.30 44.61 88.63 44.51 87.79 C 46.07 87.96 47.66 88.76 49.23 88.21 C 48.78 86.96 48.31 85.73 47.81 84.51 C 49.23 84.69 50.65 84.80 52.08 84.86 C 52.26 83.94 52.45 83.02 52.63 82.10 C 48.46 82.81 45.46 86.07 41.75 87.84 C 32.41 93.22 20.68 92.81 10.75 89.38 C 14.16 84.39 19.90 82.14 24.64 78.74 C 26.71 77.30 29.07 76.35 31.36 75.33 C 26.04 72.90 20.65 79.74 15.71 75.29 C 17.14 74.24 18.58 73.21 20.02 72.18 C 18.76 71.58 17.52 70.95 16.28 70.32 C 14.07 72.09 11.38 72.49 8.68 71.73 C 9.75 69.91 11.43 68.63 13.20 67.52 C 10.82 65.71 7.84 65.58 5.07 64.83 C 1.83 64.02 1.11 60.34 0.00 57.68 L 0.00 55.91 C 2.28 54.21 4.95 52.03 8.00 53.04 C 10.12 53.70 12.82 54.05 14.07 56.10 C 15.78 59.41 11.89 62.75 13.67 66.02 C 14.88 64.65 16.06 63.27 17.24 61.88 C 18.93 64.10 18.83 66.90 18.94 69.53 C 19.90 68.13 20.38 66.22 22.01 65.40 C 24.58 66.34 24.66 69.61 25.57 71.79 C 29.40 72.61 33.31 72.88 37.22 72.76 C 30.78 68.69 23.00 65.84 19.14 58.79 C 28.36 56.39 38.26 59.97 45.41 65.91 C 46.00 62.46 47.93 59.57 50.89 57.72 C 49.25 57.10 47.64 56.39 45.92 56.03 C 42.89 56.44 40.07 58.00 36.96 57.86 C 34.85 57.78 32.09 57.54 31.83 54.87 C 35.46 55.47 39.32 55.66 42.56 53.61 C 38.01 53.07 31.83 54.95 28.74 50.56 C 31.99 50.61 35.25 50.92 38.50 50.67 C 34.73 47.81 29.36 50.05 25.61 47.05 C 28.22 46.19 30.97 46.42 33.67 46.44 C 32.85 45.36 32.04 44.27 31.21 43.19 C 28.46 42.88 24.10 43.76 23.02 40.36 C 25.03 40.24 27.05 40.33 29.06 40.34 C 28.17 39.32 27.30 38.29 26.44 37.25 C 24.49 37.49 22.54 37.68 20.58 37.76 C 21.35 36.31 22.77 35.52 24.16 34.78 C 23.13 33.65 22.10 32.52 21.07 31.40 C 18.79 31.81 16.43 32.69 14.12 31.92 C 13.94 30.20 15.67 29.82 16.82 29.12 C 14.23 27.75 11.72 26.20 9.57 24.20 Z" />
<path fill="#2d2020" d=" M 137.88 33.65 C 138.51 28.51 144.05 25.93 148.03 23.50 C 148.55 23.56 149.60 23.67 150.12 23.72 C 151.74 26.63 149.11 29.27 146.78 30.66 C 146.76 29.66 146.73 27.68 146.71 26.68 C 146.25 26.98 145.33 27.59 144.87 27.89 C 144.33 30.35 144.31 33.88 141.38 34.76 C 141.34 33.91 141.24 32.22 141.19 31.37 C 140.10 32.15 139.00 32.91 137.88 33.65 Z" />
<path fill="#82a787" d=" M 167.47 23.90 C 167.75 24.22 168.31 24.86 168.59 25.18 C 168.73 25.58 169.01 26.39 169.15 26.79 L 167.42 25.83 C 167.53 28.04 167.65 30.26 167.71 32.47 C 165.10 30.92 164.06 28.14 163.93 25.22 C 165.02 25.39 167.19 25.72 168.27 25.89 L 167.47 23.90 Z" />
<path fill="#2d2020" d=" M 121.36 25.52 C 122.81 24.96 124.72 23.80 126.06 25.28 C 124.21 27.85 119.89 27.72 118.75 31.03 C 118.90 32.36 119.45 33.60 119.79 34.89 C 117.41 35.30 116.91 32.78 116.62 31.00 C 116.74 28.31 119.12 26.54 121.36 25.52 Z" />
<path fill="#82a787" d=" M 170.58 32.32 C 170.98 29.11 173.77 26.07 177.06 25.86 C 178.62 27.25 176.11 28.40 175.41 29.45 C 174.00 30.71 172.26 31.49 170.58 32.32 Z" />
<path fill="#82a787" d=" M 107.72 33.11 C 107.74 30.62 108.79 28.34 109.96 26.21 C 115.11 33.69 116.74 43.14 115.98 52.06 C 115.89 54.41 114.63 56.42 113.25 58.22 C 114.71 52.24 114.79 45.89 112.91 39.98 C 112.09 37.06 109.11 35.65 107.72 33.11 Z" />
<path fill="#2d2020" d=" M 122.84 28.79 C 126.46 28.22 129.53 31.33 133.06 30.42 C 134.66 29.67 135.58 30.64 136.31 31.98 C 135.70 32.05 134.48 32.19 133.87 32.26 C 135.09 32.66 137.65 33.30 136.17 35.08 C 134.06 35.96 132.45 33.99 130.92 32.92 C 129.46 31.54 127.42 31.25 125.53 30.88 C 126.85 31.99 128.27 33.05 129.09 34.62 C 125.82 34.51 122.97 32.13 122.84 28.79 Z" />
<path fill="#ffffff" d=" M 172.02 36.24 C 175.76 34.10 179.33 30.36 184.05 31.28 C 185.15 32.07 185.91 33.22 186.82 34.21 C 186.05 34.33 184.52 34.56 183.75 34.67 C 183.47 35.18 182.90 36.20 182.62 36.71 C 178.97 36.46 174.11 36.72 172.84 40.89 C 176.24 39.33 180.34 37.66 183.79 40.10 C 186.52 41.26 186.94 44.25 187.06 46.87 C 191.05 43.42 186.16 38.69 182.97 36.81 C 184.94 36.75 186.78 37.39 188.26 38.70 C 189.73 38.89 191.59 38.02 192.80 39.10 C 192.75 40.55 192.35 41.96 192.00 43.36 C 193.24 43.79 194.48 44.20 195.73 44.61 C 195.57 45.42 195.25 47.04 195.09 47.85 C 196.68 49.17 198.93 50.50 198.57 52.92 C 198.50 56.89 195.07 59.31 191.83 60.84 C 190.51 61.31 189.23 61.89 188.13 62.77 C 188.81 63.37 190.17 64.59 190.85 65.20 C 189.40 67.51 186.76 66.76 184.50 66.59 C 183.77 68.46 183.64 70.83 181.86 72.07 C 180.39 72.69 178.76 72.78 177.21 73.12 C 177.66 72.00 178.08 70.88 178.47 69.74 C 177.02 69.74 175.57 69.73 174.12 69.71 C 171.12 65.88 169.25 60.00 163.64 59.42 C 166.59 53.92 159.85 49.19 154.80 49.22 C 156.34 48.06 157.92 46.96 159.52 45.89 C 160.01 47.43 160.50 48.99 161.71 50.13 C 162.49 48.79 163.51 47.67 164.78 46.76 C 163.69 45.91 162.58 45.11 161.46 44.30 C 162.37 43.25 163.29 42.20 164.19 41.13 C 164.49 43.17 165.43 44.96 167.29 45.95 C 166.93 43.90 166.10 41.57 167.71 39.80 C 168.89 38.21 172.10 35.86 168.85 34.54 C 169.57 34.47 170.99 34.32 171.70 34.24 C 171.78 34.74 171.94 35.74 172.02 36.24 Z" />
<path fill="#82a787" d=" M 196.00 35.34 C 199.79 33.72 203.98 33.63 208.04 33.60 C 211.42 33.62 215.08 33.63 217.92 35.76 C 215.17 36.97 212.34 37.97 209.48 38.88 C 209.46 38.17 209.41 36.75 209.38 36.03 C 205.02 36.76 200.28 37.83 196.03 36.17 L 196.00 35.34 Z" />
<path fill="#82a787" d=" M 244.51 37.47 C 246.75 37.04 248.88 36.23 251.09 35.68 C 252.39 36.80 252.58 38.55 252.45 40.17 C 249.66 41.76 246.52 39.44 244.15 38.01 L 244.51 37.47 Z" />
<path fill="#2d2020" d=" M 155.19 36.50 C 157.32 35.99 160.03 36.25 159.68 39.10 C 160.18 42.37 156.31 45.47 153.34 43.57 C 151.92 45.36 150.35 47.25 147.79 46.96 C 149.29 44.94 151.07 43.14 152.61 41.15 C 153.43 41.54 154.24 41.94 155.06 42.35 C 157.62 40.96 156.59 38.36 155.19 36.50 Z" />
<path fill="#82a787" d=" M 108.00 37.49 C 111.55 40.84 111.39 46.16 111.44 50.67 C 110.25 49.59 108.02 49.00 108.11 47.02 C 107.74 43.86 107.84 40.67 108.00 37.49 Z" />
<path fill="#2d2020" d=" M 87.94 38.80 C 89.45 37.69 91.84 39.99 90.81 41.54 C 89.48 42.17 87.40 40.14 87.94 38.80 Z" />
<path fill="#b35779" d=" M 132.75 42.76 C 132.50 39.77 135.00 38.41 137.67 38.89 C 138.18 40.10 138.69 41.31 139.19 42.52 C 138.56 43.12 137.30 44.31 136.67 44.91 C 135.36 44.19 134.05 43.49 132.75 42.76 Z" />
<path fill="#ffffff" d=" M 249.94 45.46 C 251.40 43.68 253.15 42.20 255.00 40.83 L 255.00 124.00 L 102.62 124.00 C 104.52 122.70 106.91 121.50 107.21 118.93 C 107.70 116.66 109.09 114.81 110.56 113.07 C 111.15 114.51 111.77 115.95 112.41 117.38 C 113.44 116.13 115.24 114.94 114.56 113.05 C 113.63 110.16 112.89 107.19 113.95 104.22 C 115.20 104.60 116.57 107.71 117.81 105.94 C 118.47 103.24 116.32 101.18 115.40 98.87 C 115.43 95.05 115.76 91.23 115.75 87.40 C 115.74 86.10 116.40 85.73 117.71 86.29 C 118.50 89.38 115.06 92.89 117.69 95.44 C 118.01 94.50 118.65 92.62 118.97 91.68 C 120.73 93.76 119.24 96.46 119.14 98.80 C 119.85 98.13 121.27 96.78 121.99 96.11 C 121.47 98.83 120.86 101.74 122.81 104.08 C 123.55 102.78 124.28 101.46 124.98 100.13 C 125.47 100.87 125.96 101.61 126.45 102.34 C 126.35 105.12 126.68 109.07 129.93 109.86 C 133.75 110.31 135.80 105.72 133.54 102.83 C 131.83 102.47 130.10 102.12 128.48 101.42 C 128.71 99.82 128.97 98.23 129.33 96.66 C 127.94 96.40 126.54 96.19 125.13 96.04 C 125.46 95.35 125.79 94.66 126.12 93.97 C 124.93 93.40 123.71 92.90 122.47 92.47 C 122.33 91.95 122.03 90.93 121.88 90.41 C 122.64 90.27 124.14 89.99 124.89 89.85 C 123.48 88.86 121.97 88.03 120.46 87.22 C 120.10 86.76 119.75 86.31 119.41 85.85 C 120.57 85.20 121.75 84.55 122.93 83.92 C 123.94 85.48 125.67 85.49 127.29 85.64 C 127.37 85.12 127.54 84.09 127.63 83.57 C 126.97 83.34 125.65 82.89 124.99 82.67 C 125.30 80.90 125.59 79.12 125.83 77.34 C 124.03 79.34 122.82 81.86 120.72 83.58 C 117.40 82.71 117.73 78.81 116.88 76.20 C 118.26 76.43 122.02 79.13 121.43 76.03 C 116.97 73.20 117.91 67.15 119.98 63.10 C 122.85 57.74 128.90 55.48 134.20 53.28 C 134.24 53.95 134.31 55.30 134.35 55.97 C 138.45 53.24 143.61 50.77 148.37 53.52 C 148.34 55.16 148.32 56.81 148.29 58.45 C 149.95 58.85 151.66 59.11 153.26 59.73 C 154.79 60.67 154.47 62.68 154.85 64.20 C 153.23 65.45 151.70 66.82 150.38 68.38 C 154.16 67.56 157.91 66.36 161.83 66.56 C 161.78 67.92 161.74 69.28 161.69 70.64 C 161.09 70.87 159.88 71.33 159.28 71.56 C 159.35 71.90 159.49 72.59 159.56 72.94 C 160.97 73.58 161.19 75.15 161.72 76.40 C 163.00 77.03 164.33 77.57 165.54 78.34 C 165.84 79.71 165.64 81.12 165.64 82.51 C 164.03 82.68 162.43 82.85 160.83 83.01 C 161.04 84.69 162.04 86.05 163.90 85.64 C 166.25 85.36 167.25 82.86 168.59 81.24 C 168.28 80.28 167.67 78.37 167.36 77.41 C 167.95 77.34 169.12 77.21 169.70 77.14 C 170.58 76.15 171.35 75.05 172.30 74.11 C 174.20 76.77 172.07 79.24 171.15 81.77 C 172.87 82.17 174.24 80.94 175.68 80.23 C 173.25 85.31 169.46 90.12 163.67 91.40 C 167.58 94.81 171.61 90.12 174.57 87.70 C 175.36 90.70 174.72 94.81 177.18 96.98 C 179.11 95.63 180.43 93.60 181.95 91.83 C 184.18 97.14 185.65 103.07 190.07 107.08 C 194.39 101.44 191.29 94.16 190.46 87.91 C 194.82 92.75 199.00 97.77 203.74 102.25 C 204.67 103.32 206.11 103.45 207.41 103.75 C 207.30 100.10 206.90 96.42 205.70 92.95 C 203.22 85.86 199.56 78.53 192.57 74.94 C 196.28 73.93 200.38 73.12 202.95 69.97 C 203.72 68.97 205.70 67.42 204.19 66.16 C 200.62 63.46 195.89 64.57 191.77 64.57 C 193.53 64.11 195.32 63.75 197.10 63.38 C 197.99 62.37 198.88 61.35 199.77 60.33 C 200.71 60.42 201.65 60.54 202.59 60.71 C 204.10 63.47 204.90 68.39 208.93 68.10 C 212.54 67.45 211.86 63.44 210.63 61.02 C 212.29 61.46 213.94 61.91 215.60 62.37 C 214.12 65.94 213.79 70.78 216.91 73.58 C 218.31 73.90 219.52 73.56 220.53 72.56 C 222.61 71.15 221.38 68.26 221.69 66.21 C 223.59 67.60 225.42 69.08 227.26 70.55 C 226.57 72.95 225.34 75.81 227.03 78.09 C 228.23 80.14 230.97 80.23 233.01 79.64 C 235.01 78.90 235.64 76.58 236.71 74.96 C 235.54 72.31 233.12 70.90 230.40 70.29 C 229.07 69.02 227.75 67.75 226.41 66.50 C 228.24 64.98 229.70 63.10 230.76 60.98 C 229.74 59.59 229.17 57.30 226.99 57.60 C 223.46 56.84 220.59 59.21 218.25 61.49 C 216.58 60.67 214.90 59.88 213.22 59.10 C 213.98 57.48 214.70 55.84 215.37 54.17 C 216.81 54.74 218.23 55.32 219.66 55.92 C 219.64 54.33 219.60 52.75 219.55 51.17 C 221.75 51.16 223.95 51.14 226.15 51.09 C 228.01 53.70 230.34 55.95 233.31 57.24 C 234.61 54.74 233.91 52.21 232.64 49.89 C 236.41 48.88 239.89 47.12 243.39 45.44 C 245.57 45.29 247.75 45.55 249.94 45.46 Z" />
<path fill="#b35779" d=" M 170.87 51.25 C 169.37 44.95 176.30 42.68 181.15 42.14 C 181.06 42.56 180.89 43.39 180.80 43.81 C 178.15 45.18 175.32 46.18 172.86 47.90 C 173.37 48.98 173.90 50.04 174.45 51.11 C 175.13 48.47 177.21 46.96 179.67 46.16 C 179.71 46.72 179.78 47.82 179.82 48.37 C 180.38 48.04 181.51 47.36 182.07 47.03 C 183.00 47.41 183.93 47.80 184.85 48.19 C 184.84 49.90 184.82 51.62 184.80 53.33 C 181.58 54.13 180.02 51.14 178.58 48.87 C 176.40 50.69 177.50 53.20 178.33 55.42 C 175.70 55.58 174.61 53.43 174.48 51.16 C 173.27 51.19 172.07 51.22 170.87 51.25 Z" />
<path fill="#2d2020" d=" M 59.77 47.74 C 63.77 45.70 68.46 42.02 73.08 44.11 C 68.30 45.53 63.55 47.48 59.76 50.80 C 57.87 52.41 59.10 54.93 59.53 56.89 C 55.22 55.41 55.93 49.31 59.77 47.74 Z" />
<path fill="#2d2020" d=" M 69.73 52.61 C 68.92 47.53 75.26 45.82 79.04 44.70 C 80.11 44.82 83.78 43.65 82.86 45.67 C 77.78 46.29 72.83 48.38 69.73 52.61 Z" />
<path fill="#2d2020" d=" M 89.46 45.29 C 91.89 45.98 94.29 47.15 94.21 50.10 C 92.85 48.85 91.56 47.52 90.14 46.34 C 90.25 47.47 90.48 49.73 90.60 50.87 C 88.89 49.47 87.14 48.14 85.50 46.68 C 86.62 46.98 88.85 47.59 89.97 47.90 C 89.85 47.25 89.59 45.95 89.46 45.29 Z" />
<path fill="#b35779" d=" M 76.39 51.36 C 77.74 50.16 78.88 48.30 80.87 48.20 C 84.73 47.39 87.11 51.10 89.75 53.18 C 91.91 55.36 95.53 56.24 96.55 59.40 C 97.23 62.29 97.33 65.87 94.80 67.93 C 92.11 71.32 86.68 70.14 84.73 74.42 C 82.88 74.91 81.01 75.86 79.06 75.61 C 76.60 74.24 74.98 71.87 73.39 69.62 C 72.44 68.33 70.52 68.93 69.15 68.62 C 66.93 66.17 65.66 63.09 66.22 59.75 C 69.97 57.42 73.42 54.63 76.39 51.36 Z" />
<path fill="#82a787" d=" M 201.54 47.30 C 205.40 48.67 209.51 49.09 213.38 50.38 C 213.62 50.82 214.12 51.68 214.37 52.11 C 212.08 51.61 209.47 50.73 207.43 52.41 C 204.67 53.78 205.01 58.21 201.47 58.44 C 201.83 54.74 202.53 50.98 201.54 47.30 Z" />
<path fill="#2d2020" d=" M 100.91 50.65 C 104.47 49.55 106.94 53.46 106.60 56.62 C 105.59 56.56 104.58 56.56 103.57 56.60 C 103.79 55.28 103.75 53.98 103.45 52.71 C 102.55 52.52 100.75 52.14 99.85 51.96 C 100.11 51.63 100.64 50.98 100.91 50.65 Z" />
<path fill="#2d2020" d=" M 62.16 55.93 C 62.83 53.10 65.21 51.28 68.14 51.34 C 66.76 53.51 64.41 54.83 62.16 55.93 Z" />
<path fill="#2d2020" d=" M 120.04 51.33 C 121.53 51.30 122.95 53.53 122.65 54.93 C 120.99 55.73 119.01 52.73 120.04 51.33 Z" />
<path fill="#82a787" d=" M 205.99 57.30 C 207.31 55.25 209.74 51.51 212.53 53.58 C 213.67 57.16 208.67 59.92 205.99 57.30 Z" />
<path fill="#2d2020" d=" M 62.04 58.75 C 64.33 56.54 66.93 54.33 70.24 53.97 C 67.42 56.54 63.86 58.60 62.27 62.23 C 61.70 63.97 63.30 65.34 63.91 66.83 C 60.56 66.42 59.27 62.31 61.53 59.87 C 60.98 59.42 60.43 58.97 59.87 58.53 C 57.56 60.51 54.04 62.41 54.39 65.99 C 55.19 67.30 56.07 68.55 57.02 69.76 C 52.70 69.74 51.16 64.39 53.29 61.27 C 55.01 58.38 58.53 57.57 61.47 56.52 C 61.62 57.08 61.90 58.19 62.04 58.75 Z" />
<path fill="#82a787" d=" M 4.27 55.32 C 5.90 54.33 7.46 56.12 8.84 56.75 C 7.11 57.87 5.67 60.61 3.24 59.66 C 1.75 58.42 2.52 55.88 4.27 55.32 Z" />
<path fill="#2d2020" d=" M 170.81 62.02 C 168.57 59.35 170.31 54.50 174.12 54.96 C 173.29 56.43 172.33 57.80 171.44 59.23 C 172.61 60.91 174.47 63.41 176.84 62.27 C 177.53 61.84 178.91 60.99 179.60 60.56 C 180.71 65.70 172.51 65.70 170.81 62.02 Z" />
<path fill="#2d2020" d=" M 181.70 57.04 C 184.27 57.91 186.84 58.13 189.15 56.50 C 190.70 58.30 188.04 59.97 186.41 60.22 C 184.14 61.03 182.42 58.91 181.70 57.04 Z" />
<path fill="#2d2020" d=" M 129.19 57.23 C 129.87 56.38 134.06 55.91 132.65 57.74 C 130.09 59.81 127.01 61.75 125.92 65.06 C 125.31 67.56 124.83 70.44 126.09 72.82 C 126.83 75.19 131.12 74.09 130.24 77.23 C 127.32 78.38 124.90 75.80 123.72 73.44 C 121.29 67.64 123.95 60.53 129.19 57.23 Z" />
<path fill="#2d2020" d=" M 129.87 68.51 C 129.43 61.87 137.24 57.93 143.04 59.26 C 146.65 59.48 151.19 63.35 149.21 67.17 C 147.52 64.51 145.58 61.36 141.94 61.60 C 136.61 60.73 133.10 65.10 129.87 68.51 Z" />
<path fill="#82a787" d=" M 205.24 59.95 C 207.58 61.16 209.52 63.16 209.84 65.89 C 206.44 66.14 205.79 62.51 205.24 59.95 Z" />
<path fill="#82a787" d=" M 219.88 62.20 C 222.29 60.25 225.23 59.21 228.35 59.69 C 227.82 61.22 227.56 63.13 225.92 63.91 C 223.80 65.21 221.46 63.63 219.88 62.20 Z" />
<path fill="#82a787" d=" M 24.10 60.40 C 27.08 60.43 30.02 60.91 32.93 61.53 C 32.74 62.29 32.55 63.06 32.36 63.82 C 35.44 66.41 39.16 68.25 41.73 71.41 C 36.38 69.95 31.68 66.90 27.16 63.80 C 25.85 62.96 24.92 61.68 24.10 60.40 Z" />
<path fill="#ffffff" d=" M 36.35 63.45 C 39.92 64.68 42.86 67.61 45.85 69.96 C 42.51 68.04 39.52 65.61 36.35 63.45 Z" />
<path fill="#2d2020" d=" M 99.47 63.92 C 102.29 67.64 98.10 71.85 94.89 73.57 C 92.81 74.50 89.27 76.05 87.75 73.60 C 93.43 73.54 98.17 69.34 99.47 63.92 Z" />
<path fill="#82a787" d=" M 112.34 64.92 C 116.56 71.51 115.15 79.91 113.28 87.04 C 110.98 93.06 107.85 99.23 102.76 103.35 C 100.83 102.77 101.42 100.47 101.32 98.96 C 101.92 92.31 103.35 85.72 105.43 79.38 C 106.27 76.40 109.22 74.96 111.51 73.24 C 111.85 80.79 108.69 87.89 104.10 93.71 C 105.30 93.62 106.65 93.57 107.36 92.42 C 113.44 84.85 115.04 74.14 112.34 64.92 Z" />
<path fill="#82a787" d=" M 217.10 64.78 C 218.64 66.68 219.58 68.96 219.15 71.46 C 216.56 70.30 216.66 67.13 217.10 64.78 Z" />
<path fill="#82a787" d=" M 188.30 69.83 C 192.27 67.40 197.66 64.45 201.99 67.85 C 199.33 70.68 195.64 72.07 191.93 72.91 C 190.73 73.39 189.63 73.25 188.62 72.48 C 190.91 70.73 195.06 70.97 196.09 67.98 C 193.31 68.49 190.70 69.59 188.23 70.94 C 188.25 70.66 188.28 70.10 188.30 69.83 Z" />
<path fill="#2d2020" d=" M 132.87 79.10 C 130.29 74.06 135.11 69.15 139.10 66.68 L 140.88 66.38 C 138.49 69.95 134.70 72.76 133.98 77.25 C 134.81 77.67 136.48 78.52 137.31 78.94 C 136.07 80.13 133.74 81.38 132.87 79.10 Z" />
<path fill="#2d2020" d=" M 61.12 76.00 C 59.68 72.94 61.13 67.75 65.12 67.82 C 64.18 70.23 62.54 72.46 62.47 75.13 C 63.75 77.13 66.19 76.37 68.16 76.55 C 67.18 79.78 62.21 78.68 61.12 76.00 Z" />
<path fill="#b35779" d=" M 143.27 69.91 C 144.72 69.97 146.18 69.98 147.62 70.15 C 148.61 71.14 149.37 72.34 150.14 73.50 C 150.47 76.39 147.90 77.53 145.42 77.05 C 144.17 76.10 142.47 75.47 141.77 73.97 C 141.93 72.51 142.79 71.27 143.27 69.91 Z" />
<path fill="#2d2020" d=" M 68.45 71.59 C 68.88 71.50 69.74 71.31 70.17 71.21 C 70.90 72.73 71.42 74.33 72.04 75.90 C 69.52 76.07 67.85 74.02 68.45 71.59 Z" />
<path fill="#2d2020" d=" M 138.14 74.90 C 138.53 73.10 140.06 71.99 141.39 70.90 C 141.02 73.64 140.19 76.36 140.45 79.16 C 141.16 79.30 142.57 79.60 143.28 79.74 C 143.32 80.24 143.42 81.23 143.47 81.72 C 139.60 83.00 136.67 78.16 138.14 74.90 Z" />
<path fill="#ffffff" d=" M 172.26 71.96 C 174.11 73.46 177.76 75.32 175.86 78.12 C 175.74 77.33 175.50 75.74 175.38 74.94 C 174.32 73.96 173.27 72.98 172.26 71.96 Z" />
<path fill="#82a787" d=" M 228.94 74.65 C 230.60 74.75 232.00 73.97 233.34 73.09 C 233.72 74.93 233.32 77.60 231.00 77.78 C 229.16 78.24 229.27 75.77 228.94 74.65 Z" />
<path fill="#2d2020" d=" M 77.48 80.40 C 75.26 79.72 73.43 76.56 75.49 74.75 C 75.95 75.99 76.45 77.21 76.99 78.42 C 79.98 79.44 83.14 78.68 86.11 78.04 C 86.22 78.37 86.43 79.04 86.53 79.37 C 83.75 80.78 80.49 81.20 77.48 80.40 Z" />
<path fill="#82a787" d=" M 187.08 75.15 C 191.18 76.47 195.02 78.83 197.84 82.09 C 201.15 86.56 202.70 92.10 203.38 97.55 C 201.46 96.17 199.74 94.56 198.26 92.72 C 195.73 89.58 192.57 86.85 191.04 83.02 C 194.51 84.44 195.82 88.14 198.23 90.70 C 199.32 89.65 198.13 88.24 197.75 87.17 C 194.92 82.59 190.87 78.93 187.08 75.15 Z" />
<path fill="#82a787" d=" M 39.10 76.73 C 42.19 75.79 45.44 76.33 48.51 77.05 C 43.82 80.88 37.61 82.39 31.78 83.61 C 30.08 84.17 27.39 83.56 26.81 85.78 C 33.58 86.63 39.81 83.69 46.20 82.08 C 38.48 88.63 27.79 89.38 18.15 88.12 C 23.08 81.40 31.41 78.78 39.10 76.73 Z" />
<path fill="#2d2020" d=" M 154.09 80.54 C 155.43 79.06 156.44 77.27 158.18 76.21 C 159.78 80.31 154.33 85.41 150.62 82.41 C 150.43 81.93 150.04 80.98 149.85 80.50 C 151.26 80.57 152.68 80.58 154.09 80.54 Z" />
<path fill="#82a787" d=" M 177.34 85.63 C 179.01 83.91 179.88 81.65 180.94 79.55 C 180.95 83.22 182.50 87.68 179.72 90.72 C 176.92 91.85 177.89 87.25 177.34 85.63 Z" />
<path fill="#2d2020" d=" M 127.68 92.11 C 127.31 88.38 129.17 84.85 131.48 82.06 C 132.52 86.00 128.53 89.88 130.83 93.66 C 132.76 93.64 134.10 91.92 135.70 91.07 C 136.14 93.76 133.98 95.18 132.34 96.83 C 132.76 98.50 133.39 100.59 135.31 101.08 C 135.77 100.50 136.69 99.36 137.15 98.78 C 138.23 99.65 139.65 101.59 138.00 102.64 C 136.50 104.40 134.38 103.25 132.95 102.13 C 131.04 101.15 131.22 98.77 130.60 97.02 C 130.17 95.11 128.23 93.98 127.68 92.11 Z" />
<path fill="#82a787" d=" M 184.49 82.36 C 184.77 82.33 185.35 82.25 185.64 82.22 C 187.02 88.10 190.12 93.74 189.25 99.96 C 186.79 97.57 185.93 94.19 184.90 91.05 C 186.32 88.22 185.46 85.17 184.49 82.36 Z" />
<path fill="#82a787" d=" M 91.03 86.85 C 94.99 86.84 98.38 84.74 101.76 82.96 C 101.63 83.50 101.37 84.57 101.24 85.11 C 98.35 86.74 93.64 90.99 91.03 86.85 Z" />
<path fill="#2d2020" d=" M 136.59 89.06 C 136.20 86.75 137.31 84.40 139.32 83.22 C 139.88 85.62 137.84 89.84 141.13 90.76 C 144.45 92.55 148.68 90.20 148.03 86.21 C 151.67 88.00 149.27 92.89 146.05 93.47 C 142.28 94.90 137.97 92.77 136.59 89.06 Z" />
<path fill="#82a787" d=" M 88.71 89.38 C 92.59 91.98 96.80 90.01 100.38 87.95 C 100.06 89.54 100.12 91.81 98.07 92.18 C 94.83 92.91 90.14 93.14 88.71 89.38 Z" />
<path fill="#2d2020" d=" M 155.77 88.88 C 160.78 89.07 161.41 96.15 157.48 98.39 C 154.77 100.93 150.91 98.76 149.54 95.90 C 149.66 93.18 152.05 94.86 152.99 95.95 C 154.29 97.67 157.18 96.58 157.56 94.63 C 158.10 92.52 156.47 90.74 155.77 88.88 Z" />
<path fill="#2d2020" d=" M 76.61 91.62 C 79.17 91.47 80.83 93.62 83.00 94.56 C 85.29 95.06 87.65 94.72 89.97 94.69 C 89.44 97.42 86.26 97.53 84.08 97.29 C 80.62 97.27 78.00 94.54 76.61 91.62 Z" />
<path fill="#ffffff" d=" M 113.56 91.71 C 113.53 93.47 113.51 95.23 113.36 96.99 C 111.82 98.00 110.31 99.03 108.78 100.04 C 110.35 97.25 111.89 94.44 113.56 91.71 Z" />
<path fill="#2d2020" d=" M 166.67 93.81 C 169.23 95.32 168.03 98.62 166.58 100.54 C 164.69 103.19 159.55 101.63 158.91 98.69 C 160.97 98.50 162.99 99.19 165.03 99.43 C 165.55 97.55 166.09 95.67 166.67 93.81 Z" />
<path fill="#2d2020" d=" M 141.72 94.71 C 144.06 96.60 143.93 100.25 146.81 101.63 C 148.32 100.74 149.84 99.88 151.36 99.03 C 151.50 99.76 151.77 101.22 151.91 101.95 C 149.97 103.31 147.14 104.68 144.95 103.05 C 142.13 101.33 141.39 97.78 141.72 94.71 Z" />
<path fill="#82a787" d=" M 108.30 109.15 C 111.35 107.68 108.33 112.51 108.30 109.15 Z" />
<path fill="#82a787" d=" M 98.82 117.27 C 99.80 117.50 100.78 117.74 101.76 117.98 C 101.71 119.67 101.70 121.36 101.65 123.06 C 98.66 122.65 97.61 119.86 98.82 117.27 Z" />
</svg>
