<?xml version="1.0" encoding="UTF-8" ?>
<!DOCTYPE svg PUBLIC "-//W3C//DTD SVG 1.1//EN" "http://www.w3.org/Graphics/SVG/1.1/DTD/svg11.dtd">
<svg width="431pt" height="80pt" viewBox="0 0 431 80" version="1.1" xmlns="http://www.w3.org/2000/svg">
<path fill="#546859" d=" M 0.00 0.00 L 208.56 0.00 C 205.34 0.12 202.08 -0.00 198.88 0.53 C 196.01 2.43 192.83 5.79 193.48 9.50 C 195.04 12.43 198.08 14.16 200.55 16.26 C 196.75 18.82 194.06 22.61 193.06 27.09 C 188.05 22.44 182.32 18.08 175.44 16.81 C 175.16 21.64 177.37 25.98 180.09 29.80 C 177.15 30.17 174.22 30.53 171.28 30.85 C 170.14 30.35 169.01 29.86 167.87 29.38 C 164.73 23.67 158.65 21.09 153.12 18.31 C 152.54 20.21 151.45 22.07 151.67 24.11 C 153.38 27.67 157.48 28.99 160.50 31.17 C 152.84 33.54 144.75 34.42 136.81 35.25 C 133.65 33.49 131.58 30.32 128.60 28.29 C 126.28 26.43 123.39 25.57 120.49 25.12 C 120.60 27.52 119.97 30.34 121.67 32.34 C 123.37 34.30 125.53 35.78 127.57 37.36 C 119.79 38.43 111.99 39.24 104.16 39.77 C 100.76 33.79 96.00 28.15 89.42 25.63 C 89.34 28.17 89.05 30.79 89.80 33.26 C 90.76 36.10 93.10 38.12 95.03 40.30 C 89.09 40.35 83.11 40.31 77.23 39.37 C 73.21 38.64 72.51 33.98 70.69 31.02 C 69.16 27.46 65.48 25.80 62.06 24.56 C 61.69 25.43 60.94 27.16 60.57 28.03 C 61.66 31.28 62.90 34.48 64.28 37.63 C 59.50 36.34 54.82 34.71 50.02 33.49 C 48.56 29.97 47.16 26.27 44.47 23.47 C 42.30 21.16 39.37 19.82 36.59 18.43 C 35.74 22.79 36.73 27.16 38.93 30.97 C 35.16 30.75 31.35 31.12 27.61 30.55 C 24.93 27.57 22.53 24.29 19.17 22.01 C 18.19 22.81 17.21 23.62 16.24 24.43 C 13.26 23.98 10.10 22.98 7.14 24.09 C 3.96 25.21 1.75 27.96 0.00 30.71 L 0.00 0.00 Z" />
<path fill="#ffffff" d=" M 208.56 0.00 L 212.59 0.00 C 214.61 2.29 217.45 4.59 217.67 7.84 C 216.70 11.27 214.25 14.02 212.35 16.97 C 214.02 18.04 215.68 19.12 217.34 20.22 C 219.40 17.53 221.85 15.19 224.60 13.23 C 224.27 11.56 223.94 9.89 223.63 8.23 C 227.82 7.11 232.19 7.13 236.47 7.58 C 236.07 9.42 235.65 11.26 235.22 13.10 C 238.11 15.98 240.10 19.59 241.21 23.51 C 245.43 20.27 250.19 17.73 255.39 16.49 C 255.25 19.04 255.84 21.94 254.21 24.14 C 252.34 26.77 249.31 28.14 246.62 29.73 C 252.07 29.83 257.60 31.33 262.98 29.86 C 265.90 23.79 272.21 21.16 277.87 18.31 C 278.50 20.60 280.46 23.38 278.50 25.54 C 276.31 28.00 273.19 29.35 270.50 31.17 C 278.14 33.58 286.23 34.37 294.16 35.26 C 297.33 33.52 299.38 30.35 302.36 28.32 C 304.68 26.44 307.60 25.58 310.50 25.11 C 310.39 27.50 311.03 30.31 309.36 32.31 C 307.65 34.28 305.48 35.76 303.45 37.36 C 311.21 38.43 319.01 39.23 326.83 39.78 C 330.24 33.80 334.99 28.16 341.58 25.63 C 341.65 28.16 341.95 30.78 341.20 33.24 C 340.25 36.09 337.90 38.11 335.97 40.30 C 341.92 40.36 347.92 40.31 353.80 39.36 C 357.78 38.62 358.48 34.01 360.28 31.07 C 361.81 27.49 365.50 25.81 368.93 24.55 C 369.31 25.42 370.06 27.16 370.44 28.03 C 369.34 31.29 368.09 34.49 366.72 37.63 C 371.49 36.34 376.17 34.71 380.97 33.49 C 383.25 27.33 387.15 19.86 394.49 19.22 C 395.52 23.43 393.85 27.55 391.97 31.23 C 395.77 30.89 399.64 31.09 403.42 30.51 C 406.09 27.54 408.48 24.28 411.83 22.01 C 412.81 22.81 413.78 23.62 414.76 24.43 C 417.74 23.98 420.91 22.97 423.87 24.09 C 426.88 25.19 428.87 27.85 431.00 30.11 L 431.00 35.40 C 429.78 38.50 427.48 41.49 424.06 42.23 C 419.98 43.16 415.77 43.16 411.62 43.50 C 408.29 40.89 405.66 37.54 403.99 33.65 C 399.24 33.43 394.49 33.63 389.78 34.33 C 394.19 37.77 398.69 41.73 399.94 47.47 C 396.92 47.49 393.72 47.52 391.02 45.97 C 387.01 43.88 384.67 39.85 382.04 36.36 C 376.99 37.60 372.01 39.08 367.02 40.53 C 369.53 42.86 372.40 44.96 374.25 47.90 C 375.50 49.97 373.49 53.29 370.98 52.34 C 364.85 51.49 362.01 45.00 356.91 42.36 C 350.42 42.22 343.93 43.04 337.42 42.95 C 339.72 46.30 342.11 49.59 344.50 52.88 C 344.11 53.60 343.34 55.03 342.95 55.75 C 340.57 55.52 337.86 55.79 335.94 54.10 C 332.19 50.81 329.54 46.51 326.41 42.68 C 319.14 41.93 311.86 41.24 304.61 40.30 C 306.66 43.66 308.51 47.15 309.79 50.88 C 307.82 51.27 305.60 52.52 303.66 51.41 C 299.34 48.09 298.69 41.92 294.52 38.51 C 288.72 36.57 282.42 36.63 276.47 35.21 C 277.25 37.66 278.02 40.10 278.72 42.57 C 276.83 43.30 274.97 44.15 272.96 44.47 C 270.49 43.60 268.49 41.86 266.41 40.34 C 260.47 42.18 254.20 42.12 248.07 41.55 C 251.53 44.47 255.54 47.13 257.58 51.32 C 258.93 53.94 258.69 56.98 258.48 59.82 C 256.55 54.52 254.09 49.30 249.35 45.93 C 251.34 48.78 253.41 51.58 254.94 54.72 C 251.72 52.68 249.04 49.97 246.16 47.51 C 249.37 52.63 253.31 57.33 258.30 60.80 C 259.33 63.27 260.42 65.73 261.30 68.27 C 259.38 68.31 257.48 68.33 255.57 68.34 C 255.47 68.92 255.28 70.06 255.19 70.64 C 255.95 70.96 257.49 71.62 258.25 71.95 C 258.11 74.70 257.62 77.41 256.69 80.00 L 252.93 80.00 C 250.78 78.20 250.21 75.48 250.07 72.81 C 251.40 71.39 252.72 69.96 254.03 68.51 C 252.56 68.54 251.10 68.67 249.64 68.57 C 249.09 67.19 248.72 65.75 248.33 64.33 C 247.16 64.13 245.99 63.91 244.83 63.70 C 245.70 64.74 246.58 65.78 247.44 66.82 C 246.99 67.90 246.55 68.99 246.11 70.07 C 244.80 70.60 243.50 71.14 242.19 71.67 C 239.80 69.57 238.98 66.75 240.08 63.73 C 241.07 63.68 243.05 63.57 244.04 63.52 C 244.19 62.59 244.34 61.66 244.49 60.73 C 240.55 62.74 236.51 64.98 231.98 65.16 C 229.22 65.38 226.79 63.87 224.46 62.65 C 229.56 62.94 234.74 62.93 239.57 61.00 C 240.10 58.83 240.59 56.65 240.96 54.45 C 241.89 54.11 242.82 53.76 243.76 53.42 C 243.33 52.67 242.47 51.16 242.04 50.41 C 236.97 52.54 231.95 54.79 226.78 56.67 C 226.65 57.32 226.39 58.60 226.26 59.25 C 222.10 61.84 217.32 63.18 212.40 62.89 C 216.12 61.27 220.00 59.99 223.50 57.90 C 221.70 57.16 219.82 56.62 217.95 56.11 C 218.21 54.93 218.48 53.75 218.75 52.57 C 218.39 51.38 218.03 50.19 217.68 49.00 C 220.59 49.52 222.24 51.65 223.09 54.35 C 227.36 54.97 231.12 52.61 234.56 50.43 C 231.62 49.82 228.63 49.59 225.66 49.26 C 227.10 48.41 228.57 47.58 230.04 46.76 C 231.91 44.14 233.99 41.66 235.73 38.95 C 233.57 39.47 231.44 40.07 229.29 40.60 C 230.38 38.95 231.38 36.26 233.86 36.60 C 238.98 37.17 243.95 38.80 249.14 38.83 C 244.21 37.26 238.94 36.68 234.29 34.27 C 231.13 36.75 227.16 36.91 223.32 36.59 C 223.43 37.01 223.66 37.85 223.78 38.27 C 225.76 39.02 227.82 39.66 229.56 40.92 C 229.11 45.90 223.89 47.89 219.95 49.58 C 222.08 46.63 224.77 44.14 226.96 41.23 C 223.87 41.84 220.89 42.89 218.27 44.63 C 217.43 44.60 216.59 44.56 215.76 44.52 C 214.99 42.99 214.20 41.46 213.40 39.95 C 212.22 41.33 211.08 42.75 209.97 44.19 C 207.81 43.93 205.64 43.74 203.47 43.58 C 203.51 45.47 203.58 47.34 203.66 49.23 C 201.95 48.28 200.61 45.95 198.46 46.20 C 197.27 47.04 196.23 48.06 195.16 49.03 C 194.84 48.34 194.52 47.65 194.21 46.97 C 193.70 47.25 192.69 47.83 192.18 48.12 C 192.31 48.69 192.56 49.82 192.69 50.39 C 189.77 51.35 186.62 53.42 187.44 57.00 C 187.32 61.34 192.60 60.83 195.51 61.65 C 194.04 62.38 192.58 63.11 191.12 63.85 C 191.49 65.67 190.92 68.15 192.80 69.25 C 194.63 70.04 196.69 69.55 198.62 69.64 C 199.01 70.73 199.40 71.82 199.80 72.91 C 202.69 73.32 205.61 73.07 208.48 72.58 C 208.60 71.29 208.72 70.00 208.84 68.71 C 205.98 67.68 204.11 65.39 203.56 62.42 C 202.51 61.38 201.47 60.34 200.43 59.30 C 197.69 59.35 194.25 59.85 192.58 57.07 C 191.48 51.83 196.58 48.45 201.12 47.82 C 201.64 49.25 202.16 50.67 202.69 52.10 C 200.83 51.99 198.64 50.53 196.96 51.91 C 195.68 53.21 195.13 55.01 194.36 56.62 C 197.72 56.84 201.08 56.57 204.43 56.18 C 204.23 57.01 203.83 58.66 203.64 59.49 C 205.06 59.01 206.49 58.53 207.92 58.03 C 207.85 60.39 205.75 63.40 207.74 65.36 C 209.28 65.24 210.81 65.06 212.33 64.81 C 212.86 65.59 213.39 66.38 213.93 67.16 C 213.20 68.09 212.48 69.02 211.76 69.96 C 212.44 70.91 213.13 71.86 213.82 72.82 C 215.36 72.32 216.91 71.82 218.45 71.30 C 218.05 70.21 217.24 68.02 216.84 66.93 C 220.25 69.22 223.61 72.69 228.08 72.32 C 230.70 71.70 232.86 69.95 235.22 68.74 C 233.99 70.63 233.21 73.23 230.88 74.04 C 227.28 75.37 223.53 73.89 220.15 72.63 C 214.22 75.03 208.65 78.52 202.26 79.52 C 204.72 77.62 207.38 76.01 210.03 74.39 C 207.74 74.93 205.47 75.82 203.08 75.77 C 200.23 75.64 197.94 73.77 195.62 72.33 C 193.68 71.67 191.61 71.24 189.88 70.11 C 187.94 68.50 188.50 65.65 188.08 63.43 C 185.57 59.99 184.93 55.72 183.65 51.76 C 183.69 50.77 183.76 48.80 183.79 47.81 C 182.39 50.61 181.28 53.55 180.43 56.56 C 182.11 58.48 184.83 60.12 184.64 63.02 C 183.32 63.78 181.93 64.36 180.55 64.98 C 180.61 65.24 180.75 65.76 180.82 66.02 C 182.21 67.79 184.76 69.77 183.39 72.29 C 182.21 75.30 177.90 75.32 176.52 72.49 C 175.35 69.58 177.46 66.91 178.88 64.55 C 177.31 65.06 175.73 65.55 174.16 66.02 C 174.02 62.59 175.79 59.68 178.07 57.28 C 178.90 53.81 179.89 50.39 181.14 47.05 C 180.05 47.67 178.97 48.29 177.90 48.91 C 177.45 51.71 176.81 54.47 176.07 57.21 C 174.39 56.08 172.76 54.88 171.17 53.63 C 170.56 54.34 169.95 55.05 169.34 55.76 C 170.32 58.61 170.67 61.61 170.22 64.60 C 168.28 64.49 166.34 64.37 164.40 64.25 C 164.57 65.73 164.75 67.22 164.96 68.71 C 167.05 69.50 170.31 69.32 171.06 72.00 C 173.05 75.46 169.79 79.89 165.98 79.63 C 162.84 79.33 160.19 76.72 159.33 73.76 C 158.94 71.48 160.52 69.50 161.44 67.55 C 161.58 65.71 161.72 63.86 161.85 62.02 C 160.79 61.24 159.73 60.46 158.67 59.68 C 160.90 56.88 164.03 55.15 167.39 54.05 C 165.95 53.46 164.51 52.85 163.09 52.24 C 163.84 51.05 164.60 49.87 165.37 48.69 C 162.53 48.09 159.68 47.53 156.80 47.21 C 157.17 46.40 157.54 45.60 157.92 44.79 C 156.03 44.01 154.16 43.20 152.30 42.36 C 153.01 39.96 153.77 37.59 154.54 35.21 C 148.57 36.64 142.24 36.55 136.44 38.54 C 132.32 41.96 131.64 48.08 127.36 51.39 C 125.42 52.53 123.19 51.27 121.21 50.88 C 122.48 47.15 124.33 43.66 126.38 40.30 C 119.14 41.24 111.86 41.93 104.60 42.67 C 101.45 46.50 98.81 50.81 95.07 54.09 C 93.15 55.79 90.43 55.52 88.06 55.75 C 87.67 55.03 86.89 53.60 86.50 52.88 C 88.89 49.59 91.27 46.30 93.57 42.95 C 87.08 43.04 80.61 42.23 74.13 42.36 C 69.00 44.95 66.16 51.50 60.02 52.34 C 57.51 53.25 55.48 49.97 56.75 47.90 C 58.60 44.95 61.47 42.86 63.98 40.53 C 58.99 39.08 54.01 37.60 48.96 36.37 C 46.30 39.88 43.94 43.95 39.87 46.02 C 37.20 47.54 34.04 47.48 31.06 47.47 C 32.30 41.74 36.80 37.79 41.18 34.33 C 36.49 33.63 31.74 33.43 27.01 33.65 C 25.35 37.54 22.70 40.89 19.38 43.50 C 15.31 43.17 11.18 43.14 7.16 42.30 C 3.82 41.63 1.58 38.78 0.00 35.97 L 0.00 30.71 C 1.75 27.96 3.96 25.21 7.14 24.09 C 10.10 22.98 13.26 23.98 16.24 24.43 C 17.21 23.62 18.19 22.81 19.17 22.01 C 22.53 24.29 24.93 27.57 27.61 30.55 C 31.35 31.12 35.16 30.75 38.93 30.97 C 36.73 27.16 35.74 22.79 36.59 18.43 C 39.37 19.82 42.30 21.16 44.47 23.47 C 47.16 26.27 48.56 29.97 50.02 33.49 C 54.82 34.71 59.50 36.34 64.28 37.63 C 62.90 34.48 61.66 31.28 60.57 28.03 C 60.94 27.16 61.69 25.43 62.06 24.56 C 65.48 25.80 69.16 27.46 70.69 31.02 C 72.51 33.98 73.21 38.64 77.23 39.37 C 83.11 40.31 89.09 40.35 95.03 40.30 C 93.10 38.12 90.76 36.10 89.80 33.26 C 89.05 30.79 89.34 28.17 89.42 25.63 C 96.00 28.15 100.76 33.79 104.16 39.77 C 111.99 39.24 119.79 38.43 127.57 37.36 C 125.53 35.78 123.37 34.30 121.67 32.34 C 119.97 30.34 120.60 27.52 120.49 25.12 C 123.39 25.57 126.28 26.43 128.60 28.29 C 131.58 30.32 133.65 33.49 136.81 35.25 C 144.75 34.42 152.84 33.54 160.50 31.17 C 157.48 28.99 153.38 27.67 151.67 24.11 C 151.45 22.07 152.54 20.21 153.12 18.31 C 158.65 21.09 164.73 23.67 167.87 29.38 C 169.01 29.86 170.14 30.35 171.28 30.85 C 174.22 30.53 177.15 30.17 180.09 29.80 C 177.37 25.98 175.16 21.64 175.44 16.81 C 182.32 18.08 188.05 22.44 193.06 27.09 C 194.06 22.61 196.75 18.82 200.55 16.26 C 198.08 14.16 195.04 12.43 193.48 9.50 C 192.83 5.79 196.01 2.43 198.88 0.53 C 202.08 -0.00 205.34 0.12 208.56 0.00 Z" />
<path fill="#546859" d=" M 212.59 0.00 L 431.00 0.00 L 431.00 30.11 C 428.87 27.85 426.88 25.19 423.87 24.09 C 420.91 22.97 417.74 23.98 414.76 24.43 C 413.78 23.62 412.81 22.81 411.83 22.01 C 408.48 24.28 406.09 27.54 403.42 30.51 C 399.64 31.09 395.77 30.89 391.97 31.23 C 393.85 27.55 395.52 23.43 394.49 19.22 C 387.15 19.86 383.25 27.33 380.97 33.49 C 376.17 34.71 371.49 36.34 366.72 37.63 C 368.09 34.49 369.34 31.29 370.44 28.03 C 370.06 27.16 369.31 25.42 368.93 24.55 C 365.50 25.81 361.81 27.49 360.28 31.07 C 358.48 34.01 357.78 38.62 353.80 39.36 C 347.92 40.31 341.92 40.36 335.97 40.30 C 337.90 38.11 340.25 36.09 341.20 33.24 C 341.95 30.78 341.65 28.16 341.58 25.63 C 334.99 28.16 330.24 33.80 326.83 39.78 C 319.01 39.23 311.21 38.43 303.45 37.36 C 305.48 35.76 307.65 34.28 309.36 32.31 C 311.03 30.31 310.39 27.50 310.50 25.11 C 307.60 25.58 304.68 26.44 302.36 28.32 C 299.38 30.35 297.33 33.52 294.16 35.26 C 286.23 34.37 278.14 33.58 270.50 31.17 C 273.19 29.35 276.31 28.00 278.50 25.54 C 280.46 23.38 278.50 20.60 277.87 18.31 C 272.21 21.16 265.90 23.79 262.98 29.86 C 257.60 31.33 252.07 29.83 246.62 29.73 C 249.31 28.14 252.34 26.77 254.21 24.14 C 255.84 21.94 255.25 19.04 255.39 16.49 C 250.19 17.73 245.43 20.27 241.21 23.51 C 240.10 19.59 238.11 15.98 235.22 13.10 C 235.65 11.26 236.07 9.42 236.47 7.58 C 232.19 7.13 227.82 7.11 223.63 8.23 C 223.94 9.89 224.27 11.56 224.60 13.23 C 221.85 15.19 219.40 17.53 217.34 20.22 C 215.68 19.12 214.02 18.04 212.35 16.97 C 214.25 14.02 216.70 11.27 217.67 7.84 C 217.45 4.59 214.61 2.29 212.59 0.00 Z" />
<path fill="#546859" d=" M 200.57 2.69 C 201.96 2.65 203.36 2.63 204.76 2.60 C 204.12 3.69 203.47 4.77 202.84 5.85 C 202.08 4.80 201.32 3.74 200.57 2.69 Z" />
<path fill="#546859" d=" M 206.71 2.71 C 207.54 2.60 209.20 2.37 210.03 2.26 C 209.87 3.05 209.57 4.65 209.42 5.44 C 208.49 4.55 207.59 3.64 206.71 2.71 Z" />
<path fill="#546859" d=" M 195.29 7.37 C 196.24 6.16 197.20 4.95 198.17 3.75 C 199.09 5.09 200.01 6.44 200.92 7.79 C 199.04 7.67 197.16 7.53 195.29 7.37 Z" />
<path fill="#546859" d=" M 212.30 3.30 C 213.42 4.69 214.53 6.10 215.62 7.52 C 213.88 7.56 212.16 7.57 210.43 7.56 C 211.04 6.14 211.67 4.72 212.30 3.30 Z" />
<path fill="#546859" d=" M 204.80 7.99 C 203.31 6.68 205.61 4.39 206.93 5.90 C 208.54 7.24 206.13 9.39 204.80 7.99 Z" />
<path fill="#546859" d=" M 210.79 10.61 C 211.81 10.09 212.91 9.77 213.99 9.38 C 212.73 11.24 211.35 13.03 209.93 14.76 C 210.14 13.36 210.43 11.98 210.79 10.61 Z" />
<path fill="#8f9c92" d=" M 232.00 9.59 C 233.43 9.66 233.71 10.30 232.84 11.50 C 231.40 11.43 231.12 10.79 232.00 9.59 Z" />
<path fill="#546859" d=" M 197.25 10.35 C 198.16 10.33 199.97 10.30 200.88 10.29 C 201.30 11.55 201.71 12.82 202.12 14.09 C 200.48 12.86 198.85 11.62 197.25 10.35 Z" />
<path fill="#546859" d=" M 203.37 10.44 C 205.12 10.33 206.89 10.23 208.65 10.15 C 208.19 12.50 207.66 14.84 207.14 17.18 C 205.85 14.95 204.58 12.71 203.37 10.44 Z" />
<path fill="#546859" d=" M 225.33 16.33 C 230.05 13.71 236.99 16.52 237.69 22.13 C 238.70 26.66 234.87 29.86 232.11 32.78 C 233.37 30.26 235.06 27.83 235.47 24.98 C 235.31 21.00 231.25 17.00 227.10 18.42 C 223.42 19.31 222.01 23.19 219.80 25.81 C 220.25 22.10 221.65 17.98 225.33 16.33 Z" />
<path fill="#546859" d=" M 196.31 25.08 C 197.24 21.99 200.11 20.16 203.02 19.19 C 201.57 21.09 199.50 22.63 198.64 24.91 C 198.31 27.43 198.48 29.99 198.42 32.52 C 197.27 30.23 195.49 27.79 196.31 25.08 Z" />
<path fill="#546859" d=" M 209.10 19.06 C 211.91 20.25 215.36 21.17 216.79 24.16 C 218.37 26.80 217.53 29.93 216.85 32.70 C 216.30 30.19 216.20 27.55 215.21 25.15 C 213.68 22.67 211.12 21.10 209.10 19.06 Z" />
<path fill="#546859" d=" M 177.96 20.06 C 182.91 22.31 187.69 25.21 191.21 29.44 C 187.79 28.00 184.78 25.84 181.90 23.54 C 181.43 24.07 180.48 25.12 180.00 25.65 C 179.28 23.80 178.58 21.95 177.96 20.06 Z" />
<path fill="#546859" d=" M 246.18 22.48 C 248.61 21.51 251.03 20.48 253.50 19.61 C 251.87 24.79 246.60 27.06 242.45 29.88 C 244.70 27.38 247.24 25.18 249.68 22.88 C 248.80 22.78 247.05 22.58 246.18 22.48 Z" />
<path fill="#546859" d=" M 227.17 21.24 C 230.40 20.03 233.71 23.88 232.19 26.92 C 231.48 29.81 228.32 31.85 225.47 30.52 C 221.79 28.29 223.64 22.52 227.17 21.24 Z" />
<path fill="#546859" d=" M 204.43 22.39 C 208.93 21.75 215.05 25.39 213.56 30.57 C 211.32 35.96 202.30 34.90 200.54 29.64 C 199.68 26.61 201.29 23.21 204.43 22.39 Z" />
<path fill="#546859" d=" M 154.20 22.76 C 157.65 23.76 160.87 25.51 163.38 28.11 C 159.92 27.20 156.18 26.00 154.20 22.76 Z" />
<path fill="#546859" d=" M 267.64 28.16 C 270.13 25.44 273.44 23.71 276.97 22.78 C 274.77 25.85 271.15 27.22 267.64 28.16 Z" />
<path fill="#546859" d=" M 38.95 23.85 C 42.92 25.35 45.86 28.85 46.00 33.19 C 42.62 31.01 40.00 27.77 38.95 23.85 Z" />
<path fill="#546859" d=" M 384.56 33.15 C 385.42 28.98 387.97 25.36 392.03 23.82 C 390.99 27.86 388.32 31.31 384.56 33.15 Z" />
<path fill="#546859" d=" M 19.12 25.82 C 21.02 27.20 22.73 28.83 24.18 30.68 C 21.68 30.02 19.95 28.24 19.12 25.82 Z" />
<path fill="#546859" d=" M 406.97 30.82 C 408.23 28.82 409.95 27.16 411.92 25.86 C 411.01 28.18 409.33 29.96 406.97 30.82 Z" />
<path fill="#546859" d=" M 7.26 27.38 C 11.12 25.53 15.02 28.12 18.66 29.23 C 16.51 30.35 13.96 30.99 12.37 32.93 C 13.19 35.02 15.83 35.39 17.52 36.57 C 16.59 37.91 16.11 40.23 14.08 40.19 C 11.58 40.33 9.02 40.06 6.64 39.24 C 4.06 38.22 3.35 35.30 2.43 32.98 C 3.62 30.84 4.73 28.23 7.26 27.38 Z" />
<path fill="#546859" d=" M 181.24 27.15 C 183.78 28.32 186.19 29.76 188.44 31.42 C 185.76 30.53 183.26 29.15 181.24 27.15 Z" />
<path fill="#546859" d=" M 412.37 29.20 C 416.02 28.10 419.93 25.52 423.79 27.39 C 426.27 28.26 427.38 30.83 428.57 32.96 C 427.65 35.28 426.95 38.21 424.36 39.24 C 420.52 40.45 415.27 41.46 413.21 36.96 C 415.24 35.68 417.27 34.41 419.22 33.00 C 417.04 31.55 414.71 30.35 412.37 29.20 Z" />
<path fill="#546859" d=" M 64.23 28.55 C 67.82 30.65 69.58 34.57 70.79 38.38 C 66.57 36.99 64.69 32.64 64.23 28.55 Z" />
<path fill="#546859" d=" M 123.47 29.13 C 126.49 30.33 129.21 32.17 131.39 34.58 C 127.96 34.16 124.93 32.34 123.47 29.13 Z" />
<path fill="#546859" d=" M 299.61 34.58 C 301.79 32.16 304.52 30.33 307.55 29.13 C 306.06 32.33 303.05 34.17 299.61 34.58 Z" />
<path fill="#546859" d=" M 360.29 38.74 C 361.25 34.74 363.06 30.70 366.77 28.55 C 366.39 32.80 364.18 36.76 360.29 38.74 Z" />
<path fill="#546859" d=" M 219.71 29.64 C 221.77 30.94 223.62 32.54 225.34 34.27 C 223.02 33.33 220.80 32.00 219.71 29.64 Z" />
<path fill="#546859" d=" M 92.10 30.40 C 95.48 32.43 98.01 35.48 100.20 38.69 C 96.47 37.14 92.52 34.89 92.10 30.40 Z" />
<path fill="#546859" d=" M 330.78 38.70 C 332.98 35.48 335.53 32.44 338.90 30.40 C 338.48 34.90 334.51 37.13 330.78 38.70 Z" />
<path fill="#546859" d=" M 17.26 32.83 C 19.04 32.77 20.82 32.82 22.59 32.98 C 20.86 33.66 18.90 33.95 17.26 32.83 Z" />
<path fill="#546859" d=" M 169.46 33.49 C 174.34 32.26 179.42 31.75 184.40 32.77 C 176.99 35.73 169.57 38.68 162.36 42.10 C 165.08 39.54 167.27 36.50 169.46 33.49 Z" />
<path fill="#546859" d=" M 408.46 32.96 C 410.22 32.81 411.98 32.79 413.74 32.90 C 412.04 33.77 410.18 33.77 408.46 32.96 Z" />
<path fill="#546859" d=" M 239.80 33.23 C 247.69 32.88 256.02 33.88 262.70 38.43 C 259.92 39.11 257.07 39.46 254.21 39.34 C 250.40 35.40 244.66 35.10 239.80 33.23 Z" />
<path fill="#546859" d=" M 259.42 32.89 C 260.80 31.90 263.22 33.83 262.62 35.39 C 261.27 36.14 258.82 34.45 259.42 32.89 Z" />
<path fill="#546859" d=" M 19.38 43.50 C 22.70 40.89 25.35 37.54 27.01 33.65 C 31.74 33.43 36.49 33.63 41.18 34.33 C 36.80 37.79 32.30 41.74 31.06 47.47 C 34.04 47.48 37.20 47.54 39.87 46.02 C 43.94 43.95 46.30 39.88 48.96 36.37 C 54.01 37.60 58.99 39.08 63.98 40.53 C 61.47 42.86 58.60 44.95 56.75 47.90 C 55.48 49.97 57.51 53.25 60.02 52.34 C 66.16 51.50 69.00 44.95 74.13 42.36 C 80.61 42.23 87.08 43.04 93.57 42.95 C 91.27 46.30 88.89 49.59 86.50 52.88 C 86.89 53.60 87.67 55.03 88.06 55.75 C 90.43 55.52 93.15 55.79 95.07 54.09 C 98.81 50.81 101.45 46.50 104.60 42.67 C 111.86 41.93 119.14 41.24 126.38 40.30 C 124.33 43.66 122.48 47.15 121.21 50.88 C 123.19 51.27 125.42 52.53 127.36 51.39 C 131.64 48.08 132.32 41.96 136.44 38.54 C 142.24 36.55 148.57 36.64 154.54 35.21 C 153.77 37.59 153.01 39.96 152.30 42.36 C 154.16 43.20 156.03 44.01 157.92 44.79 C 157.54 45.60 157.17 46.40 156.80 47.21 C 159.68 47.53 162.53 48.09 165.37 48.69 C 164.60 49.87 163.84 51.05 163.09 52.24 C 164.51 52.85 165.95 53.46 167.39 54.05 C 164.03 55.15 160.90 56.88 158.67 59.68 C 159.73 60.46 160.79 61.24 161.85 62.02 C 161.72 63.86 161.58 65.71 161.44 67.55 C 160.52 69.50 158.94 71.48 159.33 73.76 C 160.19 76.72 162.84 79.33 165.98 79.63 C 169.79 79.89 173.05 75.46 171.06 72.00 C 170.31 69.32 167.05 69.50 164.96 68.71 C 164.75 67.22 164.57 65.73 164.40 64.25 C 166.34 64.37 168.28 64.49 170.22 64.60 C 170.67 61.61 170.32 58.61 169.34 55.76 C 169.95 55.05 170.56 54.34 171.17 53.63 C 172.76 54.88 174.39 56.08 176.07 57.21 C 176.81 54.47 177.45 51.71 177.90 48.91 C 178.97 48.29 180.05 47.67 181.14 47.05 C 179.89 50.39 178.90 53.81 178.07 57.28 C 175.79 59.68 174.02 62.59 174.16 66.02 C 175.73 65.55 177.31 65.06 178.88 64.55 C 177.46 66.91 175.35 69.58 176.52 72.49 C 177.90 75.32 182.21 75.30 183.39 72.29 C 184.76 69.77 182.21 67.79 180.82 66.02 C 180.75 65.76 180.61 65.24 180.55 64.98 C 181.93 64.36 183.32 63.78 184.64 63.02 C 184.83 60.12 182.11 58.48 180.43 56.56 C 181.28 53.55 182.39 50.61 183.79 47.81 C 183.76 48.80 183.69 50.77 183.65 51.76 C 184.93 55.72 185.57 59.99 188.08 63.43 C 188.50 65.65 187.94 68.50 189.88 70.11 C 191.61 71.24 193.68 71.67 195.62 72.33 C 197.94 73.77 200.23 75.64 203.08 75.77 C 205.47 75.82 207.74 74.93 210.03 74.39 C 207.38 76.01 204.72 77.62 202.26 79.52 C 208.65 78.52 214.22 75.03 220.15 72.63 C 223.53 73.89 227.28 75.37 230.88 74.04 C 233.21 73.23 233.99 70.63 235.22 68.74 C 232.86 69.95 230.70 71.70 228.08 72.32 C 223.61 72.69 220.25 69.22 216.84 66.93 C 217.24 68.02 218.05 70.21 218.45 71.30 C 216.91 71.82 215.36 72.32 213.82 72.82 C 213.13 71.86 212.44 70.91 211.76 69.96 C 212.48 69.02 213.20 68.09 213.93 67.16 C 213.39 66.38 212.86 65.59 212.33 64.81 C 210.81 65.06 209.28 65.24 207.74 65.36 C 205.75 63.40 207.85 60.39 207.92 58.03 C 206.49 58.53 205.06 59.01 203.64 59.49 C 203.83 58.66 204.23 57.01 204.43 56.18 C 201.08 56.57 197.72 56.84 194.36 56.62 C 195.13 55.01 195.68 53.21 196.96 51.91 C 198.64 50.53 200.83 51.99 202.69 52.10 C 202.16 50.67 201.64 49.25 201.12 47.82 C 196.58 48.45 191.48 51.83 192.58 57.07 C 194.25 59.85 197.69 59.35 200.43 59.30 C 201.47 60.34 202.51 61.38 203.56 62.42 C 204.11 65.39 205.98 67.68 208.84 68.71 C 208.72 70.00 208.60 71.29 208.48 72.58 C 205.61 73.07 202.69 73.32 199.80 72.91 C 199.40 71.82 199.01 70.73 198.62 69.64 C 196.69 69.55 194.63 70.04 192.80 69.25 C 190.92 68.15 191.49 65.67 191.12 63.85 C 192.58 63.11 194.04 62.38 195.51 61.65 C 192.60 60.83 187.32 61.34 187.44 57.00 C 186.62 53.42 189.77 51.35 192.69 50.39 C 192.56 49.82 192.31 48.69 192.18 48.12 C 192.69 47.83 193.70 47.25 194.21 46.97 C 194.52 47.65 194.84 48.34 195.16 49.03 C 196.23 48.06 197.27 47.04 198.46 46.20 C 200.61 45.95 201.95 48.28 203.66 49.23 C 203.58 47.34 203.51 45.47 203.47 43.58 C 205.64 43.74 207.81 43.93 209.97 44.19 C 211.08 42.75 212.22 41.33 213.40 39.95 C 214.20 41.46 214.99 42.99 215.76 44.52 C 216.59 44.56 217.43 44.60 218.27 44.63 C 220.89 42.89 223.87 41.84 226.96 41.23 C 224.77 44.14 222.08 46.63 219.95 49.58 C 223.89 47.89 229.11 45.90 229.56 40.92 C 227.82 39.66 225.76 39.02 223.78 38.27 C 223.66 37.85 223.43 37.01 223.32 36.59 C 227.16 36.91 231.13 36.75 234.29 34.27 C 238.94 36.68 244.21 37.26 249.14 38.83 C 243.95 38.80 238.98 37.17 233.86 36.60 C 231.38 36.26 230.38 38.95 229.29 40.60 C 231.44 40.07 233.57 39.47 235.73 38.95 C 233.99 41.66 231.91 44.14 230.04 46.76 C 228.57 47.58 227.10 48.41 225.66 49.26 C 228.63 49.59 231.62 49.82 234.56 50.43 C 231.12 52.61 227.36 54.97 223.09 54.35 C 222.24 51.65 220.59 49.52 217.68 49.00 C 218.03 50.19 218.39 51.38 218.75 52.57 C 218.48 53.75 218.21 54.93 217.95 56.11 C 219.82 56.62 221.70 57.16 223.50 57.90 C 220.00 59.99 216.12 61.27 212.40 62.89 C 217.32 63.18 222.10 61.84 226.26 59.25 C 226.39 58.60 226.65 57.32 226.78 56.67 C 231.95 54.79 236.97 52.54 242.04 50.41 C 242.47 51.16 243.33 52.67 243.76 53.42 C 242.82 53.76 241.89 54.11 240.96 54.45 C 240.59 56.65 240.10 58.83 239.57 61.00 C 234.74 62.93 229.56 62.94 224.46 62.65 C 226.79 63.87 229.22 65.38 231.98 65.16 C 236.51 64.98 240.55 62.74 244.49 60.73 C 244.34 61.66 244.19 62.59 244.04 63.52 C 243.05 63.57 241.07 63.68 240.08 63.73 C 238.98 66.75 239.80 69.57 242.19 71.67 C 243.50 71.14 244.80 70.60 246.11 70.07 C 246.55 68.99 246.99 67.90 247.44 66.82 C 246.58 65.78 245.70 64.74 244.83 63.70 C 245.99 63.91 247.16 64.13 248.33 64.33 C 248.72 65.75 249.09 67.19 249.64 68.57 C 251.10 68.67 252.56 68.54 254.03 68.51 C 252.72 69.96 251.40 71.39 250.07 72.81 C 250.21 75.48 250.78 78.20 252.93 80.00 L 0.00 80.00 L 0.00 35.97 C 1.58 38.78 3.82 41.63 7.16 42.30 C 11.18 43.14 15.31 43.17 19.38 43.50 Z" />
<path fill="#546859" d=" M 389.78 34.33 C 394.49 33.63 399.24 33.43 403.99 33.65 C 405.66 37.54 408.29 40.89 411.62 43.50 C 415.77 43.16 419.98 43.16 424.06 42.23 C 427.48 41.49 429.78 38.50 431.00 35.40 L 431.00 80.00 L 256.69 80.00 C 257.62 77.41 258.11 74.70 258.25 71.95 C 257.49 71.62 255.95 70.96 255.19 70.64 C 255.28 70.06 255.47 68.92 255.57 68.34 C 257.48 68.33 259.38 68.31 261.30 68.27 C 260.42 65.73 259.33 63.27 258.30 60.80 C 253.31 57.33 249.37 52.63 246.16 47.51 C 249.04 49.97 251.72 52.68 254.94 54.72 C 253.41 51.58 251.34 48.78 249.35 45.93 C 254.09 49.30 256.55 54.52 258.48 59.82 C 258.69 56.98 258.93 53.94 257.58 51.32 C 255.54 47.13 251.53 44.47 248.07 41.55 C 254.20 42.12 260.47 42.18 266.41 40.34 C 268.49 41.86 270.49 43.60 272.96 44.47 C 274.97 44.15 276.83 43.30 278.72 42.57 C 278.02 40.10 277.25 37.66 276.47 35.21 C 282.42 36.63 288.72 36.57 294.52 38.51 C 298.69 41.92 299.34 48.09 303.66 51.41 C 305.60 52.52 307.82 51.27 309.79 50.88 C 308.51 47.15 306.66 43.66 304.61 40.30 C 311.86 41.24 319.14 41.93 326.41 42.68 C 329.54 46.51 332.19 50.81 335.94 54.10 C 337.86 55.79 340.57 55.52 342.95 55.75 C 343.34 55.03 344.11 53.60 344.50 52.88 C 342.11 49.59 339.72 46.30 337.42 42.95 C 343.93 43.04 350.42 42.22 356.91 42.36 C 362.01 45.00 364.85 51.49 370.98 52.34 C 373.49 53.29 375.50 49.97 374.25 47.90 C 372.40 44.96 369.53 42.86 367.02 40.53 C 372.01 39.08 376.99 37.60 382.04 36.36 C 384.67 39.85 387.01 43.88 391.02 45.97 C 393.72 47.52 396.92 47.49 399.94 47.47 C 398.69 41.73 394.19 37.77 389.78 34.33 Z" />
<path fill="#546859" d=" M 156.06 40.83 C 155.95 35.87 161.25 33.86 165.46 34.26 C 163.36 37.21 160.30 42.40 156.06 40.83 Z" />
<path fill="#546859" d=" M 213.71 37.33 C 215.42 36.39 217.17 35.52 219.00 34.81 C 218.07 36.29 217.07 37.73 216.08 39.16 C 215.28 38.55 214.49 37.95 213.71 37.33 Z" />
<path fill="#546859" d=" M 265.53 34.26 C 269.37 34.06 274.52 35.39 274.80 39.99 C 275.64 42.15 272.31 41.29 271.43 40.60 C 268.81 39.20 267.12 36.67 265.53 34.26 Z" />
<path fill="#546859" d=" M 18.32 41.16 C 19.33 38.79 20.73 36.43 23.43 35.79 C 22.07 37.88 20.33 39.68 18.32 41.16 Z" />
<path fill="#546859" d=" M 176.67 43.12 C 180.08 39.13 185.12 37.16 190.17 36.29 C 186.20 39.48 181.56 41.75 176.67 43.12 Z" />
<path fill="#546859" d=" M 407.64 36.45 C 408.29 36.46 409.57 36.49 410.22 36.50 C 411.00 38.06 411.76 39.61 412.51 41.18 C 410.81 39.68 409.20 38.10 407.64 36.45 Z" />
<path fill="#546859" d=" M 34.99 44.80 C 37.13 40.85 40.75 37.93 45.13 36.85 C 42.85 40.65 39.50 43.93 34.99 44.80 Z" />
<path fill="#546859" d=" M 186.35 49.15 C 187.40 44.33 189.91 39.93 193.75 36.82 C 192.39 40.20 190.83 43.52 189.95 47.07 C 188.76 47.77 187.55 48.46 186.35 49.15 Z" />
<path fill="#546859" d=" M 193.06 43.90 C 194.44 41.27 196.02 38.71 198.12 36.58 C 197.78 39.78 195.48 42.06 193.06 43.90 Z" />
<path fill="#546859" d=" M 201.03 37.63 C 204.18 38.68 207.48 39.01 210.78 38.93 C 210.20 39.49 209.61 40.04 209.04 40.60 C 205.22 40.71 201.95 42.79 198.43 43.99 C 199.28 41.86 200.18 39.76 201.03 37.63 Z" />
<path fill="#546859" d=" M 385.86 36.87 C 390.25 37.91 393.86 40.85 396.00 44.80 C 391.50 43.93 388.16 40.64 385.86 36.87 Z" />
<path fill="#546859" d=" M 162.19 45.40 C 167.16 42.13 172.92 40.41 178.14 37.60 C 176.47 39.43 175.06 41.49 175.19 44.08 C 170.98 45.33 166.58 46.05 162.19 45.40 Z" />
<path fill="#546859" d=" M 216.52 41.83 C 217.83 40.37 219.15 38.92 220.46 37.45 C 220.84 38.30 221.20 39.17 221.53 40.05 C 220.12 41.25 218.32 41.70 216.52 41.83 Z" />
<path fill="#546859" d=" M 124.39 49.59 C 125.85 45.94 128.29 42.82 131.04 40.05 C 129.60 43.64 128.44 48.10 124.39 49.59 Z" />
<path fill="#546859" d=" M 231.61 46.79 C 234.56 44.82 237.21 42.41 239.01 39.32 C 239.38 39.80 240.11 40.77 240.48 41.26 C 239.41 42.28 238.40 43.35 237.49 44.52 C 239.36 44.93 243.84 43.49 242.33 46.92 C 240.97 48.10 239.40 49.00 237.88 49.94 C 236.02 48.46 233.95 47.28 231.61 46.79 Z" />
<path fill="#546859" d=" M 299.95 40.04 C 302.71 42.82 305.16 45.95 306.61 49.62 C 302.57 48.09 301.40 43.65 299.95 40.04 Z" />
<path fill="#546859" d=" M 59.08 49.72 C 61.37 45.90 65.20 43.39 69.40 42.11 C 66.71 45.52 63.40 48.60 59.08 49.72 Z" />
<path fill="#546859" d=" M 361.62 42.11 C 365.81 43.41 369.63 45.90 371.92 49.72 C 367.60 48.61 364.29 45.53 361.62 42.11 Z" />
<path fill="#546859" d=" M 89.89 53.00 C 91.71 48.72 95.29 45.52 99.62 43.92 C 97.47 47.78 94.73 52.43 89.89 53.00 Z" />
<path fill="#546859" d=" M 331.37 43.93 C 335.70 45.52 339.29 48.72 341.11 53.00 C 336.27 52.42 333.53 47.78 331.37 43.93 Z" />
<path fill="#ffffff" d=" M 208.18 49.79 C 209.20 47.63 210.67 45.56 213.24 45.22 C 213.90 47.15 214.33 49.16 214.77 51.15 C 213.20 51.61 211.64 52.06 210.07 52.50 C 209.60 51.82 208.65 50.47 208.18 49.79 Z" />
<path fill="#b4bdb6" d=" M 172.21 47.19 C 173.83 46.60 174.40 47.13 173.92 48.77 C 172.30 49.36 171.73 48.83 172.21 47.19 Z" />
<path fill="#546859" d=" M 165.25 51.63 C 167.08 50.08 169.32 49.20 171.73 49.92 C 169.66 50.81 167.49 51.43 165.25 51.63 Z" />
<path fill="#ffffff" d=" M 207.59 53.92 C 209.09 53.40 210.59 52.89 212.10 52.38 C 212.74 52.81 214.02 53.68 214.67 54.11 C 214.18 56.99 212.58 59.27 209.61 59.94 C 210.29 58.39 211.01 56.87 211.73 55.34 C 210.29 55.98 208.86 56.63 207.40 57.23 C 207.45 56.13 207.52 55.02 207.59 53.92 Z" />
<path fill="#546859" d=" M 245.89 52.27 C 246.79 53.42 247.68 54.57 248.58 55.72 C 248.18 56.47 247.78 57.23 247.39 57.98 C 246.86 56.09 246.36 54.18 245.89 52.27 Z" />
<path fill="#b6beb8" d=" M 163.28 58.21 C 163.74 58.77 163.74 58.77 163.28 58.21 Z" />
<path fill="#546859" d=" M 250.14 60.70 C 248.23 60.88 248.40 57.91 250.11 57.81 C 251.96 57.63 251.89 60.69 250.14 60.70 Z" />
<path fill="#9da8a0" d=" M 166.94 59.85 C 168.37 59.92 168.65 60.56 167.77 61.75 C 166.33 61.67 166.05 61.03 166.94 59.85 Z" />
<path fill="#546859" d=" M 180.51 60.58 C 182.14 60.09 182.71 60.66 182.21 62.26 C 180.58 62.76 180.02 62.20 180.51 60.58 Z" />
<path fill="#ffffff" d=" M 195.33 64.04 C 194.96 61.49 197.67 60.75 199.57 60.24 C 198.99 61.60 198.39 62.95 197.78 64.29 C 198.05 64.84 198.59 65.93 198.86 66.47 C 200.43 66.53 202.01 66.57 203.58 66.60 C 203.48 66.96 203.27 67.68 203.16 68.04 C 201.99 68.53 200.82 69.03 199.66 69.53 C 197.52 68.41 194.91 66.88 195.33 64.04 Z" />
<path fill="#546859" d=" M 255.83 66.35 C 254.02 64.90 256.63 63.01 257.89 64.63 C 259.81 66.04 257.07 67.93 255.83 66.35 Z" />
<path fill="#546859" d=" M 242.06 69.36 C 242.68 68.43 241.66 63.63 244.05 66.03 C 246.62 67.32 243.40 68.89 242.06 69.36 Z" />
<path fill="#546859" d=" M 178.26 72.11 C 178.60 70.81 178.97 69.53 179.37 68.25 C 180.14 68.80 181.69 69.90 182.46 70.46 C 181.08 71.05 179.68 71.60 178.26 72.11 Z" />
<path fill="#546859" d=" M 166.01 77.89 C 163.67 76.22 161.72 73.96 162.18 70.88 C 164.05 70.90 165.93 70.88 167.81 70.84 C 168.22 72.17 168.65 73.51 168.87 74.89 C 168.04 76.01 166.98 76.91 166.01 77.89 Z" />
<path fill="#546859" d=" M 253.24 77.37 C 252.26 74.90 253.19 72.78 255.37 71.40 C 255.63 73.39 255.74 75.39 255.71 77.40 C 255.10 77.39 253.86 77.38 253.24 77.37 Z" />
</svg>
